<?xml version="1.0" encoding="utf-8"?>
<!-- Generator: Adobe Illustrator 15.1.0, SVG Export Plug-In . SVG Version: 6.00 Build 0)  -->
<!DOCTYPE svg PUBLIC "-//W3C//DTD SVG 1.1//EN" "http://www.w3.org/Graphics/SVG/1.1/DTD/svg11.dtd">
<svg version="1.1" id="Layer_1" xmlns="http://www.w3.org/2000/svg" xmlns:xlink="http://www.w3.org/1999/xlink" x="0px" y="0px"
	 width="512px" height="512px" viewBox="0 0 512 512" enable-background="new 0 0 512 512" xml:space="preserve">
<g>
	<g>
		<rect fill="#F5F5F5" width="512" height="512"/>
		<g opacity="0.2">
			<path d="M102.299,471.902c-0.23,1.367-1.192,1.655-2.137,0.642l-4.375-4.694c-0.945-1.014-2.841-1.678-4.211-1.474l-6.348,0.941
				c-1.371,0.204-1.943-0.622-1.27-1.833l3.112-5.611c0.673-1.212,0.718-3.219,0.101-4.461l-2.858-5.746
				c-0.617-1.241-0.009-2.039,1.352-1.774l6.3,1.228c1.36,0.265,3.284-0.313,4.273-1.283l4.581-4.494
				c0.99-0.971,1.938-0.64,2.106,0.736l0.78,6.37c0.168,1.376,1.312,3.026,2.541,3.667l5.689,2.97
				c1.229,0.642,1.207,1.646-0.05,2.23l-5.817,2.71c-1.256,0.585-2.473,2.182-2.703,3.55L102.299,471.902z"/>
		</g>
		<path fill="#FFFFFF" d="M103.877,339.566c0.142,2.185-1.231,2.976-3.051,1.761l-8.424-5.629c-1.82-1.216-4.972-1.548-7.005-0.738
			l-9.412,3.749c-2.033,0.81-3.211-0.251-2.617-2.356l2.75-9.752c0.594-2.105-0.064-5.207-1.462-6.89l-6.474-7.793
			c-1.398-1.683-0.753-3.131,1.434-3.217l10.125-0.398c2.187-0.086,4.933-1.67,6.101-3.521l5.411-8.564
			c1.169-1.851,2.745-1.685,3.502,0.369l3.506,9.504c0.758,2.053,3.113,4.174,5.233,4.715l9.819,2.5
			c2.121,0.541,2.45,2.091,0.731,3.445l-7.956,6.271c-1.719,1.355-3.009,4.25-2.867,6.434L103.877,339.566z"/>
		<g>
			<path fill="#FEB761" d="M212.011,412.507c-1.47,0-3.29-1.013-3.583-3.869l-1.033-10.078c-0.157-1.523-1.523-3.582-2.868-4.317
				l-8.887-4.861c-1.608-0.881-2.496-2.215-2.435-3.661c0.062-1.447,1.058-2.701,2.734-3.441l9.266-4.098
				c1.401-0.62,2.937-2.555,3.22-4.061l1.877-9.957c0.496-2.629,2.19-3.566,3.61-3.566c0.8,0,2.011,0.287,3.237,1.656l6.759,7.545
				c0.999,1.113,3.288,2.016,4.857,1.809l10.051-1.291c0.284-0.035,0.554-0.053,0.808-0.053c1.531,0,2.778,0.641,3.422,1.76
				c0.4,0.694,0.894,2.166-0.297,4.215l-5.088,8.761c-0.77,1.325-0.873,3.793-0.219,5.179l4.333,9.157
				c0.976,2.062,0.43,3.461,0.018,4.111c-0.829,1.311-2.501,1.877-4.435,1.459l-9.905-2.131c-0.247-0.053-0.528-0.08-0.837-0.08
				c-1.479,0-3.265,0.634-4.155,1.473l-7.37,6.951C213.872,412.266,212.743,412.507,212.011,412.507z M197.624,385.906l8.822,4.826
				c2.516,1.377,4.634,4.566,4.927,7.419l1.026,10.006l7.317-6.901c1.652-1.557,4.359-2.563,6.899-2.563
				c0.591,0,1.155,0.058,1.679,0.17l9.834,2.115l-4.302-9.092c-1.227-2.593-1.064-6.418,0.375-8.897l5.051-8.696l-9.978,1.28
				c-2.82,0.365-6.472-1.014-8.346-3.105l-6.71-7.49l-1.863,9.883c-0.531,2.818-2.911,5.818-5.534,6.979L197.624,385.906z"/>
		</g>
		<g opacity="0.33">
			<g>
				<path fill="#A75214" d="M169.894,499.771c-1.092,0-2.452-0.677-2.996-2.579l-1.767-6.168c-0.2-0.7-1.106-1.648-1.797-1.881
					l-6.082-2.04c-1.377-0.463-2.259-1.413-2.42-2.609c-0.162-1.195,0.436-2.346,1.639-3.156l5.321-3.588
					c0.604-0.406,1.226-1.563,1.232-2.29l0.062-6.416c0.023-2.326,1.556-3.386,2.971-3.386c0.765,0,1.55,0.298,2.271,0.862
					l5.057,3.953c0.346,0.271,1.115,0.545,1.914,0.545c0.249,0,0.478-0.028,0.645-0.081l6.122-1.924
					c1.546-0.487,2.996-0.073,3.759,1.018c0.35,0.499,0.849,1.577,0.261,3.188l-2.196,6.028c-0.249,0.685-0.073,1.984,0.349,2.577
					l3.721,5.229c0.827,1.162,0.99,2.434,0.447,3.487c-0.537,1.041-1.64,1.639-3.026,1.639l-0.178-0.003l-6.413-0.227
					c-0.001,0-0.001,0-0.002,0c-0.78,0-1.919,0.559-2.341,1.128l-3.823,5.154C171.629,499.571,170.486,499.771,169.894,499.771z
					 M159.976,483.798l4.631,1.554c1.933,0.649,3.811,2.615,4.37,4.572l1.345,4.695l2.91-3.924c1.18-1.591,3.498-2.746,5.514-2.746
					l0.183,0.003l4.882,0.173l-2.832-3.98c-1.181-1.657-1.545-4.352-0.848-6.266l1.672-4.59l-4.661,1.465
					c-0.561,0.176-1.18,0.265-1.843,0.265c-1.625,0-3.262-0.521-4.378-1.395l-3.849-3.009l-0.047,4.884
					c-0.021,2.037-1.309,4.431-2.997,5.567L159.976,483.798z"/>
			</g>
		</g>
		<g>
			<path fill="#FFFFFF" d="M81.703,176.379c-0.906,0-1.782-0.456-2.466-1.283l-3.387-4.103c-0.266-0.323-1.051-0.712-1.626-0.712
				l-5.366,0.467c-0.133,0.012-0.261,0.017-0.383,0.017c-1.206,0-2.19-0.532-2.699-1.46c-0.523-0.953-0.428-2.12,0.26-3.203
				l2.854-4.488c0.266-0.417,0.345-1.375,0.151-1.831l-2.079-4.896c-0.633-1.491-0.183-2.535,0.141-3.024
				c0.68-1.027,1.983-1.459,3.405-1.096l5.152,1.329c0.047,0.012,0.15,0.032,0.317,0.032c0.585,0,1.218-0.235,1.469-0.454
				l4.014-3.49c0.854-0.743,1.666-0.898,2.196-0.898c1.268,0,2.69,0.938,2.818,2.998l0.329,5.309
				c0.031,0.494,0.529,1.315,0.954,1.57l4.56,2.74c1.146,0.688,1.75,1.733,1.657,2.864s-0.861,2.062-2.105,2.553l-4.947,1.952
				c-0.46,0.182-1.087,0.91-1.199,1.392l-1.196,5.183C84.096,175.716,82.736,176.379,81.703,176.379z M74.224,166.281
				c1.721,0,3.658,0.891,4.711,2.166l2.136,2.587l0.755-3.269c0.409-1.773,1.935-3.544,3.627-4.213l3.12-1.231l-2.876-1.729
				c-1.56-0.938-2.773-2.936-2.885-4.752l-0.208-3.347l-2.532,2.201c-1.33,1.158-3.673,1.725-5.411,1.276l-3.249-0.837l1.311,3.088
				c0.711,1.675,0.519,4.005-0.458,5.541l-1.8,2.83l3.342-0.292C73.943,166.287,74.083,166.281,74.224,166.281z"/>
		</g>
		<g opacity="0.2">
			<path d="M313.127,242.59c-0.476,0.86-1.188,0.826-1.58-0.075l-1.817-4.172c-0.394-0.901-1.504-1.792-2.47-1.979l-4.467-0.868
				c-0.965-0.188-1.152-0.875-0.417-1.526l3.406-3.018c0.735-0.651,1.239-1.983,1.119-2.959l-0.556-4.517
				c-0.12-0.976,0.476-1.367,1.322-0.868l3.924,2.308c0.847,0.497,2.27,0.565,3.161,0.15l4.124-1.925
				c0.891-0.416,1.446,0.03,1.233,0.989l-0.981,4.444c-0.212,0.959,0.163,2.333,0.835,3.051l3.104,3.329
				c0.67,0.719,0.419,1.385-0.56,1.48l-4.53,0.439c-0.979,0.094-2.169,0.875-2.645,1.736L313.127,242.59z"/>
		</g>
		<g>
			<path fill="#FFFFFF" d="M450.683,142.952c-0.972-1.103-1.414-3.139,0.535-5.247l6.88-7.437c1.039-1.125,1.682-3.511,1.344-5.006
				l-2.227-9.882c-0.401-1.789,0.013-3.336,1.139-4.247s2.727-0.992,4.391-0.223l9.199,4.244c1.391,0.642,3.857,0.515,5.175-0.268
				l8.712-5.172c2.302-1.366,4.124-0.714,5.063,0.352c0.529,0.6,1.113,1.699,0.897,3.524l-1.195,10.059
				c-0.174,1.485,0.662,3.799,1.854,4.84l7.612,6.689c0.215,0.189,0.406,0.38,0.573,0.571c1.012,1.149,1.355,2.508,0.941,3.731
				c-0.257,0.759-1.034,2.102-3.359,2.563l-9.937,1.972c-1.504,0.299-3.424,1.852-4.031,3.259l-4.007,9.304
				c-0.902,2.095-2.313,2.61-3.074,2.73c-1.531,0.245-3.062-0.636-4.025-2.363l-4.948-8.841c-0.124-0.22-0.289-0.45-0.493-0.681
				c-0.978-1.109-2.634-2.031-3.853-2.145l-10.087-0.936C452.094,144.189,451.167,143.501,450.683,142.952z M461.135,114.573
				l2.21,9.81c0.629,2.797-0.364,6.496-2.312,8.601l-6.829,7.384l10.015,0.929c2.261,0.211,4.805,1.578,6.484,3.484
				c0.391,0.443,0.72,0.905,0.982,1.372l4.912,8.778l3.979-9.238c1.135-2.634,4.112-5.041,6.924-5.6l9.864-1.958l-7.556-6.641
				c-2.139-1.875-3.517-5.527-3.186-8.315l1.185-9.986l-8.647,5.135c-2.466,1.464-6.291,1.661-8.895,0.459L461.135,114.573z"/>
		</g>
		<g>
			<path fill="#FEB761" d="M222.852,154.167c-6.984,0-12.667-5.683-12.667-12.667s5.683-12.667,12.667-12.667
				s12.667,5.682,12.667,12.667S229.836,154.167,222.852,154.167z M222.852,132.833c-4.779,0-8.667,3.888-8.667,8.667
				s3.888,8.667,8.667,8.667s8.667-3.888,8.667-8.667S227.631,132.833,222.852,132.833z"/>
		</g>
		<circle opacity="0.2" fill="#A75214" cx="395.854" cy="377.618" r="6.382"/>
		<g opacity="0.56">
			<path fill="#FEB724" d="M212.184,49.382c-4.622,0-8.382-3.76-8.382-8.382c0-4.622,3.76-8.382,8.382-8.382s8.383,3.76,8.383,8.382
				C220.566,45.622,216.806,49.382,212.184,49.382z M212.184,36.618c-2.416,0-4.382,1.966-4.382,4.382
				c0,2.417,1.966,4.382,4.382,4.382c2.417,0,4.383-1.966,4.383-4.382C216.566,38.583,214.601,36.618,212.184,36.618z"/>
		</g>
		<g>
			<path fill="#FFFFFF" d="M363.799,435.841c-6.984,0-12.667-5.683-12.667-12.667s5.683-12.666,12.667-12.666
				s12.667,5.682,12.667,12.666S370.783,435.841,363.799,435.841z M363.799,414.508c-4.779,0-8.667,3.888-8.667,8.666
				c0,4.779,3.888,8.667,8.667,8.667s8.667-3.888,8.667-8.667C372.466,418.396,368.578,414.508,363.799,414.508z"/>
		</g>
	</g>
	<path fill="#FEB724" d="M38.965,239.316c0.378,1.741-0.632,2.544-2.243,1.786l-7.459-3.516c-1.611-0.76-4.189-0.646-5.728,0.251
		l-7.124,4.151c-1.54,0.898-2.614,0.186-2.39-1.583l1.037-8.179c0.226-1.768-0.679-4.185-2.007-5.37l-6.15-5.493
		c-1.329-1.187-0.984-2.43,0.765-2.762l8.101-1.541c1.75-0.333,3.77-1.938,4.488-3.57l3.322-7.546
		c0.717-1.631,2.006-1.687,2.863-0.125l3.969,7.228c0.857,1.562,3.009,2.985,4.781,3.165l8.205,0.828
		c1.772,0.179,2.224,1.387,1.004,2.685l-5.648,6.008c-1.219,1.298-1.91,3.784-1.533,5.526L38.965,239.316z"/>
</g>
</svg>
