<?xml version="1.0" encoding="utf-8"?>
<!-- Generator: Adobe Illustrator 15.1.0, SVG Export Plug-In . SVG Version: 6.00 Build 0)  -->
<!DOCTYPE svg PUBLIC "-//W3C//DTD SVG 1.1//EN" "http://www.w3.org/Graphics/SVG/1.1/DTD/svg11.dtd">
<svg version="1.1" id="Layer_2" xmlns="http://www.w3.org/2000/svg" xmlns:xlink="http://www.w3.org/1999/xlink" x="0px" y="0px"
	 width="302px" height="302px" viewBox="0 0 302 302" enable-background="new 0 0 302 302" xml:space="preserve">
<g>
	<ellipse opacity="0.2" cx="153.541" cy="262.832" rx="122.706" ry="32.667"/>
	<path fill="#F68634" d="M220.25,278c-13.5,7.25-43.538,16-69.75,16C82.293,294,27,255.889,27,208.875s55.292-85.125,123.5-85.125
		c39.278,0,74.274,12.639,96.895,32.337c0,0,4.855-5.837,8.605-8.837c3.324-2.66,8.996-1.598,11,5.75c2.25,8.25,6.705,24.502,7.5,41
		c1.428,29.618,3.244,43.592-12.75,62C248.5,271.25,232.75,274.75,220.25,278z"/>
	<path fill="#FEB761" d="M251.833,254.667c8.5-3.334,12.917-6.917,12.917-16.417s-9.333-12.333-24.583-8.333
		s-21.084,6.166-21.417,13.916c-0.334,7.779,3.75,11.167,8,13.167C234.06,260.439,243.333,258.001,251.833,254.667z"/>
	<g>
		<path fill="#A75214" d="M167.249,201.751c-0.881,0-1.688-0.587-1.93-1.479c-0.133-0.492-3.283-12.146-4.533-18.645
			c-1.321-6.868-1.819-16.429-0.144-20.621c1.857-4.641,8.895-7.27,14.49-5.404c4.651,1.551,11.057,5.103,16.317,9.048
			c3.918,2.938,8.5,7.146,10.466,8.99c3.063-1.296,11.163-4.53,17.573-5.374c7.661-1.007,15.505,0.444,18.751,1.178
			c1.762-3.18,6.125-11.039,7.532-13.452c0.558-0.953,1.778-1.276,2.735-0.72c0.954,0.557,2.217,1.273,1.66,2.228
			c-1.719,2.946-9.103,15.101-9.168,15.218c-0.446,0.808-1.385,1.206-2.279,0.961c-0.097-0.026-9.742-2.625-18.71-1.446
			c-7.324,0.964-17.589,5.546-17.691,5.592c-0.744,0.335-1.617,0.183-2.204-0.382c-0.062-0.059-6.223-5.961-11.065-9.593
			c-4.869-3.651-10.97-7.048-15.183-8.452c-3.544-1.182-8.436,0.409-9.51,3.096c-1.164,2.907-1,11.324,0.356,18.379
			c1.222,6.354,4.435,18.235,4.467,18.355c0.288,1.065-0.342,2.164-1.408,2.453C167.598,201.728,167.422,201.751,167.249,201.751z"
			/>
	</g>
	<g>
		<path fill="#A75214" d="M207.062,233.329c-7.11,0-12.617-2.138-16.096-6.296c-0.709-0.847-0.597-2.108,0.251-2.817
			c0.846-0.707,2.108-0.597,2.817,0.251c4.251,5.082,11.98,5.28,17.713,4.549c3.444-0.438,8.104-2.21,9.956-4.632
			c0.691-0.903,0.958-1.838,0.816-2.858c-0.152-1.094,0.61-2.104,1.705-2.256c1.084-0.16,2.104,0.61,2.256,1.705
			c0.289,2.073-0.265,4.093-1.601,5.84c-3.052,3.99-9.373,5.756-12.627,6.17C210.44,233.215,208.707,233.329,207.062,233.329z"/>
	</g>
	<g>
		<path fill="#A75214" d="M253.941,222.264c-7.034,0-10.247-2.993-10.603-3.348c-0.782-0.779-0.784-2.046-0.004-2.828
			c0.773-0.775,2.026-0.784,2.81-0.022c0.145,0.134,2.685,2.392,8.537,2.186c6.298-0.217,10.846-3.952,11.587-9.516
			c0.146-1.096,1.16-1.855,2.247-1.718c1.095,0.146,1.863,1.151,1.718,2.247c-0.997,7.482-7.191,12.7-15.413,12.984
			C254.52,222.259,254.227,222.264,253.941,222.264z"/>
	</g>
	<g>
		<path d="M244.075,228.412c2.291-0.444,4.4-0.935,6.927,0.693c4.657,3.001-0.238,12.779-8.418,14.366
			c-8.181,1.587-16.376-5.652-13.18-10.176c1.732-2.454,3.872-2.789,6.163-3.233L244.075,228.412z"/>
		
			<ellipse transform="matrix(-0.1902 -0.9818 0.9818 -0.1902 56.8463 514.7653)" fill="#FEB761" cx="240.733" cy="233.937" rx="1.787" ry="6.701"/>
	</g>
	<path fill="#A75214" d="M226.736,244.928c-0.867-0.683-2.124-0.531-2.808,0.337l-5.152,6.558c-2.458-1.502-5.195-2.396-7.517-3.007
		c-0.441-0.116-0.889-0.207-1.335-0.299l11.56-6.525c0.962-0.543,1.301-1.763,0.758-2.725c-0.542-0.962-1.762-1.301-2.725-0.758
		l-15.5,8.75c-0.295,0.166-0.522,0.4-0.693,0.667c-7.394,0.107-14.927,2.459-21.314,4.462c-2.623,0.822-5.268,1.713-7.824,2.574
		c-6.809,2.294-13.85,4.665-20.984,5.899c-1.561,0.271-3.08,0.488-4.581,0.684c-0.249-2.064-0.971-6.277-3.017-11.3
		c-2.777-6.817-6.098-11.569-12.688-18.159c-6.509-6.509-14.207-9.125-14.532-9.233c-1.046-0.352-2.181,0.216-2.53,1.265
		c-0.349,1.048,0.217,2.181,1.265,2.53c0.07,0.023,7.12,2.418,12.968,8.267c6.247,6.247,9.227,10.496,11.812,16.841
		c1.858,4.563,2.518,8.419,2.743,10.229c-15.583,1.427-27.996-0.989-39.433-3.682c-12.224-2.876-19.567-7.447-19.64-7.493
		c-0.933-0.591-2.167-0.312-2.758,0.62c-0.591,0.934-0.314,2.169,0.619,2.76c0.318,0.201,7.933,4.965,20.862,8.008
		c13.86,3.261,29.106,6.147,49.59,2.605c7.438-1.287,14.628-3.708,21.58-6.05c2.537-0.854,5.16-1.738,7.744-2.549
		c8.217-2.574,18.44-5.782,27.035-3.52c4.272,1.124,9.366,3.038,10.846,7.897c1.528,5.022-0.597,10.795-5.686,15.441
		c-5.349,4.884-13.438,7.548-13.519,7.574c-1.05,0.341-1.625,1.469-1.285,2.519c0.274,0.846,1.059,1.385,1.902,1.385
		c0.204,0,0.411-0.032,0.615-0.098c0.364-0.118,8.982-2.947,14.983-8.427c6.256-5.712,8.804-13.023,6.814-19.559
		c-0.632-2.077-1.696-3.749-3.004-5.111l5.163-6.571C227.755,246.867,227.605,245.609,226.736,244.928z"/>
	<g>
		<path fill="none" d="M271.504,194.145c-0.774-16.07-5.057-31.771-7.357-40.205l-0.041-0.15c-0.831-3.046-2.464-4.865-4.369-4.865
			c-0.662,0-1.323,0.238-1.862,0.668c-3.472,2.778-8.127,8.357-8.173,8.414c-0.517,0.62-1.262,1.007-2.066,1.071
			c-0.805,0.068-1.602-0.198-2.21-0.728c-15.332-13.352-35.768-22.912-58.693-27.824c-4.188,0.121-9.21,0.696-14.231,2.224
			c-6.331,1.927-12.346,5.844-17.001,10.501c-5.609,5.61-12.443,24.174-23.249,17.999c-6.212-3.55-1.65-11.925,1.698-15.992
			c4.767-5.789,11.082-10.228,17.92-13.229c3.537-1.552,7.237-2.718,11.003-3.571c1.119-0.253,2.469-0.626,3.878-0.963
			c-4.956-0.454-9.986-0.701-15.067-0.734c-0.966,0.336-2.027,0.673-3.183,0.989c-12.605,3.438-23.716,15.037-29.25,26.5
			c-3.5,7.25-7,10-11,10.25c-7.017,0.438-6.649-5.31-4.909-10.549c2.093-6.301,6.256-11.298,10.909-15.951
			c4.83-4.83,14.137-8.635,19.043-10.409c-6.159,0.603-12.17,1.522-17.994,2.737C102.062,136.899,93.866,147.377,90,159.75
			c-2.5,8-5.5,9.75-8.75,9.5c-8.517-0.655-2.939-14.325-0.353-18.541c2.557-4.167,6.555-9.771,11.087-13.604
			C55.043,151.151,30,178.056,30,208.875C30,254.159,84.056,291,150.5,291c27.04,0,56.235-9.147,68.331-15.643
			c0.21-0.113,0.433-0.201,0.664-0.261l1.724-0.446c12.294-3.17,26.229-6.763,38.267-20.618c4.035-4.645,6.874-8.936,8.844-13.3
			l-10.437-3.327c-1.053-0.335-1.634-1.46-1.298-2.513c0.335-1.054,1.461-1.634,2.513-1.298l10.687,3.407
			c0.401-1.187,0.752-2.386,1.048-3.608l-13.239-2.684c-1.082-0.22-1.782-1.274-1.563-2.357s1.279-1.783,2.357-1.563l13.215,2.679
			c1.261-8.095,0.794-17.411,0.155-30.028C271.681,197.731,271.592,195.968,271.504,194.145z"/>
		<path fill="#A75214" d="M277.444,230.747c1.458-8.948,0.961-18.892,0.316-31.61c-0.087-1.704-0.176-3.463-0.264-5.281
			c-0.806-16.727-5.2-32.839-7.561-41.495l-0.041-0.149c-1.867-6.847-6.472-9.287-10.158-9.287c-2.02,0-4.012,0.705-5.61,1.983
			c-2.433,1.946-5.226,4.922-7.057,6.975c-24.095-19.817-59.086-31.132-96.569-31.132c-69.752,0-126.5,39.532-126.5,88.125
			S80.748,297,150.5,297c25.302,0,55.76-8.198,70.847-16.185l1.37-0.354c12.491-3.221,28.036-7.229,41.298-22.493
			c4.631-5.33,7.834-10.338,10.026-15.414l1.102,0.352c0.202,0.064,0.406,0.096,0.608,0.096c0.847,0,1.634-0.543,1.904-1.394
			c0.336-1.053-0.245-2.178-1.298-2.513l-0.885-0.282c0.479-1.428,0.887-2.868,1.23-4.33c0.848-0.087,1.578-0.706,1.757-1.585
			C278.64,232.012,278.199,231.153,277.444,230.747z M271.613,229.469l-13.215-2.679c-1.078-0.221-2.138,0.479-2.357,1.563
			s0.48,2.138,1.563,2.357l13.239,2.684c-0.296,1.223-0.646,2.422-1.048,3.608l-10.687-3.407c-1.052-0.336-2.178,0.244-2.513,1.298
			c-0.336,1.053,0.245,2.178,1.298,2.513l10.437,3.327c-1.97,4.364-4.809,8.655-8.844,13.3
			c-12.038,13.855-25.973,17.448-38.267,20.618l-1.724,0.446c-0.231,0.06-0.454,0.147-0.664,0.261
			C206.736,281.853,177.54,291,150.5,291C84.056,291,30,254.159,30,208.875c0-30.819,25.043-57.724,61.984-71.769
			c-4.532,3.833-8.53,9.437-11.087,13.604c-2.586,4.215-8.165,17.885,0.353,18.541c3.25,0.25,6.25-1.5,8.75-9.5
			c3.866-12.373,12.062-22.851,25.299-29.422c5.824-1.215,11.835-2.134,17.994-2.737c-4.906,1.774-14.213,5.579-19.043,10.409
			c-4.653,4.653-8.816,9.65-10.909,15.951c-1.74,5.239-2.107,10.987,4.909,10.549c4-0.25,7.5-3,11-10.25
			c5.534-11.463,16.645-23.062,29.25-26.5c1.156-0.315,2.217-0.652,3.183-0.989c5.081,0.034,10.111,0.28,15.067,0.734
			c-1.409,0.337-2.759,0.71-3.878,0.963c-3.766,0.853-7.466,2.019-11.003,3.571c-6.839,3-13.154,7.44-17.92,13.229
			c-3.349,4.067-7.91,12.442-1.698,15.992c10.805,6.175,17.639-12.389,23.249-17.999c4.655-4.657,10.67-8.574,17.001-10.501
			c5.021-1.528,10.043-2.103,14.231-2.224c22.926,4.912,43.361,14.472,58.693,27.824c0.608,0.529,1.405,0.796,2.21,0.728
			c0.805-0.064,1.1,0.627,1.616,0.007c2.083-3.167,5.151-6.714,8.623-9.492c0.539-0.431,1.2-0.668,1.862-0.668
			c1.905,0,3.538,1.819,4.369,4.865l0.041,0.15c2.301,8.435,6.583,24.135,7.357,40.205c0.088,1.823,0.177,3.587,0.264,5.296
			C272.406,212.058,272.873,221.374,271.613,229.469z"/>
	</g>
	<g>
		<path fill="#A75214" d="M243.749,204.001c-0.86,0-1.654-0.56-1.915-1.427l-3-10c-0.317-1.058,0.283-2.173,1.342-2.49
			c1.057-0.31,2.172,0.283,2.49,1.342l3,10c0.317,1.058-0.283,2.173-1.342,2.49C244.133,203.973,243.94,204.001,243.749,204.001z"/>
	</g>
	<g>
		<path fill="#A75214" d="M248.5,203c-1.104,0-2-0.896-2-2v-8.25c0-1.104,0.896-2,2-2s2,0.896,2,2V201
			C250.5,202.104,249.605,203,248.5,203z"/>
	</g>
	<g>
		<path fill="#A75214" d="M219.747,209.5c-0.979,0-1.834-0.72-1.977-1.717l-1.75-12.25c-0.156-1.094,0.604-2.106,1.696-2.263
			c1.096-0.155,2.106,0.603,2.263,1.696l1.75,12.25c0.156,1.094-0.604,2.106-1.696,2.263
			C219.937,209.493,219.842,209.5,219.747,209.5z"/>
	</g>
	<g>
		<path fill="#A75214" d="M214.252,209.75c-0.734,0-1.44-0.404-1.791-1.105l-4-8c-0.494-0.988-0.094-2.189,0.895-2.684
			c0.99-0.495,2.19-0.094,2.684,0.895l4,8c0.494,0.988,0.094,2.189-0.895,2.684C214.858,209.683,214.552,209.75,214.252,209.75z"/>
	</g>
	<path fill="#FEB761" d="M181.889,170.078c5.065,3.368,12.051,10.003,12.427,14.236c0.376,4.232-4.569,6.799-6.169,7.855
		s-6.02,4.677-9.766,2.67c-3.746-2.006-7.107-11.034-8.219-17.015c-1.484-8.003,0.294-9.15,1.745-10.108
		C173.358,166.758,175.111,165.573,181.889,170.078z"/>
	<path fill="#FEB761" d="M253.125,166.375c1.625-3.5,3.75-6.875,5.5-7.25s3.5,0.75,4.75,6.75s1.25,11.375,1,13.5
		s-0.75,3.75-3.5,3.875s-5.875-0.75-8.125-2.5s-3.875-3.5-3-5.625S251.5,169.875,253.125,166.375z"/>
</g>
<g opacity="0.2">
	<path d="M225.443,114.823c-0.476,0-0.953-0.169-1.335-0.512c-0.814-0.731-0.89-1.981-0.17-2.805
		c0.096-0.109,0.191-0.213,0.289-0.312c2.434-2.588,4.891-4.442,7.27-6.237c0.501-0.378,0.992-0.749,1.477-1.122
		c-1.535-0.107-3.409,0.089-4.75,0.229c-1.242,0.13-2.318,0.243-3.15,0.182c-1.103-0.08-1.931-1.037-1.852-2.139
		c0.08-1.101,1.029-1.933,2.139-1.851c0.488,0.035,1.481-0.07,2.448-0.171c3.403-0.356,8.066-0.843,10.528,1.813
		c0.368,0.398,0.56,0.929,0.529,1.471c-0.03,0.542-0.279,1.048-0.69,1.402c-1.432,1.235-2.874,2.324-4.27,3.377
		c-0.597,0.451-1.187,0.896-1.769,1.346c0.176,0.029,0.348,0.058,0.517,0.086c2.029,0.342,3.315,0.504,4.067-0.12
		c0.849-0.707,2.109-0.592,2.816,0.258c0.707,0.849,0.591,2.11-0.258,2.816c-2.213,1.844-4.91,1.39-7.29,0.99
		c-2.543-0.429-3.905-0.528-4.897,0.46c-0.059,0.063-0.118,0.127-0.178,0.191C226.521,114.606,225.983,114.823,225.443,114.823z"/>
</g>
<g opacity="0.2">
	<path d="M215.875,98.826c-1.43,0-2.819-0.585-4.096-1.123c-1.984-0.836-3.294-1.322-4.505-0.574
		c-0.064,0.043-0.13,0.087-0.195,0.131c-0.679,0.459-1.603,0.287-2.071-0.387s-0.309-1.599,0.359-2.077
		c0.103-0.073,0.206-0.142,0.309-0.207c2.577-1.703,5.034-2.784,7.413-3.831c0.698-0.308,1.378-0.606,2.052-0.916
		c-1.387-0.556-3.37-0.811-4.735-0.986c-1.074-0.138-2.002-0.257-2.68-0.47c-0.791-0.248-1.23-1.089-0.983-1.88
		c0.248-0.791,1.087-1.232,1.88-0.982c0.426,0.133,1.271,0.242,2.165,0.356c2.924,0.375,6.929,0.89,8.43,3.542
		c0.2,0.354,0.248,0.774,0.133,1.165c-0.116,0.39-0.385,0.717-0.746,0.905c-1.463,0.761-2.908,1.397-4.307,2.012
		c-0.782,0.345-1.551,0.683-2.314,1.038c0.33,0.13,0.651,0.266,0.962,0.396c1.73,0.729,2.843,1.137,3.704,0.71
		c0.741-0.369,1.642-0.067,2.012,0.674c0.369,0.741,0.067,1.642-0.674,2.011C217.28,98.687,216.573,98.826,215.875,98.826z"/>
</g>
<g opacity="0.2">
	<path d="M199.131,82.307c-1.089,0-2.157-0.45-3.138-0.864c-1.604-0.676-2.663-1.068-3.679-0.439
		c-0.054,0.036-0.106,0.071-0.16,0.108c-0.455,0.306-1.069,0.191-1.382-0.258c-0.313-0.449-0.205-1.066,0.24-1.384
		c0.076-0.055,0.152-0.106,0.229-0.154c2.006-1.326,3.922-2.169,5.778-2.986c0.643-0.283,1.299-0.571,1.956-0.88
		c-1.091-0.553-2.833-0.777-4.101-0.94c-0.832-0.107-1.55-0.2-2.066-0.361c-0.526-0.166-0.819-0.727-0.654-1.253
		c0.165-0.526,0.725-0.821,1.254-0.655c0.347,0.109,1.015,0.195,1.722,0.286c2.251,0.29,5.333,0.686,6.463,2.685
		c0.134,0.236,0.166,0.516,0.089,0.776c-0.077,0.26-0.257,0.478-0.497,0.603c-1.14,0.593-2.269,1.089-3.36,1.57
		c-0.739,0.325-1.463,0.644-2.184,0.986c0.393,0.143,0.771,0.302,1.13,0.453c1.206,0.508,2.248,0.945,3.041,0.552
		c0.495-0.248,1.096-0.044,1.341,0.449c0.246,0.495,0.045,1.095-0.45,1.341C200.179,82.204,199.653,82.307,199.131,82.307z"/>
</g>
</svg>
