<?xml version="1.0" encoding="utf-8"?>
<!-- Generator: Adobe Illustrator 15.1.0, SVG Export Plug-In . SVG Version: 6.00 Build 0)  -->
<!DOCTYPE svg PUBLIC "-//W3C//DTD SVG 1.1//EN" "http://www.w3.org/Graphics/SVG/1.1/DTD/svg11.dtd">
<svg version="1.1" id="Layer_2" xmlns="http://www.w3.org/2000/svg" xmlns:xlink="http://www.w3.org/1999/xlink" x="0px" y="0px"
	 width="302px" height="302px" viewBox="0 0 302 302" enable-background="new 0 0 302 302" xml:space="preserve">
<ellipse opacity="0.2" enable-background="new    " cx="156.167" cy="284.834" rx="110.167" ry="14.5"/>
<g>
	<path fill="#F68634" d="M68.272,82.098c0,0-1.353,9.473,1.375,20.687c2.728,11.213,11.517,36.666,19.092,52.424
		c8.709,18.117,19.492,37.941,35.08,51.08c16.996,14.326,42.57,25.219,64.617,27.707c18.787,2.121,44.546-1.211,60.605-12.424
		c21.313-14.879,36.651-35.672,35.918-62.484c-0.162-5.939-0.537-13.474-2.89-19.029c-3.332-7.879-3.332-7.879-3.332-7.879
		l-0.304-11.818c0,0,6.97-7.271,7.88-16.363c0.907-9.092-1.214-25.758-3.03-35.455c-1.818-9.696-2.12-13.94-1.213-18.183
		c0.91-4.242,7.272-5.455,12.427-8.182c5.148-2.729,5.758-8.182,2.121-11.516c-3.638-3.334-15.759-6.667-22.425-2.728
		c-6.668,3.939-11.517,10.001-11.817,18.183c-0.306,8.182,2.121,23.939,1.817,32.423c-0.306,8.484-1.517,13.334-6.972,16.971
		c-5.455,3.636-12.727,3.636-18.483,2.728c-5.758-0.909-17.271-4.85-25.454-7.272c-8.184-2.424-17.576-2.728-22.425-6.363
		c-4.851-3.637-16.364-19.091-18.789-23.939c-2.424-4.848-2.12-6.97-2.12-6.97s6.971-20.606,10-29.395
		c3.03-8.788,4.547-9.396,1.816-11.818c-2.727-2.424-19.092,2.727-26.666,8.182c-7.576,5.455-10.787,7.727-10.787,7.727
		l-2.244-1.363c0,0-8.183-3.939-18.483-3.637c-10.303,0.302-28.485,6.969-35.758,13.332c-7.271,6.363-13.408,17.254-14.849,23.03
		C71.896,64.1,71.521,65.6,71.521,65.6L68.272,82.098z"/>
	<path fill="#F68634" d="M66.92,93.692c0,0-16.711-1.777-26.667,0c-7.226,1.29-15.231,3.469-21.112,8.069
		c-4.049,3.17-8.095,9.024-7.285,14.36c0.974,6.403,6.058,8.443,11.731,6.056c5.758-2.425,10.908-5.455,13.637-6.972
		c2.729-1.515,5.455-1.211,13.939,5.455c8.483,6.666,33.334,26.062,33.334,26.062s-6.851-14-11.183-28.334
		C68.981,104.057,66.92,93.692,66.92,93.692z"/>
	<path fill="#F68634" d="M76.981,50.223c2.424-10,9.028-27.742,13.575-34.105c4.759-6.663,8.787-10.607,11.515-8.789
		c2.729,1.818,9.576,18.061,9.576,18.061s-10.332,2-21.332,8.668C78.961,40.937,76.981,50.223,76.981,50.223z"/>
	<path fill="#F68634" d="M148.131,222.784c0,3.637-1.211,12.422-5.453,16.36c-4.754,4.418-10.944,8.39-14.688,13.738
		c-2.536,3.625-5.327,10.244-2.192,14.24c4.756,6.059,15.842,3.143,21.649,0.727c9.346-3.887,17.036-10.746,24.932-16.885
		c8.182-6.363,20.604-15.455,20.604-15.455c-9.778-2.178-19.481-3.877-28.966-7.195
		C162.587,227.814,148.131,223.712,148.131,222.784z"/>
	<path fill="#FEB761" d="M107.522,88.598c0,0-13.875,0-16,2.625s-4.625,9.375-2.625,21.5s6.625,32.875,19.5,52.126
		c12.875,19.25,23.625,32.875,38.25,41.875c23.951,14.737,56.578,20.735,83.471,10.371c4.957-1.91,10.805-5.222,14.03-9.621
		c5.5-7.5,6.375-10.125,6.625-14s0-2.875,0-2.875s-14.875,3.375-25.875,4.5s-18.75,3.625-25.75,7.25s-12,9.5-17.875,8.875
		s-6.875-2.625-6.125-7.875s0.125-9.5,5.875-14.625s14.375-11.75,20.75-14.375s11-4.875,11-4.875s-5.125-2-17.375-9.25
		s-19-13.376-21-14.751s-3.25-1.5-3.25-1.5s-14.125,4.5-20.5,10.376c-6.375,5.875-9.25,10.875-13.375,14.5s-8,6.25-11.875-0.125
		s-3.25-10.5-1.75-17.5c1.5-7,8.25-15.25,11.5-18.75s8.625-9.5,9.625-11.5s2.875-6.5,3-9.5s-0.875-8.375-4.125-11.5
		s-10.625-8.5-18.25-10.25S107.522,88.598,107.522,88.598z"/>
	<g>
		<path fill="#A75214" d="M130.198,175.643c-0.185,0-0.366-0.009-0.553-0.021c-2.88-0.225-5.347-2.176-7.332-5.803
			c-8.108-14.797,2.679-30.189,11.495-40.479c3.686-4.297,8.475-8.795,8.675-8.984c1.006-0.945,2.588-0.895,3.532,0.113
			c0.945,1.008,0.895,2.59-0.112,3.533c-0.049,0.045-4.795,4.506-8.297,8.592c-7.854,9.162-17.528,22.742-10.907,34.822
			c0.771,1.41,1.979,3.115,3.334,3.22c2.938,0.271,7.484-5.675,10.493-9.58c1.886-2.449,3.513-4.563,5.052-5.91
			c5.348-4.678,14.681-10.468,21.042-12.058c6.176-1.545,9.629-1.87,9.771-1.883c1.38-0.119,2.593,0.888,2.716,2.263
			c0.127,1.375-0.888,2.591-2.263,2.716c-0.028,0.003-3.26,0.316-9.014,1.755c-5.379,1.343-14.146,6.758-18.961,10.972
			c-1.17,1.021-2.731,3.051-4.384,5.193C140.315,169.521,135.604,175.641,130.198,175.643z"/>
	</g>
	<g>
		<path fill="#A75214" d="M179.073,214.105c-1.284,0-2.481-0.248-3.547-0.819c-1.567-0.843-3.468-2.733-3.603-6.976
			c-0.192-6.141,3.875-14.588,7.799-19.42c6.711-8.258,16.099-12.791,23.527-15.815c7.785-3.173,19.627-12.021,19.746-12.108
			c1.104-0.828,2.672-0.605,3.5,0.5c0.827,1.104,0.604,2.67-0.5,3.5c-0.507,0.379-12.476,9.323-20.859,12.739
			c-10.215,4.16-16.854,8.582-21.532,14.338c-3.328,4.099-6.828,11.423-6.683,16.108c0.033,1.025,0.228,2.33,0.967,2.729
			c1.058,0.563,4.164,0.687,13.138-4.87c6.2-3.839,18.453-10.343,31.222-10.996c14.149-0.728,24.692-2.968,31.338-6.658
			c7.705-4.279,12.381-9.18,12.426-9.229c0.947-1,2.527-1.047,3.533-0.102c1.004,0.947,1.051,2.526,0.104,3.531
			c-0.209,0.223-5.211,5.487-13.638,10.17c-7.315,4.063-18.592,6.516-33.51,7.28c-12.086,0.619-24.174,7.363-28.812,10.234
			C189.051,211.114,183.534,214.104,179.073,214.105z"/>
	</g>
	<g>
		<path d="M140.022,104.723c-1.989-3.076-7.201-3.578-10.478-3.914c-5.621-0.575-11.269,0.039-16.897,0.039
			c-3.875,0-7.75,0.5-7.75,0.5s-0.097-1.973-0.169-3.47c-0.594,0.089-1.197,0.141-1.813,0.141c-0.2,0-0.399-0.009-0.599-0.019
			c0.229,0.493,0.468,1.104,0.579,1.722c0.25,1.375,0.25,1.375,0.25,1.375v0.625c0,0-4.5,0.75-6.5,1.5s-4.375,1-4.125,2.125
			c0,0.001-0.209,0.876,0.5,0.876s3.703-1.191,7.55-1.704c5-0.667,6.95-1.046,8.325-0.796s4,3.75,7.125,6.375
			c5.222,4.385,13.073,8.896,20.125,6.25c2-0.75,3.125-3.5,3.875-5.625S141.397,106.848,140.022,104.723z"/>
		<path d="M104.728,97.877c7.445-1.117,12.895-8.809,9.188-12.359c-2.17-2.079-4.334-2-6.667-2h-8.667c-2.333,0-4.497-0.079-6.667,2
			C88.012,89.259,94.269,97.6,102.318,98c0.198,0.01,0.397,0.019,0.599,0.019C103.531,98.019,104.134,97.966,104.728,97.877z"/>
	</g>
	<ellipse cx="77.358" cy="76.332" rx="4.47" ry="5.671"/>
	<ellipse cx="129.493" cy="71.116" rx="4.935" ry="6.264"/>
	<g>
		<path d="M116.617,176.604c-0.195,0-0.395-0.029-0.589-0.09c-1.058-0.324-1.647-1.443-1.323-2.498
			c0.137-0.443,1.379-4.384,3.102-6.451c1.613-1.937,3.511-3.521,3.591-3.59c0.851-0.705,2.106-0.593,2.815,0.258
			c0.707,0.848,0.592,2.106-0.256,2.815c-0.017,0.015-1.703,1.429-3.076,3.076c-1.026,1.231-2.067,4.146-2.354,5.065
			C118.263,176.05,117.472,176.604,116.617,176.604z"/>
	</g>
	<g>
		<path d="M122.983,183.57c-0.062,0-0.123-0.002-0.185-0.008c-1.1-0.102-1.91-1.071-1.812-2.172c0.015-0.145,0.332-3.572,1.289-6.76
			c0.981-3.275,2.019-4.713,2.134-4.867c0.664-0.883,1.918-1.063,2.801-0.397c0.883,0.661,1.063,1.916,0.397,2.799
			c0.002,0,0.002,0,0.002,0s-0.739,1.074-1.504,3.617c-0.839,2.791-1.134,5.938-1.136,5.971
			C124.877,182.792,124.004,183.57,122.983,183.57z"/>
	</g>
	<g>
		<path d="M132.981,185.393c-0.854,0-1.646-0.554-1.912-1.414c-0.056-0.177-1.323-4.359-0.987-8.041
			c0.377-4.166,2.733-5.853,3.002-6.029c0.92-0.615,2.162-0.363,2.772,0.555c0.612,0.92,0.364,2.162-0.556,2.773l0,0
			c0.006,0-1.035,0.826-1.237,3.063c-0.22,2.412,0.524,5.516,0.829,6.506c0.324,1.057-0.27,2.176-1.323,2.5
			C133.373,185.361,133.174,185.393,132.981,185.393z"/>
	</g>
	<g>
		<path d="M164.798,211.79c-1.104,0-1.998-0.933-1.998-2.035c0-0.354,0.115-3.528,4.156-6.469c3.543-2.574,6.481-3.569,6.604-3.61
			c1.051-0.354,2.181,0.217,2.528,1.264c0.351,1.05-0.217,2.184-1.264,2.531c-0.021,0.006-2.511,0.864-5.521,3.053
			c-2.356,1.713-2.506,3.24-2.51,3.307c0,1.104-0.896,1.963-1.998,1.963l0,0v-0.003H164.798z"/>
	</g>
	<g>
		<path d="M170.253,219.329c-0.238,0-0.479-0.043-0.717-0.134c-1.031-0.397-1.545-1.555-1.148-2.584
			c0.17-0.444,1.72-4.389,3.482-6.151c1.694-1.694,3.092-2.418,3.246-2.493c0.984-0.498,2.188-0.097,2.684,0.893
			c0.496,0.99,0.095,2.188-0.896,2.686l0,0c0.003,0-0.979,0.518-2.206,1.746c-0.882,0.881-2.05,3.387-2.578,4.76
			C171.816,218.843,171.057,219.329,170.253,219.329z"/>
	</g>
	<g>
		<path d="M179.95,222.355c-0.003,0-0.003,0-0.005,0c-1.104-0.002-1.995-0.895-1.995-1.996c0-0.2,0.025-4.967,2.543-8.198
			c2.313-2.974,4.952-4.642,5.063-4.709c0.939-0.588,2.173-0.302,2.757,0.635c0.586,0.937,0.301,2.17-0.636,2.757
			c-0.018,0.012-2.17,1.387-4.028,3.774c-1.379,1.772-1.692,4.75-1.698,5.746C181.945,221.466,181.051,222.355,179.95,222.355z"/>
	</g>
	<g>
		<path fill="#A75214" d="M113.28,57.812c-1.015,0-1.883-0.769-1.985-1.799c-0.015-0.142-0.334-3.491,0.699-6.589l0.907-2.728
			c0.351-1.049,1.485-1.614,2.528-1.265c1.05,0.35,1.615,1.481,1.267,2.529l-0.907,2.728c-0.759,2.269-0.517,4.903-0.515,4.931
			c0.104,1.098-0.696,2.075-1.795,2.183C113.412,57.809,113.345,57.812,113.28,57.812z"/>
	</g>
	<g>
		<path fill="#A75214" d="M119.649,57.512c-0.16,0-0.323-0.02-0.485-0.061c-1.072-0.268-1.724-1.354-1.455-2.426
			c0.102-0.406,1.03-4.031,2.396-6.078l1.213-1.818c0.61-0.92,1.854-1.168,2.772-0.555c0.918,0.612,1.168,1.854,0.555,2.773
			l-1.213,1.818c-0.832,1.248-1.631,3.974-1.844,4.83C121.36,56.904,120.545,57.512,119.649,57.512z"/>
	</g>
	<g>
		<path fill="#A75214" d="M89.039,60.844c-1.023,0-1.896-0.781-1.99-1.819c-0.076-0.813-0.449-3.226-1.26-4.643
			c-0.549-0.959-0.215-2.181,0.744-2.729c0.959-0.547,2.182-0.215,2.729,0.744c1.39,2.43,1.736,5.881,1.771,6.267
			c0.1,1.1-0.712,2.073-1.813,2.173C89.16,60.842,89.099,60.844,89.039,60.844z"/>
	</g>
	<g>
		<path fill="#A75214" d="M82.071,60.844c-0.838,0-1.616-0.529-1.896-1.367l-1.516-4.546c-0.352-1.048,0.217-2.181,1.266-2.53
			c1.045-0.348,2.183,0.217,2.529,1.266l1.516,4.545c0.351,1.049-0.217,2.181-1.266,2.53C82.494,60.811,82.281,60.844,82.071,60.844
			z"/>
	</g>
	<g>
		<path fill="#A75214" d="M131.162,95.48c-0.578,0-1.152-0.25-1.547-0.731c-0.701-0.855-0.574-2.115,0.278-2.814
			c4.713-3.857,9.961-6.586,17.021-8.843c1.053-0.339,2.178,0.243,2.514,1.296c0.338,1.052-0.241,2.178-1.295,2.514
			c-6.646,2.125-11.344,4.557-15.705,8.127C132.056,95.331,131.61,95.48,131.162,95.48z"/>
	</g>
	<g>
		<path fill="#A75214" d="M156.618,99.025c-0.02,0-0.035,0-0.056,0l-22.729-0.606c-1.104-0.029-1.976-0.947-1.945-2.053
			c0.03-1.104,0.955-1.996,2.054-1.945l22.729,0.605c1.104,0.03,1.976,0.948,1.945,2.053
			C158.589,98.165,157.698,99.025,156.618,99.025z"/>
	</g>
	<g>
		<path fill="#A75214" d="M89.983,100.904c-0.075,0-0.153-0.004-0.231-0.013l-15.758-1.818c-1.097-0.126-1.884-1.117-1.757-2.216
			c0.125-1.098,1.114-1.885,2.216-1.758l15.758,1.817c1.098,0.127,1.885,1.119,1.758,2.218
			C91.849,100.153,90.985,100.904,89.983,100.904z"/>
	</g>
	<g>
		<path fill="#A75214" d="M76.922,110.238c-0.627,0-1.242-0.293-1.633-0.842c-0.64-0.899-0.429-2.149,0.473-2.789
			c4.662-3.313,10.101-4.266,15.357-5.188c1.09-0.193,2.125,0.535,2.314,1.625c0.189,1.088-0.536,2.123-1.625,2.314
			c-4.818,0.846-9.807,1.719-13.73,4.51C77.726,110.118,77.323,110.238,76.922,110.238z"/>
	</g>
	<path fill="#FFFFFF" d="M112.647,102.973c-1.614,1.132,2.599,4.714,3.625,5.125c0.625,0.25,1.375,0.75,1.375-0.875
		s-0.75-2.25,0-2.875s4.75-0.5,6-0.375s2.75,1.874,3.625,2.75c2.187,2.187,3.407,0.973,3.625-1.625c0.295-3.539-6.966-3.25-9-3.25
		C117.899,101.848,113.899,102.098,112.647,102.973z"/>
	<path fill="#FFFFFF" d="M124.772,112.848c2.106,1.655,5.233,2.31,7.847,2.012c2.174-0.247,6.336-2.897,4.903-5.762
		c-0.25-0.5-1.75-0.625-3.875,0.5s-4.875,1.625-6.5,1.75S123.022,111.473,124.772,112.848z"/>
	<g>
		<path fill="none" d="M100.483,9.914c-0.562,0.157-2.662,1.193-7.483,7.947c-2.358,3.301-5.485,10.3-8.191,17.568
			c0.348-0.327,0.694-0.655,1.048-0.963c5.957-5.212,13.368-9.049,21.232-11.345C104.743,17.427,101.792,11.3,100.483,9.914z"/>
		<path fill="none" d="M65.468,96.566c-3.864-0.35-16.721-1.343-24.688,0.079c-9.047,1.615-15.335,3.991-19.791,7.479
			c-3.519,2.754-6.768,7.604-6.168,11.547c0.205,1.354,0.763,3.142,2.244,3.973c1.329,0.745,3.23,0.663,5.356-0.23
			c4.812-2.025,9.183-4.486,12.075-6.115l1.269-0.713c4.941-2.742,9.685-0.226,17.25,5.719c5.298,4.163,17.103,13.386,25.141,19.665
			c-4.96-12.831-9.507-26.595-11.423-34.476C66.146,101.079,65.745,98.753,65.468,96.566z"/>
		<path fill="none" d="M150.898,226.389c-0.561,4.778-2.243,11.301-6.177,14.954c-1.61,1.498-3.381,2.945-5.09,4.345
			c-3.389,2.772-6.894,5.643-9.187,8.918c-2.437,3.481-4.065,8.403-2.291,10.666c3.438,4.377,13.021,1.938,18.14-0.189
			c7.364-3.063,13.882-8.258,20.188-13.277c1.353-1.076,2.698-2.15,4.056-3.205c4.893-3.807,11.347-8.619,15.732-11.867
			C174.699,235.206,162.419,231.548,150.898,226.389z"/>
		<path fill="#A75214" d="M298.645,28.452c-4.301-3.941-17.905-7.867-25.979-3.1c-8.256,4.879-12.978,12.215-13.289,20.654
			c-0.158,4.252,0.358,10.131,0.908,16.356c0.52,5.894,1.057,11.987,0.909,16.071c-0.31,8.602-1.571,11.872-5.638,14.581
			c-4.854,3.235-11.571,3.015-16.354,2.26c-3.938-0.622-11.203-2.892-17.615-4.896c-2.613-0.815-5.164-1.611-7.453-2.291
			c-3.076-0.91-6.233-1.521-9.289-2.109c-4.953-0.956-9.633-1.859-12.188-3.777c-4.331-3.25-15.594-18.258-17.903-22.881
			c-1.449-2.9-1.742-4.561-1.801-5.142c1.061-3.14,7.096-20.964,9.832-28.902c0.758-2.198,1.416-3.864,1.944-5.202
			c1.579-4,2.625-6.642-0.97-9.836c-4.994-4.44-23.92,3.314-30.414,7.989c-3.033,2.185-6.174,4.719-8.888,7.005
			c-0.306-0.408-0.708-0.75-1.21-0.965c-8.956-3.831-19.783-4.549-30.26-2.566c-2.348-5.84-6.354-14.935-9.255-16.87
			c-5.968-3.977-12.485,5.153-15.621,9.541c-5.11,7.154-11.733,25.593-14.051,35.143c-0.01,0.036-0.008,0.071-0.016,0.107
			c-1.924,3.479-3.331,6.804-3.979,9.405l-1.459,5.844c-0.401,1.606,0.575,3.235,2.185,3.638c0.244,0.062,0.487,0.09,0.729,0.09
			c1.347,0,2.567-0.909,2.907-2.272l1.459-5.847c1.218-4.874,6.869-15.334,13.914-21.498c13.252-11.598,34.479-15.638,49.934-9.659
			c-1.588,1.412-2.62,2.366-2.736,2.476c-1.216,1.128-1.285,3.025-0.158,4.24c1.129,1.215,3.026,1.285,4.24,0.156
			c0.084-0.076,8.441-7.818,15.771-13.097c7.096-5.109,20.342-8.839,23.122-8.19c0.076,0.074,0.138,0.135,0.183,0.183
			c-0.122,0.544-0.571,1.679-1.008,2.78c-0.552,1.394-1.235,3.129-2.037,5.451c-2.998,8.695-9.937,29.205-10.006,29.41
			c-0.06,0.176-0.103,0.355-0.127,0.538c-0.104,0.716-0.229,3.458,2.405,8.734c2.26,4.517,12.471,18.527,18.326,23.865
			c-0.578,6.021-4.803,9.401-7.69,14.354c-0.875,1.5-1.5,3-0.5,4s3.125,1.5,5.875,0.25s5.75-4.5,7.5-7.375s2.75-4.5,3.25-6.25
			c0.06-0.206,0.11-0.41,0.159-0.61c2.319,0.643,4.823,1.135,7.402,1.633c1.005,0.193,2.021,0.395,3.037,0.603
			c0.088,0.956,0.013,2.048,0.01,2.437c-0.047,7.104-5.474,11.023-8.401,16.932c-0.748,1.51-1.367,3.271-0.867,4.967
			c1.828,6.178,8.901,0.083,11.271-2.23c4.648-4.543,9.749-11.929,9.204-19.043c0.607,0.189,1.223,0.381,1.841,0.574
			c3.197,0.998,6.439,2.01,9.438,2.881c1.696,8.756-3.125,15.117-6.344,22.984c-1.123,2.748-0.875,4.248,0.623,4.998
			c8.812,4.417,16.945-19.587,16.506-25.53c5.671,0.675,13.02,0.461,18.86-3.435c6.556-4.367,7.976-10.174,8.306-19.357
			c0.157-4.455-0.396-10.736-0.931-16.813c-0.508-5.769-1.032-11.73-0.889-15.607c0.301-8.11,5.793-13.021,10.346-15.711
			c5.224-3.086,15.996-0.278,18.871,2.355c0.994,0.912,1.461,2.047,1.313,3.193c-0.174,1.363-1.174,2.592-2.813,3.459
			c-1.303,0.689-2.752,1.301-4.156,1.892c-4.331,1.824-8.813,3.711-9.799,8.313c-0.994,4.641-0.715,9.164,1.199,19.363
			c1.69,9.022,3.885,25.686,2.991,34.604c-0.791,7.91-7,14.524-7.06,14.587c-0.555,0.577-0.854,1.353-0.834,2.151l0.304,11.817
			c0.011,0.375,0.09,0.746,0.235,1.093l3.334,7.879c2.029,4.799,2.476,11.46,2.652,17.944c0.793,29.004-18.397,48.604-34.638,59.942
			c-15.771,11.009-40.771,13.912-58.553,11.902c-21.718-2.453-46.456-13.061-63.021-27.021
			c-15.158-12.775-25.851-32.488-34.312-50.087c-7.75-16.12-16.357-41.466-18.88-51.833c-2.524-10.382-1.353-19.32-1.319-19.553
			c0.233-1.641-0.905-3.16-2.547-3.395c-1.642-0.234-3.096-0.499-3.329,1.143c-0.034,0.24-0.565,5.092-0.389,10.229
			c-4.99-0.424-17.104-1.213-25.253,0.241c-6.321,1.13-15.526,3.255-22.435,8.661c-4.897,3.833-9.396,10.629-8.401,17.172
			c0.574,3.783,2.437,6.732,5.242,8.307c2.979,1.67,6.752,1.692,10.618,0.063c5.128-2.158,9.68-4.721,12.691-6.417l1.237-0.694
			c0.992-0.553,2.354-1.31,10.628,5.191c8.392,6.593,33.093,25.872,33.343,26.066c0.012,0.01,0.024,0.016,0.037,0.024
			c1.138,2.644,2.262,5.138,3.346,7.394c8.735,18.174,19.828,38.568,35.853,52.074c6.692,5.645,14.662,10.754,23.226,15.066
			c-0.182,4.133-1.615,10.645-4.474,13.301c-1.476,1.369-3.092,2.693-4.808,4.096c-3.703,3.031-7.532,6.166-10.301,10.121
			c-3.494,4.994-6.142,12.656-2.095,17.813c2.828,3.604,7.041,4.758,11.271,4.758c5.715,0,11.465-2.104,13.892-3.112
			c8.141-3.388,14.993-8.847,21.62-14.125c1.334-1.063,2.664-2.123,4-3.162c8.053-6.263,20.409-15.312,20.534-15.399
			c0.177-0.129,0.331-0.275,0.472-0.433c1.424,0.056,2.865,0.095,4.338,0.095c17.211,0,37.377-3.914,51.197-13.563
			c25.022-17.472,37.887-39.954,37.2-65.026c-0.194-7.072-0.707-14.403-3.125-20.118l-3.11-7.354l-0.258-10.07
			c2.043-2.424,7.024-9.076,7.834-17.168c1.028-10.291-1.558-28.248-3.065-36.306c-1.742-9.291-2.029-13.264-1.229-17
			c0.331-1.545,3.346-2.814,6.26-4.041c1.522-0.643,3.101-1.305,4.636-2.119c3.361-1.779,5.534-4.695,5.956-7.998
			C302.253,33.738,301.082,30.686,298.645,28.452z M85.854,34.464c-0.354,0.309-0.7,0.636-1.048,0.963
			c2.706-7.268,5.833-14.267,8.191-17.568c4.821-6.754,6.924-7.79,7.483-7.947c1.311,1.387,4.262,7.513,6.604,13.207
			C99.222,25.416,91.81,29.252,85.854,34.464z M53.015,118.303c-7.564-5.943-12.308-8.461-17.25-5.718l-1.269,0.711
			c-2.896,1.63-7.266,4.091-12.075,6.115c-2.126,0.896-4.028,0.978-5.356,0.231c-1.481-0.831-2.039-2.618-2.244-3.972
			c-0.6-3.943,2.649-8.793,6.168-11.547c4.456-3.488,10.744-5.864,19.791-7.479c7.969-1.421,20.824-0.428,24.688-0.079
			c0.277,2.188,0.677,4.512,1.265,6.926c1.916,7.879,6.463,21.645,11.423,34.475C70.116,131.688,58.313,122.466,53.015,118.303z
			 M170.534,248.598c-1.355,1.055-2.703,2.129-4.056,3.204c-6.306,5.021-12.821,10.216-20.188,13.279
			c-5.119,2.127-14.701,4.565-18.14,0.188c-1.774-2.264-0.146-7.186,2.291-10.666c2.293-3.274,5.798-6.146,9.187-8.918
			c1.709-1.397,3.479-2.848,5.09-4.345c3.935-3.653,5.617-10.175,6.177-14.954c11.521,5.158,23.803,8.816,35.371,10.342
			C181.881,239.979,175.426,244.79,170.534,248.598z"/>
	</g>
	<g>
		<path d="M13.586,136.601c-0.009,0-0.019,0-0.027,0c-1.104-0.016-1.984-0.92-1.973-2.023c0.002-0.168,0.065-4.17,1.334-7.633
			c1.088-2.97,2.889-5.068,2.965-5.156c0.725-0.834,1.987-0.925,2.822-0.201c0.834,0.724,0.924,1.985,0.201,2.822
			c-0.012,0.012-1.406,1.655-2.232,3.91c-1.027,2.809-1.09,6.274-1.09,6.311C15.572,135.723,14.678,136.601,13.586,136.601z"/>
	</g>
	<g>
		<path d="M5.025,131.098c-0.151,0-0.308-0.019-0.461-0.054c-1.076-0.254-1.741-1.332-1.486-2.405
			c0.029-0.129,0.766-3.179,2.813-6.097c2.341-3.334,5.979-4.625,6.134-4.68c1.046-0.361,2.184,0.191,2.545,1.234
			c0.36,1.043-0.189,2.183-1.233,2.545c-0.017,0.006-2.59,0.947-4.17,3.199c-1.584,2.258-2.188,4.691-2.194,4.715
			C6.75,130.478,5.93,131.098,5.025,131.098z"/>
	</g>
	<g>
		<path d="M2.07,122.036c-0.153,0-0.31-0.019-0.465-0.057c-1.06-0.257-1.723-1.294-1.483-2.357c0.305-1.373,1.715-4.106,5.063-5.629
			c3.459-1.572,5.993-2.214,6.103-2.24c1.066-0.268,2.155,0.385,2.425,1.455c0.268,1.071-0.384,2.158-1.456,2.426
			c-0.021,0.005-2.312,0.591-5.414,2.002c-2.313,1.052-2.804,2.816-2.823,2.891C3.779,121.425,2.961,122.036,2.07,122.036z"/>
	</g>
	<g>
		<path d="M111.731,261.641c-0.826,0-1.603-0.519-1.89-1.343c-0.362-1.043,0.188-2.182,1.229-2.547
			c0.175-0.062,4.313-1.489,7.651-1.513c2.445,0.007,6.095,0.296,6.248,0.312c1.101,0.097,1.914,1.063,1.818,2.166
			c-0.097,1.101-1.078,1.927-2.166,1.818c-0.035-0.005-3.588-0.287-5.875-0.296c-2.668,0.017-6.326,1.277-6.361,1.289
			C112.17,261.604,111.949,261.641,111.731,261.641z"/>
	</g>
	<g>
		<path d="M112.371,271.753c-0.392,0-0.787-0.114-1.136-0.354c-0.907-0.627-1.138-1.873-0.508-2.781
			c0.213-0.309,2.215-3.049,6.836-4.418c3.438-1.018,7.295-0.303,7.457-0.273c1.084,0.207,1.797,1.256,1.59,2.342
			s-1.256,1.791-2.34,1.59c-0.026-0.004-3.078-0.563-5.571,0.181c-3.257,0.965-4.669,2.838-4.682,2.856
			C113.631,271.452,113.006,271.753,112.371,271.753z"/>
	</g>
	<g>
		<path d="M118.444,278.148c-0.147,0-0.3-0.016-0.448-0.049c-1.078-0.24-1.752-1.34-1.513-2.418c0.086-0.389,0.991-3.859,6.129-5.69
			c4.44-1.587,6.412-1.214,7.056-0.979l-1.371,3.758c0,0,0.051,0.028,0.164,0.051c-0.015-0.004-1.263-0.219-4.504,0.938
			c-3.027,1.08-3.563,2.781-3.584,2.854C120.166,277.54,119.351,278.148,118.444,278.148z"/>
	</g>
	<g>
		<path fill="#FFEA00" d="M57.151,68.99c-1.428,4.114,6.15,9.68,16.928,12.432s20.669,1.646,22.097-2.467
			c0.014-0.04,0.013-0.082,0.025-0.122L68.097,65.014C62.341,64.995,58.05,66.389,57.151,68.99z"/>
	</g>
	<path fill="#FEB761" d="M177.089,22.21c-6.791-0.304-25.212,16.516-20.742,24.055c8.363,14.107,19.453-20.613,20.836-24.039
		L177.089,22.21z"/>
	<path fill="#FEB761" d="M177.021,22.21c-6.794-0.304-25.214,16.516-20.744,24.055c8.364,14.107,19.455-20.613,20.838-24.039
		L177.021,22.21z"/>
	<ellipse fill="#FEB761" cx="102.916" cy="88.305" rx="6.702" ry="1.787"/>
	<g>
		<path fill="#FFEA00" d="M154.074,60.831c-1.083-3.022-5.914-4.292-12.353-3.743l-31.28,19.616
			c1.955,4.62,12.979,4.944,24.891,0.671C147.408,73.043,155.799,65.636,154.074,60.831z"/>
	</g>
	<g>
		<circle cx="127.805" cy="71.542" r="8.696"/>
		<circle fill="#FFFFFF" cx="126.184" cy="68.903" r="2.858"/>
		
			<ellipse transform="matrix(-0.5145 -0.8575 0.8575 -0.5145 133.5722 225.6931)" fill="#817F7F" cx="130.674" cy="75.036" rx="1.34" ry="2.875"/>
	</g>
	<g>
		<g>
			<path d="M70.043,73.246c0,4.802,3.894,8.697,8.695,8.696c4.384,0,8-3.248,8.601-7.465L72.51,67.185
				C70.986,68.751,70.043,70.887,70.043,73.246z"/>
		</g>
		<circle fill="#FFFFFF" cx="77.118" cy="70.607" r="2.858"/>
		
			<ellipse transform="matrix(-0.5145 -0.8575 0.8575 -0.5145 56.7743 187.1222)" fill="#817F7F" cx="81.357" cy="77.49" rx="1.34" ry="2.875"/>
	</g>
	<g>
		<path fill="none" d="M112.231,75.843c0.563,1.57,3.501,2.546,7.666,2.546c4.313,0,9.556-1.029,14.761-2.896
			c5.607-2.012,10.544-4.75,13.897-7.712c2.759-2.435,4.152-4.839,3.637-6.274c-0.563-1.571-3.5-2.547-7.665-2.547
			c-2.131,0-4.488,0.253-6.957,0.732L112.188,75.61C112.204,75.687,112.205,75.771,112.231,75.843z"/>
		<path fill="#A75214" d="M155.957,60.156c-1.163-3.245-5.015-5.073-10.859-5.187l-7.528,4.722c2.469-0.479,4.826-0.732,6.957-0.732
			c4.165,0,7.104,0.976,7.665,2.547c0.517,1.435-0.878,3.839-3.637,6.274c-3.354,2.961-8.29,5.7-13.897,7.712
			c-5.205,1.867-10.447,2.896-14.761,2.896c-4.165,0-7.103-0.976-7.666-2.546c-0.024-0.072-0.025-0.156-0.043-0.233l-3.472,2.177
			c1.453,2.974,5.386,4.603,11.181,4.603c4.763,0,10.482-1.112,16.111-3.131c6.072-2.178,11.469-5.189,15.194-8.478
			C155.398,67.076,157.086,63.303,155.957,60.156z"/>
		<path d="M112.188,75.61l25.382-15.917c-2.526,0.491-5.17,1.219-7.804,2.164C117.698,66.186,111.545,72.649,112.188,75.61z"/>
		<path d="M129.766,61.856c2.634-0.945,5.276-1.673,7.804-2.164l7.528-4.722c-0.189-0.003-0.377-0.011-0.571-0.011
			c-2.6,0-5.488,0.342-8.488,0.972l-27.643,17.334c-0.384,1.33-0.389,2.65,0.069,3.928c0.073,0.203,0.157,0.4,0.251,0.593
			l3.472-2.177C111.545,72.649,117.698,66.186,129.766,61.856z"/>
	</g>
	<g>
		<path fill="#A75214" d="M97.592,75.061L73.995,63.457c-2.076-0.29-4.104-0.447-6.021-0.447c-1.266,0-2.453,0.066-3.557,0.194
			l-0.001,0c-4.932,0.567-8.199,2.368-9.154,5.13c-0.354,1.022-0.552,2.661,0.522,4.659c2.237,4.162,9.059,8.134,17.799,10.367
			c4.037,1.031,8.104,1.576,11.764,1.576c6.826,0,11.428-1.898,12.669-5.209l-0.001,0c0.015-0.038,0.035-0.075,0.048-0.114
			C98.411,78.607,98.601,77.009,97.592,75.061z M85.346,80.935c-3.33,0-7.055-0.502-10.773-1.452
			c-8.566-2.188-13.919-5.88-15.267-8.385c-0.311-0.578-0.4-1.067-0.265-1.455c0.438-1.269,3.422-2.634,8.935-2.634
			c1.541,0,3.172,0.119,4.842,0.329l0.003,0.001c0.001,0,0.003,0,0.004,0l21.511,10.578c0,0,0,0.001,0,0.001l0.001,0.001
			c-0.001,0.134-0.015,0.264-0.054,0.379C93.844,79.569,90.858,80.935,85.346,80.935z"/>
	</g>
	<g>
		<path fill="#A75214" d="M101.363,81.144c-0.306,0-0.606-0.07-0.883-0.205L62.605,62.313c-0.991-0.488-1.398-1.687-0.912-2.677
			c0.487-0.992,1.687-1.4,2.679-0.913l37.384,18.384l0.589-0.045l43.832-27.488c0.936-0.587,2.17-0.304,2.757,0.632
			s0.304,2.17-0.632,2.757l-44.25,27.75c-0.274,0.172-0.586,0.275-0.909,0.3l-1.625,0.125
			C101.465,81.142,101.413,81.144,101.363,81.144z"/>
	</g>
</g>
</svg>
