<?xml version="1.0" encoding="utf-8"?>
<!-- Generator: Adobe Illustrator 15.1.0, SVG Export Plug-In . SVG Version: 6.00 Build 0)  -->
<!DOCTYPE svg PUBLIC "-//W3C//DTD SVG 1.1//EN" "http://www.w3.org/Graphics/SVG/1.1/DTD/svg11.dtd">
<svg version="1.1" id="Layer_2" xmlns="http://www.w3.org/2000/svg" xmlns:xlink="http://www.w3.org/1999/xlink" x="0px" y="0px"
	 width="302px" height="302px" viewBox="0 0 302 302" enable-background="new 0 0 302 302" xml:space="preserve">
<path opacity="0.2" d="M250.461,275.268c1.982-1.339,3.039-2.741,3.039-4.187c0-9.34-44.068-16.914-98.419-16.914
	c-54.357,0-98.416,7.574-98.416,16.914c0,4.164,8.754,7.976,23.264,10.924c-20.271,0.094-36.597,4.531-36.597,9.994
	c0,5.523,16.676,10.001,37.25,10.001c20.571,0,37.251-4.478,37.251-10.001c0-2.16-2.562-4.159-6.902-5.794
	c13.278,1.147,28.273,1.795,44.149,1.795c17.213,0,33.391-0.761,47.468-2.096c1.993,5.02,17.811,8.929,37.034,8.929
	c20.571,0,37.251-4.478,37.251-10.001C276.834,280.326,265.726,276.518,250.461,275.268z"/>
<path fill="#F68634" d="M90.065,264.841c6.191,4.214,15.311,6.191,21.5,7.205c20.111,3.293,43.079,2.684,61.311-7.421
	c20.75-11.5,36.5-31,38.25-32.75c0,0,12.708,7.459,19.208,5.792S234.5,207.5,234.5,207.5s-0.333-10-0.333-18
	c1.5-4,5.5-17.667,6.667-34s-2.209-33.75-2.209-33.75s9.625-8.25,14.125-11.5s11.126-9.106,4.5-11.25c-8.5-2.75-25.25-2-29,0.5
	c0,0-15.5-10-23.25-12c-4.5-2.75-7-7.25-7.75-13s-3.479-11.405-9.739-6.578S176.5,83.25,175.5,85.75S165,92.25,161,95.5
	s-18.5,25-23.25,31.5S121,146.25,102,152s-22.25,9.75-24.75,11c-6-0.5-20.5-3-29-11.25S34,136.25,30,144.5s3.25,27.25,13.25,36
	s10.25,10,12.25,11.5c-2,7.5-4.25,18.75-1,29.25s14.25,23.5,11.25,27.5s-26.5,15.75-28.5,22.75s0.25,16.25,10.25,21s41,7.25,48.25,4
	s13-8,6.25-12.75s-32-6.75-37.25-7.5s-3.25-3.25,4.75-6s15-4.25,16.25-4.25S88.104,263.507,90.065,264.841z"/>
<path fill="#FEB761" d="M231.501,107.167c0,0-0.167,3.083,1.333,5.417s1.999,3.167,4.333,2.25c1.599-0.627,14.296-8.838,12.5-10.25
	c-1.166-0.917-6-1.667-10.75-0.667S231.501,105.25,231.501,107.167z"/>
<path fill="#FEB761" d="M178.75,86.313c0,0,6.438-0.625,6.938-1.563s2.438-7.813,2.625-9.5s-0.125-2.625-1.938-2.125
	s-6.688,8-7.375,9.688S177.063,86.063,178.75,86.313z"/>
<g>
	<path fill="#F68634" d="M134.167,131.5c0,0-15.5-8.417-24.417-10.375S87,116.292,84,120.625s-0.167,7.542,7.833,15.875s15,13,15,13
		s7.667,0.25,15.167-5.125S134.167,131.5,134.167,131.5z"/>
</g>
<path fill="#FEB761" d="M87,184c0,0-5,6.25-3.5,14.75s4.583,12,22.333,11.75s42.667-5,65.917-20.5s30.5-28,32.5-34s4-19.5-5-24
	s-32.75-14.25-42.25-6.5c-10.541,8.599-19.193,19.633-30.839,26.726c-8.661,5.274-16.1,8.298-24.994,15.941
	C97.262,171.523,89.443,179.372,87,184z"/>
<path fill="#FFEA00" d="M217.875,132.96c-1.764,5.115-6.619,8.79-12.333,8.79c-7.203,0-13.042-5.839-13.042-13.042
	c0-1.917,0.413-3.737,1.156-5.376L217.875,132.96z"/>
<path fill="#FFEA00" d="M180.917,118.385c-1.422,5.39-6.33,9.365-12.167,9.365c-6.95,0-12.584-5.634-12.584-12.583
	c0-2.605,0.792-5.026,2.148-7.034L180.917,118.385z"/>
<g>
	<path fill="#A75214" d="M205.542,143.75c-8.294,0-15.042-6.748-15.042-15.042s6.748-15.042,15.042-15.042
		s15.041,6.748,15.041,15.042S213.836,143.75,205.542,143.75z M205.542,117.667c-6.089,0-11.042,4.953-11.042,11.042
		s4.953,11.042,11.042,11.042c6.088,0,11.041-4.953,11.041-11.042S211.63,117.667,205.542,117.667z"/>
</g>
<g>
	<path fill="#A75214" d="M168.75,129.75c-8.042,0-14.584-6.542-14.584-14.583c0-8.042,6.542-14.583,14.584-14.583
		c8.041,0,14.583,6.542,14.583,14.583C183.333,123.208,176.791,129.75,168.75,129.75z M168.75,104.583
		c-5.836,0-10.584,4.748-10.584,10.583c0,5.835,4.748,10.583,10.584,10.583s10.583-4.748,10.583-10.583
		C179.333,109.331,174.586,104.583,168.75,104.583z"/>
</g>
<ellipse cx="167.469" cy="115.281" rx="4" ry="4.125"/>
<path d="M206.532,127.518c0.452,0.668,0.718,1.481,0.718,2.357c0,2.278-1.791,4.125-4,4.125s-4-1.847-4-4.125
	c0-2.136,1.574-3.893,3.591-4.104L206.532,127.518z"/>
<g>
	<path fill="#A75214" d="M55.165,193.834c-0.644,0-1.292-0.206-1.84-0.632c-6.596-5.13-20.32-15.804-25.783-31.464
		c-3.811-10.925-2.06-16.809,0.08-19.821c1.693-2.384,4.2-3.75,6.878-3.75c3.816,0,8.446,3.925,15.686,10.331
		c2.083,1.843,4.238,3.75,6.201,5.336c5.775,4.67,17.522,5.944,21.561,6.042c1.656,0.04,2.967,1.415,2.927,3.071
		c-0.034,1.388-2.284,2.954-3.071,2.927c-0.676-0.017-16.66-0.478-25.189-7.374c-2.066-1.671-4.271-3.622-6.404-5.509
		c-3.674-3.251-9.824-8.692-11.724-8.825c-0.321,0-1.187,0.12-1.972,1.225c-0.871,1.226-2.546,5.081,0.694,14.37
		c4.879,13.988,17.659,23.928,23.801,28.704c1.308,1.018,1.543,2.902,0.526,4.21C56.944,193.437,56.059,193.834,55.165,193.834z"/>
</g>
<g>
	<path fill="#A75214" d="M179.749,119.5c-0.207,0-0.418-0.043-0.618-0.134l-21.5-9.75c-0.755-0.342-1.089-1.231-0.747-1.986
		c0.343-0.754,1.232-1.088,1.985-0.747l21.5,9.75c0.755,0.342,1.089,1.231,0.747,1.986C180.865,119.173,180.32,119.5,179.749,119.5z
		"/>
</g>
<g>
	<path fill="#A75214" d="M216.75,134.25c-0.183,0-0.369-0.034-0.549-0.104l-22.25-8.75c-0.771-0.303-1.15-1.174-0.847-1.945
		c0.302-0.771,1.176-1.15,1.944-0.847l22.25,8.75c0.771,0.303,1.15,1.174,0.847,1.945C217.914,133.89,217.348,134.25,216.75,134.25z
		"/>
</g>
<path fill="#982C61" enable-background="new    " d="M177.25,143.75c0,0-1.125,7.625-0.5,9.875s2.875,3.375,6.625,1.125
	s6-6,6.625-9.375s0.5-5.625,0.5-5.625L177.25,143.75z"/>
<path fill="#A75214" d="M191.341,139.053c-0.43-1.018-1.609-1.491-2.621-1.061c-0.094,0.04-8.366,3.5-14.902,3.643
	c-0.032-0.694-0.067-1.663-0.067-2.635c0-0.669,0.824-1.862,1.419-2.465c0.776-0.781,0.774-2.044-0.005-2.824
	c-0.781-0.781-2.047-0.781-2.828,0c-0.432,0.432-2.586,2.716-2.586,5.289c0,0.792,0.021,1.57,0.047,2.226
	c-5.652-1.202-9.268-4.193-9.332-4.248c-0.839-0.714-2.099-0.617-2.816,0.22c-0.719,0.839-0.622,2.102,0.217,2.82
	c0.209,0.179,5.205,4.396,13.031,5.463c0.794,0.108,1.622,0.157,2.47,0.157c7.476,0,16.493-3.785,16.915-3.964
	C191.298,141.243,191.773,140.07,191.341,139.053z"/>
<g>
	<path d="M182.868,124.167c2.175,0.846,4.22,1.556,5.489,4.281c2.34,5.022-7.016,10.683-14.781,7.664
		c-7.768-3.021-10.84-13.514-5.723-15.637c2.774-1.152,4.762-0.294,6.938,0.552L182.868,124.167z"/>
	
		<ellipse transform="matrix(0.3623 -0.9321 0.9321 0.3623 -5.4971 246.0824)" fill="#FEB761" cx="177.094" cy="127.059" rx="1.787" ry="6.702"/>
</g>
<path fill="#A75214" d="M137.68,125.354c-0.979-0.513-2.187-0.138-2.701,0.84c-3.777,7.189-8.871,12.461-16.516,17.095
	c-2.502,1.517-6.297,3.243-10,4.4c-0.725-0.978-1.999-1.459-3.234-1.102c-8.388,2.42-18.263,5.731-29.333,14.427
	c-0.77,0.605-1.153,1.512-1.135,2.42c-5.143,3.523-9.676,8.229-13.197,13.737c-2.524,3.951-4.795,8.697-6.94,14.51
	c-0.383,1.036,0.147,2.186,1.183,2.568c0.229,0.085,0.462,0.125,0.693,0.125c0.813,0,1.578-0.501,1.876-1.309
	c2.045-5.539,4.191-10.034,6.56-13.74c3.632-5.686,10.025-10.875,15.334-14.916c0.154-0.117,0.23-0.209,0.275-0.292
	c9.584-7.029,18.604-9.532,26.348-11.766c0.188-0.055,0.366-0.128,0.534-0.215c4.707-1.196,9.815-3.431,13.11-5.428
	c8.19-4.964,13.801-8.78,17.88-16.543C138.931,129.189,138.658,125.868,137.68,125.354z"/>
<g enable-background="new    ">
	<path fill="#537098" d="M235.706,292.92c-3.431,0-6.761-0.202-9.767-0.429c-15.104-0.716-16.032-7.558-16.063-8.922
		c-0.039-1.656,1.272-3.03,2.93-3.068c1.546-0.08,2.877,1.133,3.05,2.658c0.131,0.296,1.55,2.922,10.452,3.344
		c4.788,0.359,10.311,0.654,15.581,0.14c1.969-0.191,3.832-0.491,5.538-0.89c4.668-1.092,5.573-3.039,5.573-3.253V240
		c0-0.759-0.475-1.335-0.702-1.612c-0.092-0.112-0.208-0.253-0.324-0.436c-0.912-1.104-6.77-6.706-12.018-11.589
		c-1.213-1.129-1.281-3.027-0.152-4.24c1.129-1.211,3.027-1.282,4.24-0.152c9.958,9.267,12.229,11.713,12.871,12.585
		c1.396,1.707,2.085,3.523,2.085,5.444v42.169c0.145,0.789,0.107,1.608-0.113,2.443c-1.296,4.925-7.688,6.421-10.095,6.983
		c-1.963,0.459-4.09,0.801-6.321,1.019C240.214,292.834,237.939,292.92,235.706,292.92z"/>
</g>
<g>
	<path fill="#A75214" d="M81.996,244.667c-0.341,0-0.686-0.088-1.002-0.272c-0.266-0.154-2.62-1.577-3.517-3.817
		c-0.41-1.025,0.088-2.189,1.114-2.6c1.025-0.409,2.19,0.089,2.6,1.113c0.304,0.76,1.361,1.576,1.825,1.853
		c0.946,0.563,1.263,1.788,0.705,2.736C83.347,244.313,82.68,244.667,81.996,244.667z"/>
</g>
<g>
	<path fill="#A75214" d="M235.75,126.125c-0.791,0-1.581-0.311-2.17-0.929c-1.145-1.198-1.1-3.097,0.099-4.241
		c0.115-0.11,2.874-2.737,7.52-6.63c1.456-1.22,3.513-2.625,5.69-4.113c2.979-2.036,8.422-5.755,9.332-7.511
		c-0.632-1.353-4.217-3.323-14.438-3.201c-10.061,0.112-15.998,4.163-16.057,4.204c-1.355,0.943-3.224,0.618-4.174-0.732
		c-0.949-1.35-0.637-3.209,0.708-4.166c0.297-0.211,7.404-5.171,19.456-5.306c4.646-0.046,18.776-0.208,20.475,8.287
		c0.922,4.606-5.028,8.672-11.918,13.379c-2.053,1.403-3.991,2.727-5.222,3.759c-4.499,3.769-7.203,6.345-7.23,6.37
		C237.24,125.85,236.495,126.125,235.75,126.125z"/>
</g>
<g>
	<path fill="none" d="M194.83,74.487c-1.275-4.782-2.31-5.207-2.423-5.239c-0.984-0.039-2.157,0.372-3.101,1.078
		c-4.797,3.584-8.104,8.367-10.421,15.166c0.097-0.02,0.189-0.042,0.287-0.061c5.188-1.017,11.015-1.804,17.252-1.541
		C196.147,80.376,195.675,77.655,194.83,74.487z"/>
	<path fill="#A75214" d="M228.662,96.688c-8.967-7.418-17.853-10.896-26.179-12.202c-0.292-4.425-0.822-7.67-1.856-11.546
		c-0.694-2.603-2.539-9.517-8.033-9.689c-2.328-0.067-4.852,0.753-6.879,2.268c-8.467,6.327-11.872,15.168-13.644,21.752
		c-15.134,4.95-22.98,14.68-27.712,21.97c-3.414,5.259-8.745,14.044-11.302,18.283c-4.861-2.508-15.568-7.772-22.663-9.33
		c-12.973-2.848-24.941-4.938-28.86,0.723c-4.5,6.498,0.256,11.453,8.136,19.66c8.133,8.473,15.203,13.22,15.5,13.418
		c0.511,0.341,0.774,0.473,1.346,0.473c1.17-0.438,2.234-0.438,2.812-1.304c0.919-1.377,0.548-3.24-0.829-4.16
		c-0.067-0.045-6.852-4.614-14.501-12.583c-8.442-8.794-8.937-10.059-7.531-12.09c0.01-0.014,1.063-1.413,7.935-0.828
		c4.664,0.398,10.036,1.525,14.705,2.55c8.396,1.844,23.477,9.999,23.628,10.082c1.413,0.765,3.18,0.284,4.005-1.096
		c0.081-0.134,8.109-13.535,12.651-20.533c4.83-7.439,13.29-17.729,30.936-21.189c5.816-1.14,12.13-1.925,18.777-1.246
		c0.069,0.012,0.141,0.015,0.212,0.022c8.108,0.866,16.711,3.926,25.521,11.216c1.276,1.056,3.168,0.877,4.224-0.399
		C230.117,99.636,229.939,97.745,228.662,96.688z M179.173,85.431c-0.098,0.019-0.19,0.041-0.287,0.061
		c2.317-6.799,5.624-11.582,10.421-15.166c0.943-0.706,2.116-1.116,3.101-1.078c0.113,0.033,1.147,0.458,2.423,5.239
		c0.845,3.168,1.316,5.889,1.595,9.403C190.188,83.627,184.361,84.414,179.173,85.431z"/>
</g>
<path fill="#A75214" d="M241.571,121.179c-0.316-1.626-1.896-2.691-3.516-2.374c-1.626,0.315-2.689,1.889-2.375,3.515
	c0.033,0.17,3.286,17.237,2.162,32.966c-1.149,16.084-5.07,29.391-6.483,33.16c-0.127,0.337-0.191,0.694-0.191,1.054
	c0,7.958,0.331,17.999,0.335,18.1c0.001,0.049,0.004,0.097,0.008,0.145c1.025,12.563,0.064,25.372-2.016,27.04
	c-2.953,0.683-8.537-1.322-13.017-3.474c-0.266-0.473-0.551-0.996-0.728-1.561c-0.625-2-4.125-7.625-6.5-12s-5.375-5.5-6.625-4
	c-1.567,1.88,0.281,5.55,0.976,7.445c1.171,3.192,1.529,6.352,1.453,9.753c-0.007,0.302-0.164,2.026-0.242,3.475
	c-1.448,1.591-3.23,3.493-5.295,5.578c-0.19-2.21-0.929-4.82-2.017-8.001c-1.625-4.75-4.25-7.625-6.875-7.25s0.375,5.125,1.5,10.625
	c0.688,3.363,0.301,8.358-0.104,11.734c-3.218,2.857-6.802,5.788-10.671,8.566c0.989-4.129,1.241-8.496,0.724-12.585
	c-0.308-2.437-0.673-7.994-2.824-9.716c-1.25-1-2.625-0.625-3.75,1.875s-0.875,9.375-2,16.5c-0.681,4.312-2.411,8.475-3.674,11.1
	c-19.037,9.816-41.818,8.85-57.777,6.235c-7.936-1.3-13.414-3.074-17.194-4.944c-0.079-0.069-0.149-0.145-0.236-0.207
	c-0.266-0.189-0.631-0.385-1.202-0.552c-2.978-1.685-4.684-3.405-5.653-4.894c-0.904-1.389-2.761-1.78-4.151-0.877
	c-1.388,0.903-1.781,2.763-0.877,4.15c0.318,0.487,0.673,0.959,1.049,1.423c-4.474,0.382-8.02,1.203-13.143,2.981
	c-0.719,0.25-2.637,0.955-4.69,2.005c-0.141,0.049-0.283,0.097-0.419,0.168c-0.091,0.047-2.269,1.187-5.862,3.582
	c-2.39,1.593-2.193,3.535-1.997,4.296c0.646,2.511,3.307,3.276,7.887,3.778c1.926,0.314,4.505,0.503,8.244,0.748
	c5.758,0.378,8.799,0.796,12.319,1.28c1.063,0.146,2.159,0.297,3.371,0.452c5.084,0.651,9.07,2.277,10.661,4.35
	c0.66,0.86,0.897,1.781,0.747,2.899c-0.519,3.853-12.84,4.375-18.762,4.626l-0.644,0.027c-10.131,0.434-27.84-1.062-35.106-6.957
	c-4.695-3.811-7.167-7.3-7.345-10.37c-0.195-3.357,2.469-6.09,4.61-8.285c0.438-0.448,0.843-0.865,1.193-1.251
	c2.154-2.377,10.949-7.823,16.204-11.077c3.563-2.207,5.309-3.295,6.025-3.91c2.524-2.163,2.546-6.106,0.067-12.057
	c-0.327-0.785-0.885-1.697-1.658-2.959c-2.781-4.542-8.566-13.992-9.239-28.401c-0.279-5.978,0.592-11.751,2.589-17.161
	c0.574-1.555-0.221-3.279-1.775-3.854c-1.556-0.57-3.279,0.222-3.854,1.775c-2.276,6.168-3.271,12.734-2.954,19.519
	c0.744,15.949,7.074,26.287,10.115,31.255c0.535,0.874,1.088,1.777,1.237,2.135c1.3,3.119,1.442,4.778,1.372,5.338
	c-0.784,0.556-3.056,1.963-5.085,3.219c-8.081,5.004-14.974,9.372-17.491,12.149c-0.305,0.337-0.66,0.7-1.042,1.092
	c-2.488,2.551-6.653,6.822-6.305,12.822c0.285,4.892,3.41,9.693,9.554,14.68c9.307,7.553,28.34,8.349,35.94,8.348
	c1.821,0,2.987-0.045,3.204-0.055l0.641-0.027c9.818-0.416,23.265-0.986,24.454-9.819c0.362-2.691-0.307-5.234-1.934-7.354
	c-3.534-4.603-10.701-6.141-14.658-6.647c-1.192-0.152-2.27-0.301-3.315-0.445c-3.483-0.479-6.773-0.931-12.745-1.322
	c-0.836-0.055-1.605-0.107-2.323-0.158c-0.13-0.032-0.259-0.067-0.396-0.082c-0.607-0.063-1.335-0.125-2.122-0.192
	c-0.509-0.043-1.166-0.099-1.872-0.165c1.259-0.743,2.982-1.582,5.125-2.325c5.626-1.952,8.801-2.588,14.156-2.837
	c2.471-0.117,3.796-0.03,4.44,0.049c4.918,2.618,11.512,4.591,19.875,5.961c6.407,1.049,13.863,1.841,21.773,1.841
	c13.504,0,28.327-2.311,41.477-9.599c18.22-10.098,32.367-25.862,37.437-31.596c4.229,2.222,13.381,6.438,19.313,4.92
	c7.771-1.993,7.362-21.648,6.418-33.244c-0.029-0.893-0.315-9.89-0.328-17.301c1.633-4.596,5.506-18.189,6.658-34.314
	C245.008,139.175,241.711,121.906,241.571,121.179z"/>
<g>
	<g>
		<path fill="#9EB6D8" enable-background="new    " d="M242.18,289.629c2.011-0.196,3.996-0.503,5.929-0.954
			c2.533-0.593,7.084-1.812,7.878-4.828c0.12-0.455,0.144-0.892,0.014-1.347c0,0,0-31.333,0-42.5c0-2.151-1.418-3.503-1.5-3.667
			c-0.5-1-12.5-12.166-12.5-12.166s-4.583-1.292-8.375-1.292s-7.291,1.292-7.291,1.292s-12,11.166-12.5,12.166
			c-0.082,0.164-1.5,1.516-1.5,3.667c0,11.167,0,42.5,0,42.5s-1.667,5.833,13.831,7C231.364,289.892,236.863,290.146,242.18,289.629
			z"/>
		<g>
			<path fill="#537098" d="M235.722,292.42c-3.613,0-7.105-0.229-9.744-0.427c-7.827-0.59-12.897-2.469-15.069-5.585
				c-1.21-1.737-1.191-3.338-1.074-4.133V240c0-1.812,0.657-3.53,1.955-5.106l0.001,0.001c0.532-0.754,2.589-3.019,12.841-12.558
				c0.242-0.226,0.526-0.4,0.837-0.516c0.16-0.059,3.967-1.446,8.157-1.446c4.091,0,8.853,1.329,9.054,1.386
				c0.382,0.107,0.733,0.306,1.024,0.576c10.179,9.471,12.278,11.771,12.829,12.541c1.319,1.617,1.968,3.323,1.968,5.122v42.212
				c0.145,0.734,0.112,1.482-0.097,2.272c-1.22,4.634-7.399,6.08-9.726,6.625c-1.941,0.453-4.046,0.792-6.255,1.008
				C240.329,292.321,238.137,292.42,235.722,292.42z M214.781,283.01c0.013,0.703,1.947,3.272,11.571,3.997
				c2.552,0.192,5.922,0.413,9.369,0.413c2.252,0,4.285-0.092,6.216-0.279c1.99-0.194,3.876-0.497,5.603-0.9
				c4.851-1.135,5.859-2.386,6.028-3.03c-0.063-0.223-0.068-0.478-0.068-0.71V240c0-0.938-0.572-1.633-0.816-1.93
				c-0.091-0.111-0.199-0.242-0.305-0.413c-0.821-1.019-6.423-6.386-11.622-11.231c-1.276-0.321-4.474-1.051-7.132-1.051
				c-2.547,0-5.004,0.683-5.984,0.991c-5.217,4.861-10.861,10.269-11.686,11.291c-0.105,0.171-0.214,0.302-0.305,0.413
				c-0.244,0.297-0.816,0.992-0.816,1.93v42.5C214.834,282.672,214.817,282.843,214.781,283.01z"/>
		</g>
	</g>
	<g>
		<g>
			<path fill="#DADADA" enable-background="new    " d="M244.333,205.167c0,0,8.333-3.667,13-7.5s8.5-9,8.5-9l12,24
				c0,0-6.834,11.167-18,11.167S245.167,222,245.167,222L244.333,205.167z"/>
		</g>
		<g>
			<path fill="#8F8F8F" d="M259.833,226.834c-11.33,0-15.365-1.813-16.059-2.177c-1.468-0.769-2.034-2.582-1.265-4.05
				c0.769-1.466,2.582-2.034,4.05-1.265l0,0c0.007,0,3.414,1.491,13.273,1.491c8.515,0,13.687-6.484,14.876-8.5
				c-1.046-3.177-6.355-13.992-9.244-19.019c-1.499,1.908-3.526,4.451-6.228,6.67c-4.929,4.048-13.34,7.771-13.696,7.928
				c-1.515,0.666-3.287-0.021-3.953-1.537c-0.668-1.517,0.021-3.287,1.536-3.955c0.08-0.034,8.018-3.551,12.305-7.072
				c2.285-1.876,4.122-4.216,5.464-5.925c1.775-2.263,2.949-3.757,4.94-3.757c1.548,0,2.445,1.095,2.74,1.455
				c1.927,2.349,6.302,11.154,7.159,12.896c5.469,11.104,5.242,12.237,5.042,13.237C280.144,216.417,272.38,226.834,259.833,226.834
				z"/>
		</g>
	</g>
	<g>
		<path fill="#DADADA" enable-background="new    " d="M247.116,215.432c0,3.627-2.941,6.568-6.568,6.568h-12.726
			c-3.628,0-6.569-2.941-6.569-6.568v-4.789c0-3.628,2.941-6.569,6.569-6.569h12.726c3.627,0,6.568,2.941,6.568,6.569V215.432z"/>
		<ellipse fill="#FFFFFF" cx="234.185" cy="208.75" rx="9.938" ry="2.125"/>
		<g>
			<path fill="none" d="M225.191,219.246c0.093,0.039,3.78,1.129,8.185,1.129c4.145,0,8.527-0.956,9.518-1.188
				c0.77-1.064,1.224-2.569,1.224-3.756v-4.789c0-1.968-1.601-3.569-3.568-3.569h-12.726c-1.968,0-3.569,1.602-3.569,3.569v4.789
				c0,1.32,0.072,2.748,0.826,3.776C225.118,219.224,225.152,219.229,225.191,219.246z"/>
			<path fill="#8F8F8F" d="M240.548,201.073h-12.726c-5.276,0-9.569,4.293-9.569,9.569v4.789c0,3.287,1.667,6.191,4.199,7.914
				c0.285,0.363,0.688,0.673,1.216,0.904c0.379,0.167,3.991,2.125,9.707,2.125c5.646,0,10.859-1.866,11.043-1.958
				c0.571-0.286,0.968-0.582,1.236-0.907c2.677-1.698,4.462-4.68,4.462-8.078v-4.789
				C250.116,205.366,245.824,201.073,240.548,201.073z M224.253,210.643c0-1.968,1.602-3.569,3.569-3.569h12.726
				c1.968,0,3.568,1.602,3.568,3.569v4.789c0,1.187-0.249,3.026-1.224,3.756s-5.373,1.188-9.518,1.188
				c-4.404,0-7.412-0.466-8.185-1.129s-0.072-0.022-0.111-0.038c-0.754-1.028-0.826-2.456-0.826-3.776V210.643z"/>
		</g>
	</g>
	<g>
		<path fill="#DADADA" enable-background="new    " d="M237.667,244.5c0,0,8.166,0.166,12.333-1s6-3,6-3v27
			c0,0,0.001,5.583-18.499,5.083C237.584,266.75,237.667,244.5,237.667,244.5z"/>
		<g>
			<path fill="#8F8F8F" d="M239.78,274.614c-0.744,0-1.52-0.01-2.332-0.032c-1.095-0.029-1.962-0.933-1.946-2.027
				c0.082-5.756,0.165-27.84,0.166-28.063c0.002-0.536,0.22-1.049,0.603-1.423c0.384-0.375,0.938-0.573,1.438-0.569
				c0.011,0.001,0.396,0.008,1.031,0.008c1.732,0,7.625-0.067,10.723-0.934c3.523-0.986,5.125-2.488,5.141-2.504
				c0.579-0.554,1.442-0.714,2.176-0.401c0.736,0.314,1.223,1.03,1.223,1.831v27C257.999,269.17,256.684,274.614,239.78,274.614z
				 M239.524,270.614c12.498-0.007,14.477-3.083,14.477-3.115v-23.357c-0.942,0.45-2.091,0.901-3.461,1.284
				c-3.041,0.852-7.804,1.048-10.88,1.078C239.639,251.474,239.583,264.438,239.524,270.614z"/>
		</g>
	</g>
</g>
<g>
	<path fill="#A75214" d="M206.125,112.125c-0.375,0-0.75-0.14-1.041-0.42c-0.597-0.575-0.614-1.524-0.039-2.121l6.625-6.875
		c0.574-0.598,1.524-0.613,2.121-0.039c0.597,0.575,0.614,1.524,0.039,2.121l-6.625,6.875
		C206.911,111.971,206.518,112.125,206.125,112.125z"/>
</g>
<g>
	<path fill="#A75214" d="M211.999,114.5c-0.297,0-0.596-0.087-0.857-0.27c-0.68-0.474-0.846-1.409-0.372-2.088l3.75-5.375
		c0.475-0.68,1.409-0.846,2.089-0.372c0.68,0.474,0.846,1.409,0.372,2.088l-3.75,5.375C212.939,114.276,212.473,114.5,211.999,114.5
		z"/>
</g>
<g>
	<path fill="#A75214" d="M182.249,105.5c-0.226,0-0.454-0.051-0.67-0.159c-0.741-0.371-1.041-1.271-0.671-2.013l4-8
		c0.371-0.741,1.271-1.04,2.013-0.671c0.741,0.371,1.041,1.271,0.671,2.013l-4,8C183.329,105.196,182.799,105.5,182.249,105.5z"/>
</g>
<g>
	<path fill="#A75214" d="M179.25,102.75c-0.157,0-0.317-0.025-0.475-0.078c-0.786-0.262-1.21-1.111-0.948-1.897l1.875-5.625
		c0.262-0.786,1.112-1.21,1.897-0.949c0.786,0.262,1.21,1.111,0.948,1.897l-1.875,5.625
		C180.464,102.353,179.878,102.75,179.25,102.75z"/>
</g>
<g>
	<path fill="#A75214" d="M218.249,156.125c-0.28,0-0.564-0.059-0.835-0.183l-12.5-5.75c-1.003-0.461-1.442-1.649-0.981-2.653
		c0.463-1.004,1.653-1.44,2.653-0.981l12.5,5.75c1.003,0.462,1.442,1.649,0.981,2.653
		C219.73,155.693,219.006,156.125,218.249,156.125z"/>
</g>
<g>
	<path fill="#A75214" d="M215.749,166.5c-0.459,0-0.92-0.157-1.296-0.478l-11-9.375c-0.841-0.717-0.941-1.979-0.226-2.819
		c0.716-0.843,1.979-0.941,2.819-0.226l11,9.375c0.841,0.717,0.941,1.979,0.226,2.819C216.877,166.262,216.315,166.5,215.749,166.5z
		"/>
</g>
<g>
	<path fill="#A75214" d="M156.751,129.25c-0.186,0-0.373-0.026-0.561-0.08l-12.875-3.75c-1.061-0.309-1.67-1.419-1.361-2.479
		c0.309-1.061,1.421-1.67,2.479-1.361l12.875,3.75c1.061,0.309,1.67,1.419,1.36,2.479
		C158.416,128.683,157.617,129.25,156.751,129.25z"/>
</g>
<g>
	<path fill="#A75214" d="M154.377,133.125c-0.045,0-0.09-0.001-0.135-0.004l-13.125-0.875c-1.103-0.074-1.936-1.026-1.863-2.128
		c0.073-1.103,1.035-1.936,2.128-1.863l13.125,0.875c1.103,0.074,1.937,1.026,1.862,2.128
		C156.3,132.315,155.421,133.125,154.377,133.125z"/>
</g>
<g>
	<g enable-background="new    ">
		<path fill="#9EB6D8" d="M92.586,139.294c0,0,11.198,2.618,14.12,3.301s0.435-3.322-4.504-6.359
			c-4.938-3.037-6.582-4.791-6.582-4.791l6.374-27.265c0,0,29.634-18.405,31.836-19.772c2.202-1.368,0.932-2.521-2.201-3.766
			c-3.133-1.246-17.873-5.547-25.014-7.217c-7.141-1.669-22.261-4.348-25.621-4.62c-3.36-0.272-5.01,0.198-3.642,2.4
			s19.772,31.836,19.772,31.836l-6.373,27.265c0,0-2.251,0.844-8.024,1.376c-5.772,0.533-9.777,3.021-6.856,3.704
			c2.921,0.683,14.12,3.301,14.12,3.301L92.586,139.294z"/>
	</g>
	<g enable-background="new    ">
		<path fill="#9EB6D8" d="M92.586,139.294c0,0,11.198,2.618,14.12,3.301s0.435-3.322-4.504-6.359
			c-4.938-3.037-6.582-4.791-6.582-4.791l6.374-27.265c0,0,29.634-18.405,31.836-19.772c2.202-1.368,0.932-2.521-2.201-3.766
			c-3.133-1.246-17.873-5.547-25.014-7.217c-7.141-1.669-22.261-4.348-25.621-4.62c-3.36-0.272-5.01,0.198-3.642,2.4
			s19.772,31.836,19.772,31.836l-6.373,27.265c0,0-2.251,0.844-8.024,1.376c-5.772,0.533-9.777,3.021-6.856,3.704
			c2.921,0.683,14.12,3.301,14.12,3.301L92.586,139.294z"/>
	</g>
	<path fill="#9EB6D8" enable-background="new    " d="M92.586,139.294c0,0,11.198,2.618,14.12,3.301s0.435-3.322-4.504-6.359
		c-4.938-3.037-6.582-4.791-6.582-4.791l6.374-27.265c0,0,29.634-18.405,31.836-19.772c2.202-1.368,0.932-2.521-2.201-3.766
		c-3.133-1.246-17.873-5.547-25.014-7.217c-7.141-1.669-22.261-4.348-25.621-4.62c-3.36-0.272-5.01,0.198-3.642,2.4
		s19.772,31.836,19.772,31.836l-6.373,27.265c0,0-2.251,0.844-8.024,1.376c-5.772,0.533-9.777,3.021-6.856,3.704
		c2.921,0.683,14.12,3.301,14.12,3.301L92.586,139.294z"/>
	<polygon fill="#982C61" enable-background="new    " points="87.479,85.725 97.864,102.444 99.66,102.992 126.979,85.887 	"/>
	<polygon fill="#DAEAFF" enable-background="new    " points="85.614,69.542 98.439,101.809 91.686,130.697 76.699,134.04 
		87.383,137.393 95.619,131.445 101.365,105.402 100.209,72.27 	"/>
	<path fill="#DE6287" enable-background="new    " d="M136.788,71.749c0,0,5.303-4.473,10.053-3.469
		c4.559,0.963,6.797,3.825,6.404,6.29c-0.368,2.31-2.604,2.622-5.287,1.652c-2.683-0.97-3.904-2.518-6.314-3.466
		c-2.637-1.038-4.549,0.605-5.083-0.033C136.026,72.084,136.788,71.749,136.788,71.749z"/>
	<path fill="#DE6287" enable-background="new    " d="M143.08,85.286c0,0,1.604,5.767,2.602,7.54
		c0.998,1.774,2.88,1.957,4.361,1.662c1.481-0.296,3.552-3.663,0.757-5.985s-5.086-3.5-6.425-3.813
		C143.035,84.377,142.979,84.621,143.08,85.286z"/>
	<g enable-background="new    ">
		<path fill="#537098" d="M106.364,144.055l-30.835-7.208c-2.093-0.489-2.162-1.892-2.134-2.31c0.179-2.584,5.595-4.016,9.193-4.348
			c3.665-0.339,5.857-0.805,6.9-1.075l6.033-25.81L76.077,71.997c-0.803-1.293-0.925-2.416-0.363-3.336
			c0.914-1.498,3.136-1.535,5.4-1.351c3.366,0.272,18.604,2.962,25.842,4.654c7.237,1.692,22.089,6.035,25.227,7.283
			c2.112,0.84,4.087,1.857,4.242,3.605c0.096,1.074-0.512,2.026-1.805,2.829l-31.309,19.444l-6.033,25.81
			c0.813,0.701,2.571,2.093,5.709,4.022c3.078,1.893,7.298,5.577,6.313,7.973C109.141,143.317,108.457,144.544,106.364,144.055z
			 M77.811,134.3l27.636,6.46c-0.826-0.91-2.161-2.097-4.032-3.247c-5.051-3.106-6.818-4.966-6.89-5.042
			c-0.343-0.366-0.48-0.88-0.367-1.368l6.374-27.265c0.091-0.388,0.332-0.723,0.669-0.933l31.836-19.772
			c0.044-0.028,0.086-0.055,0.124-0.08c-0.324-0.22-0.938-0.561-2.088-1.019c-3.061-1.217-17.656-5.479-24.801-7.15
			c-7.144-1.67-22.117-4.319-25.4-4.585c-1.233-0.1-1.935-0.066-2.323-0.013c0.023,0.039,0.048,0.082,0.076,0.126l19.772,31.836
			c0.21,0.338,0.277,0.746,0.187,1.133l-6.374,27.265c-0.114,0.488-0.465,0.887-0.935,1.063c-0.099,0.037-2.507,0.92-8.412,1.466
			C80.678,133.378,78.955,133.851,77.811,134.3z"/>
	</g>
</g>
<g>
	<g>
		<path fill="#A75214" d="M242.334,266.333c-0.008,0-0.015,0-0.022-0.001c-0.255-0.011-0.46-0.213-0.477-0.467l-0.834-13
			c-0.018-0.275,0.191-0.514,0.467-0.531c0.255-0.02,0.515,0.19,0.531,0.467l0.542,8.455l1.299-8.333
			c0.042-0.273,0.304-0.454,0.571-0.417c0.272,0.043,0.459,0.298,0.417,0.571l-2,12.833
			C242.79,266.154,242.579,266.333,242.334,266.333z"/>
	</g>
	<g>
		<path fill="#A75214" d="M246.985,265.657c-0.217,0-0.378-0.08-0.474-0.146c-0.646-0.446-0.72-1.605-0.341-5.395
			c0.071-0.721,0.026-1.057-0.013-1.202c-0.16,0.096-0.418,0.333-0.597,0.561c-0.172,0.218-0.488,0.252-0.702,0.085
			c-0.218-0.171-0.255-0.485-0.085-0.702c0.295-0.376,1.065-1.221,1.782-0.926c0.713,0.287,0.7,1.371,0.608,2.284
			c-0.105,1.06-0.378,3.79-0.111,4.41c0.233-0.068,0.508,0.023,0.618,0.244c0.123,0.247,0.051,0.536-0.196,0.66
			C247.289,265.624,247.125,265.657,246.985,265.657z"/>
	</g>
	<g>
		<path fill="#A75214" d="M244.749,266.008c-0.143,0-0.268-0.035-0.37-0.082c-1.103-0.503-0.924-3.118-0.877-3.638
			c0.07-0.774,0.444-1.104,0.745-1.246c0.898-0.42,2.133,0.381,2.371,0.547c0.228,0.157,0.284,0.468,0.127,0.695
			c-0.156,0.226-0.466,0.284-0.695,0.127c-0.392-0.27-1.109-0.587-1.379-0.463c-0.122,0.058-0.16,0.294-0.173,0.43
			c-0.129,1.425,0.106,2.426,0.283,2.622c0.014-0.021,0.085-0.067,0.192-0.18c0.765-0.797,1.017-1.049,1.017-1.049
			c0.195-0.195,0.512-0.195,0.707,0s0.195,0.512,0,0.707c-0.004,0.004-0.254,0.254-1.003,1.034
			C245.333,265.89,245.011,266.008,244.749,266.008z"/>
	</g>
	<g>
		<path fill="#A75214" d="M248.737,265.277c-0.038,0-0.078-0.002-0.118-0.007c-0.262-0.03-0.631-0.179-0.898-0.714
			c-0.033-0.067-0.052-0.142-0.053-0.217l-0.167-12c-0.004-0.276,0.217-0.503,0.493-0.507c0.002,0,0.005,0,0.007,0
			c0.273,0,0.496,0.22,0.5,0.493l0.165,11.872c0.088,0.131,0.074,0.08,0.076,0.08c0.063,0,0.253-0.122,0.376-0.268
			c0.179-0.209,0.492-0.237,0.704-0.059c0.21,0.177,0.239,0.489,0.063,0.701C249.793,264.763,249.332,265.277,248.737,265.277z"/>
	</g>
	<g>
		<path fill="#A75214" d="M250.334,265c-0.261,0-0.493-0.099-0.672-0.285c-0.538-0.561-0.486-1.805-0.4-3.865
			c0.034-0.813,0.072-1.723,0.072-2.683c0-1.052,0.103-2.035,0.843-2.108c1.087-0.093,1.809,2.485,1.813,2.511
			c0.217,1.088-1.092,2.132-1.356,2.331c-0.113,0.085-0.252,0.112-0.377,0.094c-0.053,1.264-0.109,2.782,0.127,3.028
			c0.533-0.022,0.622-0.436,0.626-0.453c0.054-0.272,0.32-0.446,0.588-0.393c0.271,0.054,0.446,0.317,0.393,0.588
			C251.906,264.192,251.449,265,250.334,265z M250.379,257.321c-0.024,0.184-0.045,0.454-0.045,0.846
			c0,0.592-0.014,1.165-0.033,1.709c0.386-0.354,0.764-0.836,0.709-1.111C250.94,258.41,250.634,257.721,250.379,257.321z"/>
	</g>
	<g>
		<path fill="#A75214" d="M252.5,263.833c-0.004,0-0.008,0-0.012,0c-0.276-0.007-0.494-0.235-0.488-0.512l0.167-7.166
			c0.007-0.276,0.264-0.467,0.512-0.488c0.276,0.007,0.494,0.235,0.488,0.512L253,263.345
			C252.993,263.617,252.771,263.833,252.5,263.833z"/>
	</g>
	<g>
		<path fill="#A75214" d="M252.835,259c-0.033,0-0.065-0.003-0.099-0.01c-0.271-0.054-0.446-0.317-0.393-0.588
			c0.38-1.901,0.862-2.953,1.436-3.127c0.265-0.078,0.532-0.005,0.741,0.204c0.195,0.195,0.195,0.512,0,0.707
			c-0.13,0.13-0.312,0.176-0.479,0.131c-0.215,0.351-0.525,1.323-0.717,2.28C253.277,258.836,253.069,259,252.835,259z"/>
	</g>
	<g>
		<path fill="#A75214" d="M255.125,262.875c-0.004,0-0.008,0-0.013,0c-0.275-0.007-0.494-0.236-0.487-0.513l0.125-5
			c0.007-0.271,0.229-0.487,0.5-0.487c0.004,0,0.008,0,0.013,0c0.275,0.007,0.494,0.236,0.487,0.513l-0.125,5
			C255.618,262.659,255.396,262.875,255.125,262.875z"/>
	</g>
	<g>
		<path fill="#A75214" d="M255.22,255.979c-0.006,0-0.012,0-0.018,0c-0.276-0.011-0.492-0.242-0.482-0.518l0.03-0.84
			c0.01-0.276,0.241-0.5,0.518-0.482c0.276,0.011,0.492,0.242,0.482,0.518l-0.03,0.84
			C255.71,255.768,255.489,255.979,255.22,255.979z"/>
	</g>
	<g>
		<path fill="#A75214" d="M257.829,261.469c-0.183,0-0.359-0.102-0.447-0.276c-0.173-0.346-0.173-0.346-0.173-4.394
			c0-1.095-0.059-1.688-0.115-2.007c-0.006,0.005-0.011,0.01-0.016,0.015c-0.039,0.065-0.13,0.444-0.162,0.755
			c-0.028,0.274-0.28,0.473-0.549,0.445c-0.274-0.028-0.474-0.273-0.445-0.549c0.041-0.397,0.16-1.109,0.498-1.405
			c0.205-0.233,0.571-0.639,1.042-0.464c0.484,0.183,0.747,0.748,0.747,3.21c0,3.229,0,3.812,0.067,3.946
			c0.123,0.247,0.023,0.547-0.224,0.671C257.981,261.452,257.905,261.469,257.829,261.469z"/>
	</g>
	<g>
		<path fill="#A75214" d="M256.717,262.298c-0.049,0-0.099-0.005-0.149-0.016c-0.63-0.139-0.678-1.007-0.707-1.525l-0.009-0.149
			c-0.042-0.699-0.129-2.154,0.08-3.052c0.125-0.536,0.45-0.669,0.632-0.7c0.562-0.095,1.053,0.524,1.297,0.903
			c0.148,0.232,0.082,0.541-0.15,0.69c-0.229,0.147-0.541,0.083-0.69-0.148c-0.047-0.072-0.104-0.148-0.16-0.218
			c-0.108,0.822-0.041,1.944-0.01,2.465l0.009,0.152c0.005,0.089,0.011,0.167,0.017,0.236c0.054-0.087,0.114-0.193,0.183-0.322
			c0.129-0.243,0.434-0.338,0.676-0.207c0.244,0.129,0.337,0.432,0.207,0.676C257.603,261.72,257.221,262.298,256.717,262.298z"/>
	</g>
</g>
<path fill="#F68634" d="M121.667,220.834c0,0,8.167-23.833,17-34s14.5-17.5,19.5-15.5s4.5,4.5,3,8.5
	c-2.221,5.922-10.373,21.1-7.167,37.666c1,5.167,2.5,7.334,2.5,7.334L121.667,220.834z"/>
<g>
	<path fill="#A75214" d="M156.5,226.5c-0.744,0-1.459-0.418-1.803-1.135c-0.065-0.136-1.613-3.385-2.485-7.445
		c-1.335-6.214-1.451-12.313-0.343-18.127c0.733-3.846,2.607-8.668,4.42-13.331c1.515-3.899,2.946-7.582,3.231-9.577
		c0.171-1.2,0.527-3.695,0.048-4.248c-0.068-0.078-0.504-0.47-2.401-0.47c-2.09,0-7.169,2.188-17.71,16.835
		c-6.97,9.687-13.561,23.543-15.33,32.231c-0.221,1.082-1.279,1.777-2.359,1.561c-1.083-0.221-1.781-1.276-1.561-2.359
		c1.867-9.168,8.747-23.685,16.003-33.769c9.082-12.621,15.741-18.499,20.957-18.499c1.64,0,3.985,0.191,5.423,1.849
		c1.552,1.789,1.335,4.316,0.89,7.434c-0.35,2.451-1.792,6.163-3.463,10.462c-1.666,4.286-3.554,9.145-4.218,12.63
		c-1.008,5.286-0.898,10.851,0.323,16.539c0.77,3.578,2.168,6.526,2.182,6.556c0.476,0.996,0.056,2.19-0.94,2.667
		C157.085,226.437,156.79,226.5,156.5,226.5z"/>
</g>
</svg>
