<?xml version="1.0" encoding="utf-8"?>
<!-- Generator: Adobe Illustrator 15.1.0, SVG Export Plug-In . SVG Version: 6.00 Build 0)  -->
<!DOCTYPE svg PUBLIC "-//W3C//DTD SVG 1.1//EN" "http://www.w3.org/Graphics/SVG/1.1/DTD/svg11.dtd">
<svg version="1.1" id="Layer_2" xmlns="http://www.w3.org/2000/svg" xmlns:xlink="http://www.w3.org/1999/xlink" x="0px" y="0px"
	 width="302px" height="302px" viewBox="0 0 302 302" enable-background="new 0 0 302 302" xml:space="preserve">
<ellipse opacity="0.2" enable-background="new    " cx="159.917" cy="284.834" rx="117.417" ry="14.5"/>
<path fill="#F68634" d="M89.375,88.375c0,0,4.875-3.875,13.125-4.875s16.532-1.074,25.5,3.25c4.667,2.25,4.833,2.917,4.833,2.917
	L135,87c0,0,2.125-1.375,6.375-5.125C147.208,76.729,158.5,73.5,161.5,75s3.25,7.25,3,17.5s-3,26.25-3,26.25s5.333,7.75,10,13.75
	s9.999,10,21.333,15.667s29.668,14,40.334,20.667S256.5,185.167,263.5,195.5s9.001,20.999,7.667,36.333s-9.666,33.334-19,41.667
	s-29.668,19.667-50.334,19s-26.333-7.75-26.333-7.75L112,285l-4,4c0,0-7,4-17.5-1.5s-25-20-33-39.5s-11.539-49.04-9.5-73
	c2-23.5,8-44.75,10.5-51s2.5-6.25,2.5-6.25s-2.75-15-3-25.25s0-16,3-17.5s14.292,1.729,20.125,6.875C85.375,85.625,87.5,87,87.5,87
	L89.375,88.375z"/>
<path fill="#FEB761" d="M97.834,147.833c0,0-6.782-1.129-10.559,5.103c-3.775,6.23-5.108,37.229-0.775,60.896
	s13.667,47.666,18.333,56s4,12.001,8,13.334s11.333-0.333,16-7c2.917-4.167,10.848-16.754,13-36.334
	c1.291-11.748,2.125-28.791,0-42.666c-5.667-37-10-46-16.667-48.333s-9.266,0.058-9.266,0.058L97.834,147.833z"/>
<path fill="#FEB761" d="M66.75,115.25c0,0-2.5-0.75-3-9.5S63.345,90.756,63.5,87.5c0.167-3.5,0.667-5.833,2.833-3.167
	S72.833,92.5,75,96s2,4.5,0.667,7.167c-1.257,2.513-2.907,4.8-4.539,7.078C70.54,111.068,68.12,115.661,66.75,115.25z"/>
<path fill="#FEB761" d="M156.75,115.25c0,0,2.5-0.75,3-9.5s0.404-14.994,0.25-18.25c-0.167-3.5-0.667-5.833-2.834-3.167
	C155,87,150.667,92.5,148.5,96s-2,4.5-0.667,7.167c1.257,2.513,2.906,4.8,4.538,7.078
	C152.961,111.068,155.381,115.661,156.75,115.25z"/>
<g>
	<path fill="#A75214" d="M177.5,288.75c-0.513,0-1.023-0.195-1.414-0.586c-0.174-0.174-4.24-4.34-2.797-11.557
		c2.8-14,21.945-13.912,32.226-13.863l1.735,0.006c16.992,0,38.025-7.773,46.711-25.145c2.503-5.006,2.792-8.228,2.795-8.26
		c0.091-1.098,1.049-1.91,2.146-1.835c1.098,0.084,1.921,1.033,1.843,2.132c-0.013,0.158-0.313,3.963-3.206,9.752
		c-9.449,18.896-32.066,27.354-50.289,27.354l-1.754-0.006c-9.771-0.043-26.131-0.121-28.285,10.647
		c-1.012,5.06,1.676,7.916,1.703,7.943c0.78,0.781,0.78,2.047,0,2.828C178.524,288.555,178.012,288.75,177.5,288.75z"/>
</g>
<g>
	<path fill="#A75214" d="M108.748,288.917c-0.37,0-0.745-0.103-1.08-0.317c-0.93-0.598-1.198-1.834-0.602-2.764
		c1.453-2.261,1.286-2.699-0.969-6.74l-0.348-0.623c-0.91-1.64-1.975-3.375-3.101-5.213c-1.927-3.145-4.11-6.708-6.189-10.865
		c-3.286-6.571-4.33-9.916-4.373-10.057c-0.325-1.056,0.268-2.175,1.323-2.499c1.059-0.325,2.173,0.267,2.499,1.32
		c0.017,0.055,1.026,3.243,4.128,9.446c2.001,4.002,4.138,7.488,6.022,10.563c1.149,1.875,2.235,3.646,3.188,5.358l0.344,0.617
		c2.265,4.061,3.632,6.511,0.84,10.853C110.051,288.593,109.406,288.917,108.748,288.917z"/>
</g>
<g opacity="0.2">
	<path d="M188.25,136.25c-0.222,0-0.445-0.037-0.666-0.115c-0.204-0.072-5.038-1.822-7.373-6.491
		c-1.491-2.984-1.273-4.787-1.114-6.104c0.123-1.011,0.186-1.519-0.562-2.762c-0.617-1.028-1.24-1.633-1.9-2.274
		c-1.836-1.781-3.135-3.416-3.135-8.255c0-2.474,0.265-3.778,0.294-3.919c0.23-1.08,1.293-1.769,2.375-1.537
		c1.08,0.231,1.768,1.294,1.537,2.375l0,0c0,0-0.206,1.043-0.206,3.081c0,3.521,0.682,4.183,1.92,5.384
		c0.739,0.718,1.659,1.61,2.545,3.087c1.452,2.419,1.259,4.017,1.104,5.3c-0.131,1.076-0.232,1.926,0.722,3.834
		c1.594,3.188,5.092,4.496,5.127,4.508c1.041,0.367,1.588,1.51,1.22,2.551C189.846,135.737,189.074,136.25,188.25,136.25z"/>
</g>
<g opacity="0.2">
	<path d="M195.998,126.75c-0.361,0-0.728-0.098-1.057-0.303c-0.571-0.356-3.472-2.25-4.419-4.565
		c-0.322-0.791-0.476-1.593-0.622-2.368c-0.258-1.355-0.522-2.756-1.767-4.46c-2.735-3.748-1.964-7.852-1.93-8.025
		c0.214-1.083,1.264-1.79,2.35-1.574c1.079,0.213,1.782,1.257,1.577,2.335c-0.023,0.136-0.432,2.624,1.232,4.906
		c1.774,2.431,2.175,4.536,2.467,6.072c0.12,0.634,0.225,1.182,0.396,1.6c0.329,0.806,1.855,2.077,2.831,2.685
		c0.938,0.584,1.224,1.817,0.64,2.755C197.319,126.416,196.666,126.75,195.998,126.75z"/>
</g>
<g opacity="0.2">
	<path d="M201.665,116.417c-0.904,0-1.725-0.618-1.943-1.536c-0.529-2.215-2.246-4.079-2.264-4.097
		c-0.751-0.806-0.711-2.071,0.094-2.825c0.806-0.753,2.063-0.716,2.82,0.084c0.1,0.106,2.458,2.634,3.239,5.908
		c0.258,1.075-0.405,2.153-1.479,2.41C201.976,116.399,201.82,116.417,201.665,116.417z"/>
</g>
<g opacity="0.2">
	<path d="M34.5,135c-0.824,0-1.597-0.513-1.887-1.335c-0.366-1.039,0.177-2.178,1.213-2.549c0.078-0.029,3.547-1.336,5.134-4.511
		c0.954-1.908,0.851-2.758,0.721-3.834c-0.155-1.284-0.348-2.881,1.104-5.3c0.886-1.477,1.806-2.369,2.544-3.087
		c1.237-1.202,1.92-1.864,1.92-5.384c0-2.039-0.206-3.083-0.208-3.093c-0.219-1.078,0.475-2.135,1.552-2.359
		c1.077-0.225,2.132,0.458,2.362,1.533c0.029,0.141,0.294,1.445,0.294,3.919c0,4.839-1.299,6.474-3.134,8.255
		c-0.66,0.641-1.284,1.246-1.901,2.274c-0.746,1.243-0.685,1.751-0.563,2.762c0.159,1.316,0.377,3.12-1.113,6.103
		c-2.334,4.669-7.169,6.42-7.374,6.492C34.946,134.964,34.721,135,34.5,135z"/>
</g>
<g opacity="0.2">
	<path d="M26.752,125.5c-0.668,0-1.32-0.334-1.699-0.943c-0.584-0.938-0.298-2.171,0.64-2.755c0.939-0.589,2.491-1.852,2.832-2.685
		c0.171-0.417,0.275-0.965,0.396-1.6c0.292-1.537,0.69-3.641,2.465-6.072c1.687-2.311,1.242-4.866,1.237-4.891
		c-0.214-1.083,0.49-2.136,1.573-2.35c1.082-0.214,2.137,0.491,2.351,1.574c0.034,0.173,0.806,4.277-1.929,8.025
		c-1.244,1.704-1.51,3.104-1.768,4.46c-0.146,0.775-0.3,1.578-0.623,2.368c-0.947,2.314-3.847,4.209-4.418,4.565
		C27.479,125.402,27.113,125.5,26.752,125.5z"/>
</g>
<g opacity="0.2">
	<path d="M21.085,115.167c-0.154,0-0.311-0.018-0.466-0.055c-1.074-0.257-1.737-1.335-1.48-2.41
		c0.782-3.273,3.141-5.802,3.241-5.908c0.758-0.803,2.022-0.84,2.827-0.082c0.802,0.756,0.84,2.019,0.086,2.822l0,0
		c-0.018,0.019-1.734,1.882-2.265,4.097C22.809,114.55,21.989,115.167,21.085,115.167z"/>
</g>
<g>
	<path fill="#A75214" d="M88.124,153.125c-0.285,0-0.573-0.061-0.849-0.189c-0.059-0.026-5.929-2.763-10.455-3.458
		c-4.462-0.684-9.974,0.468-10.029,0.479c-1.079,0.23-2.144-0.459-2.372-1.54c-0.23-1.08,0.459-2.143,1.54-2.372
		c0.253-0.055,6.29-1.318,11.47-0.521c5.101,0.785,11.285,3.669,11.545,3.791c1,0.469,1.43,1.66,0.961,2.661
		C89.595,152.699,88.875,153.125,88.124,153.125z"/>
</g>
<g>
	<path fill="#A75214" d="M64.249,159.604c-0.763,0-1.49-0.438-1.824-1.177c-0.455-1.006-0.009-2.188,0.997-2.646
		c0.237-0.107,5.866-2.633,11.094-2.961c5.147-0.33,11.809,1.169,12.089,1.232c1.077,0.244,1.751,1.315,1.507,2.394
		c-0.244,1.075-1.315,1.755-2.393,1.508c-0.063-0.015-6.387-1.431-10.952-1.142c-4.487,0.281-9.645,2.59-9.697,2.612
		C64.803,159.547,64.524,159.604,64.249,159.604z"/>
</g>
<g>
	<path fill="#A75214" d="M98.555,170.173c-3.813,0-7.543-1.668-10.603-4.769c-0.776-0.785-0.769-2.053,0.019-2.828
		c0.786-0.774,2.053-0.77,2.828,0.019c1.77,1.794,4.682,3.871,8.511,3.548c5.17-0.431,7.614-3.066,7.691-8.297
		c0.017-1.104,0.91-1.951,2.028-1.971c1.104,0.018,1.987,0.925,1.972,2.029c-0.107,7.281-4.143,11.623-11.359,12.224
		C99.279,170.158,98.916,170.173,98.555,170.173z"/>
</g>
<g>
	<path fill="#A75214" d="M119.446,170.173c3.814,0,7.543-1.668,10.604-4.769c0.776-0.785,0.768-2.053-0.02-2.828
		c-0.785-0.774-2.053-0.77-2.827,0.019c-1.771,1.794-4.683,3.871-8.512,3.548c-5.17-0.431-7.613-3.066-7.69-8.297
		c-0.018-1.104-0.91-1.951-2.029-1.971c-1.104,0.018-1.987,0.925-1.971,2.029c0.106,7.281,4.142,11.623,11.358,12.224
		C118.722,170.158,119.084,170.173,119.446,170.173z"/>
</g>
<g>
	<path fill="#A75214" d="M94.128,142c-0.926,0-1.838-0.427-2.426-1.232c-3.007-4.12-7.543-6.74-12.777-7.377
		c-4.424-0.54-5.334,0.486-5.371,0.531c-1.061,1.273-2.953,1.445-4.225,0.382c-1.272-1.061-1.444-2.953-0.383-4.225
		c2.012-2.413,5.513-3.279,10.704-2.644c6.901,0.841,12.902,4.32,16.898,9.797c0.977,1.338,0.683,3.215-0.655,4.191
		C95.36,141.813,94.741,142,94.128,142z"/>
</g>
<g>
	<path fill="#A75214" d="M122.119,123.167c1.099,0,1.992-0.887,2-1.988c0-0.017,0.072-2.863,1.963-5.519
		c1.535-2.158,3.281-3.594,3.299-3.608c0.854-0.697,0.983-1.957,0.288-2.812c-0.697-0.856-1.953-0.987-2.811-0.293
		c-0.088,0.071-2.171,1.773-4.037,4.394c-2.648,3.723-2.702,7.648-2.703,7.814c-0.008,1.104,0.883,2.005,1.987,2.012
		C122.11,123.167,122.115,123.167,122.119,123.167z"/>
</g>
<g>
	<path fill="#A75214" d="M128.287,122.333c1.063,0,1.947-0.836,1.997-1.909c0.098-2.147,3.017-4.58,4.03-5.263
		c0.915-0.616,1.161-1.857,0.547-2.773c-0.613-0.917-1.852-1.165-2.77-0.552c-0.573,0.382-5.598,3.86-5.805,8.407
		c-0.051,1.103,0.804,2.039,1.906,2.089C128.225,122.333,128.256,122.333,128.287,122.333z"/>
</g>
<g>
	<path fill="#A75214" d="M130.828,153.125c0.284,0,0.572-0.061,0.848-0.189c0.059-0.026,5.929-2.763,10.455-3.458
		c4.462-0.684,9.975,0.468,10.029,0.479c1.078,0.23,2.143-0.459,2.372-1.54c0.229-1.08-0.459-2.143-1.54-2.372
		c-0.254-0.055-6.289-1.318-11.471-0.521c-5.101,0.785-11.285,3.669-11.545,3.791c-1,0.469-1.43,1.66-0.961,2.661
		C129.357,152.699,130.077,153.125,130.828,153.125z"/>
</g>
<g>
	<path fill="#A75214" d="M153.703,160.604c0.762,0,1.488-0.438,1.822-1.177c0.455-1.006,0.01-2.188-0.996-2.646
		c-0.236-0.107-5.865-2.633-11.094-2.961c-5.146-0.33-11.808,1.169-12.089,1.232c-1.077,0.244-1.751,1.315-1.507,2.394
		c0.245,1.075,1.315,1.755,2.393,1.508c0.063-0.015,6.388-1.431,10.952-1.142c4.487,0.281,9.646,2.59,9.696,2.612
		C153.149,160.547,153.428,160.604,153.703,160.604z"/>
</g>
<g>
	<path fill="#A75214" d="M122.824,142c0.926,0,1.838-0.427,2.426-1.232c3.006-4.12,7.543-6.74,12.776-7.377
		c4.425-0.54,5.334,0.486,5.371,0.531c1.062,1.273,2.953,1.445,4.226,0.382c1.271-1.061,1.443-2.953,0.382-4.225
		c-2.011-2.413-5.512-3.279-10.704-2.644c-6.901,0.841-12.902,4.32-16.898,9.797c-0.977,1.338-0.683,3.215,0.655,4.191
		C121.592,141.813,122.211,142,122.824,142z"/>
</g>
<g>
	<path fill="none" d="M235.795,174.111c-0.906,8.563-4.493,16.119-10.17,22.889c-3.25,3.875-6.625,4.625-7.875,3.5
		s-0.75-2.625,0.25-5.125s4.375-8.125,7.5-14.875c2.046-4.42,2.269-8.88,2.179-11.441c-2.325-1.328-4.866-2.699-7.536-4.089
		c-0.467,2.574-1.435,6.206-1.603,6.753c-1.241,4.061-3.057,7.914-4.79,11.777c-2.75,6.125-8,11-10.5,12.125s-4,1-4.375-1.25
		s1.25-5.25,2.875-8.25c2.146-3.963,4.223-7.973,6.174-12.036c1.13-2.354,2.044-4.741,2.444-7.339
		c0.095-0.615,0.589-4.163,0.603-6.405c-2.516-1.237-5.042-2.465-7.511-3.659c-0.22,1.765-0.553,4.107-0.96,5.939
		c-0.75,3.375-2.875,8.375-5.75,13.125s-6.25,7.875-8.75,8.625s-3.25,0.75-3.25-1.75S187,176,189,172.875s4.75-8.375,5.75-12.625
		c0.648-2.758,0.351-5.895,0.061-7.762c-1.15-0.563-2.272-1.116-3.318-1.639c-11.5-5.75-17.353-10.069-22.359-16.508
		c-4.667-6-9.884-13.572-10.104-13.891c-0.442-0.645-0.616-1.438-0.484-2.209c0.026-0.158,2.716-15.906,2.958-25.815
		c0.093-3.802,0.339-13.903-1.343-14.744c-1.876-0.633-11.585,1.842-16.799,6.441c-3.002,2.649-4.986,4.156-5.98,4.872
		c3.606,2.521,5.38,4.271,5.492,4.383c1.172,1.171,1.172,3.071,0,4.242c-0.585,0.586-1.354,0.879-2.121,0.879
		c-0.768,0-1.536-0.293-2.121-0.879c-0.032-0.031-3.879-3.793-12.061-8.234c-8.042-4.366-15.803-3.867-23.708-2.909
		c-6.176,0.749-17.741,7.837-21.677,10.505c-1.372,0.929-3.237,0.571-4.167-0.799c-0.93-1.372-0.572-3.237,0.799-4.167
		c0.248-0.168,2.729-1.839,6.179-3.861c-1.122-0.861-2.736-2.162-4.854-4.031c-5.212-4.599-14.92-7.073-16.857-6.415
		C60.661,78.523,60.907,88.624,61,92.426c0.192,7.893,1.934,19.466,2.649,23.944c0.295,0.567,0.417,1.218,0.308,1.871
		c0.188,1.092-0.25,2.139-1.043,2.802l-1.628,4.07c-2.399,5.998-8.323,26.949-10.297,50.141c-2.063,24.26,1.668,53.035,9.286,71.605
		c7.69,18.746,21.78,32.83,31.617,37.981c7.717,4.04,13.023,2.253,14.341,1.683l3.646-3.646c0.56-0.561,1.317-0.876,2.108-0.879
		l9.161-0.036c0.886-0.948,2.313-1.255,3.531-0.644c0.321,0.16,0.592,0.38,0.825,0.627l49.982-0.197
		c0.887,0.029,1.782,0.411,2.354,1.126c0.012,0.011,5.477,6.024,24.087,6.626c0.57,0.018,1.14,0.027,1.708,0.027
		c20.566,0,39.328-11.836,46.531-18.269c8.85-7.899,16.761-25.334,18.01-39.688c1.304-14.992-0.771-24.956-7.162-34.392
		C254.672,187.816,243.734,179.436,235.795,174.111z"/>
	<path fill="#A75214" d="M265.984,193.816c-8.188-12.086-23.079-22.436-31.227-27.527c-8.028-5.02-20.024-10.818-30.608-15.936
		c-3.622-1.751-7.043-3.405-9.974-4.87c-10.736-5.368-15.86-9.108-20.307-14.825c-3.588-4.611-7.625-10.346-9.208-12.617
		c0.649-3.974,2.624-16.652,2.839-25.468c0.269-11.021,0.09-17.883-4.657-20.256c-4.896-2.447-17.566,2.115-23.452,7.309
		c-3.972,3.504-6.006,4.847-6.027,4.86c-0.487,0.317-0.845,0.756-1.073,1.248c-0.896-0.529-1.843-1.069-2.858-1.621
		c-9.587-5.205-18.739-4.628-27.292-3.591c-3.604,0.437-8.193,2.347-12.412,4.489c-0.172-0.194-0.363-0.376-0.59-0.525
		c-0.021-0.013-2.055-1.356-6.027-4.86c-5.885-5.193-18.554-9.757-23.451-7.309c-4.747,2.373-4.927,9.236-4.657,20.256
		c0.209,8.588,2.086,20.833,2.785,25.134l-2.072,5.179c-2.503,6.258-8.673,28.004-10.704,51.86
		c-2.138,25.123,1.766,55.02,9.714,74.393c8.305,20.244,23.253,35.188,34.383,41.02c11.818,6.189,20.037,1.645,20.38,1.447
		c0.231-0.133,0.444-0.295,0.634-0.483l3.126-3.126l6.292-0.023c0.204,1.767,1.002,3.058,1.663,3.844
		c2.489,2.967,7.311,4.113,11.617,4.113c2.071,0,4.024-0.266,5.542-0.722c5.549-1.664,11.831-7.038,12.097-7.267
		c0.033-0.027,0.057-0.063,0.088-0.092l23.729-0.095c2.641,2.313,10.202,7.187,27.461,7.743c0.598,0.02,1.193,0.029,1.792,0.029
		c19.544-0.002,39.8-10.114,50.638-19.789c10.01-8.938,18.604-27.699,19.989-43.646
		C275.591,215.594,273.224,204.504,265.984,193.816z M268.179,231.573c-1.249,14.354-9.16,31.788-18.01,39.688
		c-7.203,6.433-25.965,18.269-46.531,18.269c-0.568,0-1.138-0.01-1.708-0.027c-18.61-0.602-24.075-6.615-24.087-6.626
		c-0.572-0.715-1.469-1.097-2.354-1.126l-49.982,0.197c-0.233-0.247-0.504-0.467-0.825-0.627c-1.218-0.611-2.646-0.307-3.531,0.644
		L111.989,282c-0.792,0.003-1.55,0.318-2.108,0.879l-3.646,3.646c-1.317,0.57-6.625,2.357-14.341-1.683
		c-9.836-5.151-23.926-19.235-31.617-37.981c-7.618-18.57-11.351-47.348-9.286-71.605c1.975-23.189,7.897-44.143,10.297-50.141
		l1.628-4.07c0.793-0.663,1.23-1.709,1.043-2.802c0.108-0.653-0.013-1.304-0.308-1.871c-0.716-4.479-2.458-16.052-2.649-23.944
		c-0.093-3.802-0.339-13.903,1.283-14.717c1.938-0.658,11.646,1.816,16.857,6.415c2.119,1.869,3.732,3.17,4.854,4.031
		c-3.451,2.021-5.931,3.693-6.179,3.861c-1.371,0.93-1.729,2.795-0.799,4.167c0.929,1.371,2.795,1.729,4.167,0.799
		c3.936-2.668,15.501-9.756,21.677-10.505c7.905-0.958,15.667-1.457,23.708,2.909c8.182,4.441,12.028,8.203,12.061,8.234
		c0.585,0.586,1.354,0.879,2.121,0.879c0.767,0,1.536-0.293,2.121-0.879c1.172-1.171,1.172-3.071,0-4.242
		c-0.112-0.112-1.886-1.861-5.492-4.383c0.994-0.716,2.979-2.223,5.98-4.872c5.213-4.6,14.923-7.074,16.799-6.441
		c1.682,0.841,1.436,10.941,1.343,14.744c-0.242,9.909-2.932,25.657-2.958,25.815c-0.132,0.771,0.042,1.564,0.484,2.209
		c0.221,0.319,5.438,7.891,10.104,13.891c5.008,6.438,10.859,10.758,22.359,16.508c1.046,0.523,2.168,1.075,3.318,1.639
		c0.29,1.867,0.589,5.004-0.061,7.762c-1,4.25-3.75,9.5-5.75,12.625s-4.25,7.25-4.25,9.75s0.75,2.5,3.25,1.75
		s5.875-3.875,8.75-8.625s5-9.75,5.75-13.125c0.406-1.832,0.739-4.176,0.96-5.939c2.469,1.194,4.995,2.422,7.511,3.66
		c-0.014,2.241-0.508,5.789-0.603,6.404c-0.4,2.598-1.314,4.984-2.444,7.339c-1.951,4.063-4.027,8.073-6.174,12.036
		c-1.625,3-3.25,6-2.875,8.25s1.875,2.375,4.375,1.25s7.75-6,10.5-12.125c1.733-3.863,3.549-7.718,4.79-11.777
		c0.168-0.547,1.136-4.179,1.603-6.752c2.67,1.389,5.211,2.76,7.536,4.088c0.09,2.563-0.133,7.021-2.179,11.441
		c-3.125,6.75-6.5,12.375-7.5,14.875s-1.5,4-0.25,5.125s4.625,0.375,7.875-3.5c5.677-6.77,9.264-14.326,10.17-22.889
		c7.938,5.322,18.877,13.705,25.222,23.07C267.407,206.617,269.483,216.581,268.179,231.573z"/>
</g>
<path fill="#F68634" d="M142.167,253.001c0,0-2.667,7.667-7.833,15s-14,16-12.5,20.833s12.167,4.333,17,3.333
	s14.5-9.333,19.833-15.333c5.721-6.436,15.167-21.5,15.167-21.5L142.167,253.001z"/>
<g>
	<path fill="#A75214" d="M131.962,294.832c-5.097,0-10.708-1.122-12.038-5.405c-1.419-4.571,3.28-10.46,8.255-16.692
		c1.57-1.967,3.193-4.002,4.521-5.885c4.932-7,7.554-14.433,7.579-14.507c0.364-1.042,1.504-1.59,2.547-1.229
		c1.043,0.363,1.594,1.503,1.23,2.546c-0.113,0.323-2.82,8.018-8.088,15.495c-1.396,1.979-3.057,4.063-4.664,6.074
		c-3.721,4.664-8.352,10.465-7.561,13.014c0.891,2.871,9.292,3.084,14.685,1.967c3.979-0.822,13.177-8.441,18.744-14.703
		c5.546-6.238,14.874-21.084,14.968-21.232c0.587-0.937,1.821-1.219,2.757-0.633c0.937,0.588,1.22,1.821,0.632,2.758
		c-0.39,0.621-9.602,15.279-15.365,21.767c-5.111,5.749-15.296,14.798-20.923,15.963
		C137.554,294.475,134.84,294.832,131.962,294.832z"/>
</g>
<g>
	<path d="M113.536,144.104c2.333,0,4.497-0.079,6.667,2c4,3.833-2.667,12.5-11,12.5s-15-8.667-11-12.5c2.169-2.079,4.333-2,6.667-2
		H113.536z"/>
	<ellipse fill="#FEB761" cx="109.202" cy="148.892" rx="6.7" ry="1.787"/>
</g>
<g>
	<path fill="#A75214" d="M94.833,123.167c-1.1,0-1.993-0.887-2-1.988c0-0.017-0.073-2.863-1.963-5.519
		c-1.535-2.158-3.282-3.594-3.3-3.608c-0.854-0.697-0.983-1.957-0.287-2.812c0.696-0.856,1.952-0.987,2.81-0.293
		c0.088,0.071,2.171,1.773,4.037,4.394c2.648,3.723,2.703,7.648,2.704,7.814c0.007,1.104-0.883,2.005-1.988,2.012
		C94.842,123.167,94.838,123.167,94.833,123.167z"/>
</g>
<g>
	<path fill="#A75214" d="M88.665,122.333c-1.063,0-1.948-0.836-1.997-1.909c-0.099-2.147-3.018-4.58-4.031-5.263
		c-0.915-0.616-1.161-1.857-0.547-2.773c0.614-0.917,1.852-1.165,2.77-0.552c0.573,0.382,5.599,3.86,5.806,8.407
		c0.05,1.103-0.805,2.039-1.907,2.089C88.727,122.333,88.696,122.333,88.665,122.333z"/>
</g>
</svg>
