<?xml version="1.0" encoding="utf-8"?>
<!-- Generator: Adobe Illustrator 15.1.0, SVG Export Plug-In . SVG Version: 6.00 Build 0)  -->
<!DOCTYPE svg PUBLIC "-//W3C//DTD SVG 1.1//EN" "http://www.w3.org/Graphics/SVG/1.1/DTD/svg11.dtd">
<svg version="1.1" id="Layer_4" xmlns="http://www.w3.org/2000/svg" xmlns:xlink="http://www.w3.org/1999/xlink" x="0px" y="0px"
	 width="302px" height="302px" viewBox="0 0 302 302" enable-background="new 0 0 302 302" xml:space="preserve">
<ellipse opacity="0.2" enable-background="new    " cx="149" cy="284.834" rx="122.333" ry="14.5"/>
<path fill="#F68634" d="M269.834,95.125c1.833-6.167,2.166-10.5-0.334-12.833s-11.333-0.833-14.833,0.5s-6,2.667-6,2.667
	l-3.604,2.472c-6.079-4.833-15.916-10.343-30.063-11.597c-14.043-1.245-23.842,4.36-29.933,9.863l-4.9-3.363c0,0-2.5-1.333-6-2.667
	s-12.333-2.833-14.833-0.5S157.167,86.333,159,92.5s6.334,13.833,6.334,13.833l2.032-1.539
	c-6.104,5.491-13.646,12.085-18.366,15.539c-9.413,6.885-24.75,16.042-41.375,19.167c-19.103,3.591-30.292,1.5-35.292-8.167
	s-4.333-19,1.333-27s19.667-17.333,35-17.667s25.667,0.667,31.667-1s5.667-6,4.333-10.667s-9.667-13.333-28-12.667
	s-26.333,2.333-36.667,8c-13.879,7.611-32.633,25.874-35,44.417C43,130.417,43.333,149,41.333,160S27.667,193.666,27,209.333
	s0.667,46.501,5,56.167s8.208,21.625,18,21.75c6.227,0.079,7.333-3,6-10s-1.625-11.583,2.375-16.25l5.875-7.25
	c0,0,5.75,7.5,12,14.75s14.25,19,19.75,22s9.965,4.325,15.125,3.125c5.375-1.25,9.125-4.125,8.375-8.625s-3-6.5-4.75-10.25
	s-2.75-5.5-2.75-5.5s20,2.084,29,2.417S171.667,269,171.667,269s1.161,14.801,7,19.667c5,4.167,6.5,4.834,10.833,4.167
	s5.833-5.167,7-11.833s8-23.334,8-23.334s0.872-0.583,2.405-1.683c0.653,1.341,5.688,11.478,11.595,17.85
	c6.333,6.833,12.167,11.001,17.5,13.167s8.333,2,11.5-0.5s0.333-8.168-2.5-13.834s-4.499-14.332-3.833-23.666
	c0.62-8.685,2.971-25.296,3.295-27.565c4.908-6.24,9.501-13.359,13.872-22.103c6-11.999,8.999-21.999,10.666-35.666
	s0.667-27-2.333-38.667c-2.067-8.04-4.689-13.626-8.328-19.95l5.161,3.908C263.5,108.958,268.001,101.292,269.834,95.125z"/>
<path fill="#FEB761" d="M205.5,254.25c0,0,13.5-20.5,20.75-33.75c4.333-7.92,8.175-16.995,8.316-26.156
	c0.174-11.109-8.006-13.484-16.799-17.132c-5.735-2.378-12.535-5.366-17.269-9.462c-13-11.25-9.75-36.5-9-46.5
	s7.75-26.249,16.499-29.25c16.143-5.535,27.379,12.092,29.287,25.803c0.763,5.474,1.23,11.427,0.964,16.947
	c-1.25,25.75,18.084,19.083,21.584,27.583S258.25,189.5,256.25,198.5s-6.5,18-17.5,29.5s-34.25,29.667-34.25,29.667L205.5,254.25z"
	/>
<path d="M214.531,172.281c1.188,0,2.298-0.117,4.47-0.531c12.945-2.466,19.919-16.468,19.25-28.5
	c-0.513-9.207-4.254-18.352-8.062-26.667c-2.794-6.101-7.584-15.021-15.438-14.833h-0.5c-7.855-0.187-12.646,8.733-15.439,14.833
	c-3.807,8.315-7.549,17.46-8.061,26.667c-0.669,12.032,6.304,26.034,19.25,28.5c0,0,1.063,0.219,2.405,0.375
	C213.749,172.281,213.528,172.281,214.531,172.281z"/>
<path fill="#FFFFFF" d="M218.979,111.083c1.25,0,0.918,0.75,1,1.75c0.084,1-0.084,1.583,0.834,2.167
	c0.916,0.583,1.834,0.333,2.5-0.667c0.371-0.558,0.676-1.201,0.584-1.75c-0.119-0.703-1.207-1.909-2.75-3.5c-2.75-2.833-6-3-6-3
	h-1.293c0,0-3.25,0.167-6,3c-1.543,1.591-2.631,2.797-2.75,3.5c-0.092,0.549,0.213,1.192,0.584,1.75c0.666,1,1.584,1.25,2.5,0.667
	c0.918-0.583,0.75-1.167,0.834-2.167c0.082-1-0.25-1.75,1-1.75H218.979z"/>
<path fill="#C5023C" d="M221.75,167.375c1.961-0.545,4.309-1.777,5.78-3.193c1.775-1.709,3.204-4.979,1.816-7.309
	c-1.552-2.605-5.153-2.921-7.848-3.123c-5-0.375-7,2.75-7,2.75s-2-3.125-7-2.75c-2.694,0.202-6.296,0.518-7.849,3.123
	c-1.388,2.33,0.041,5.6,1.816,7.309c1.473,1.416,3.82,2.648,5.781,3.193H221.75z"/>
<path fill="#FFFFFF" d="M215.791,163.209h4.918l1.207-0.083c0,0,0.209-1.167,0.875-1.542c0.668-0.375,1.75-0.625,2.5,0.125
	s1.375,2.499,1,3.333s-2.75,1.875-5.5,2.875s-5.582,0.792-5.582,0.792h-1.418c0,0-2.832,0.208-5.582-0.792s-5.125-2.041-5.5-2.875
	s0.25-2.583,1-3.333s1.832-0.5,2.5-0.125c0.666,0.375,0.875,1.542,0.875,1.542l1.207,0.083h4.918H215.791z"/>
<g>
	<path fill="#A75214" d="M242.162,291.521c-2.321,0-4.711-0.693-7.291-1.742c-6.046-2.454-12.295-7.135-18.571-13.906
		c-6.567-7.086-11.948-18.273-12.174-18.746c-0.714-1.495-0.081-3.285,1.413-3.999c1.496-0.719,3.285-0.082,4.001,1.412
		c0.051,0.108,5.22,10.846,11.16,17.255c5.675,6.123,11.202,10.305,16.429,12.428c4.725,1.92,6.511,1.504,8.513-0.076
		c1.25-0.986-1.84-7.168-3.325-10.138c-3.256-6.512-4.804-15.94-4.142-25.222c0.666-9.334,3.246-27.288,3.354-28.049
		c0.237-1.641,1.77-2.771,3.397-2.541c1.641,0.236,2.778,1.758,2.542,3.396c-0.027,0.186-2.66,18.501-3.311,27.62
		c-0.59,8.254,0.729,16.521,3.523,22.11c3.168,6.336,6.759,13.518,1.675,17.529C246.942,290.764,244.59,291.521,242.162,291.521z"/>
</g>
<g>
	<path fill="#A75214" d="M165.337,109.334c-1.029,0-2.031-0.53-2.59-1.481c-0.191-0.326-4.708-8.056-6.623-14.498
		c-1.702-5.728-2.896-12.093,1.163-15.881c4.363-4.076,15.863-0.904,17.946-0.111c3.637,1.385,6.235,2.765,6.346,2.823
		c1.461,0.779,2.014,2.595,1.234,4.057c-0.778,1.461-2.596,2.016-4.058,1.238c-0.023-0.013-2.397-1.269-5.657-2.511
		c-3.711-1.413-10.407-2.03-11.749-1.085c-1.241,1.161-1.079,4.362,0.525,9.759c1.709,5.75,6.002,13.096,6.045,13.169
		c0.839,1.429,0.359,3.268-1.068,4.106C166.376,109.201,165.853,109.334,165.337,109.334z"/>
</g>
<path fill="#FEB761" d="M171.667,98.667c-1.202,0.87-4.042-3.542-4.167-6.667s0.5-5,3-5s6.167,1.667,6.167,1.667
	s1.5,1.667,0.832,4.002C176.785,95.158,173.666,97.22,171.667,98.667z"/>
<g>
	<path fill="#A75214" d="M263.497,111.959c1.028,0,2.03-0.53,2.59-1.481c0.19-0.326,4.708-8.056,6.623-14.498
		c1.702-5.728,2.896-12.093-1.163-15.881c-4.364-4.076-15.864-0.904-17.947-0.111c-3.636,1.385-6.235,2.765-6.345,2.823
		c-1.461,0.779-2.014,2.595-1.235,4.057c0.779,1.461,2.597,2.016,4.059,1.238c0.022-0.013,2.396-1.269,5.656-2.511
		c3.711-1.413,10.407-2.03,11.749-1.085c1.241,1.161,1.079,4.362-0.524,9.759c-1.709,5.75-6.002,13.096-6.045,13.169
		c-0.839,1.429-0.36,3.268,1.067,4.106C262.458,111.826,262.981,111.959,263.497,111.959z"/>
</g>
<path fill="#FEB761" d="M259.167,100.292c1.202,0.87,4.042-3.542,4.167-6.667s-0.5-5-3-5s-6.167,1.667-6.167,1.667
	s-1.5,1.667-0.832,4.002C254.049,96.783,257.168,98.845,259.167,100.292z"/>
<path fill="#FEB761" d="M112.667,227.334c0,0,12,4.833,26,5.333s26.666-1.334,30.333-2.167s5.834-1.166,5.834-1.166
	s-2.833,12.999-3,22.166s0,18.5,0,18.5s-17.668,2.167-30.834,1.667c-13.167-0.5-29-2.417-29-2.417
	c-2.171-7.546-3.877-15.355-3.973-23.236c-0.044-3.732,0.363-7.455,1.432-11.037c0.26-0.873,1.8-7.291,2.541-7.477L112.667,227.334z
	"/>
<g>
	<path fill="#A75214" d="M174.501,121c-0.748,0-1.466-0.422-1.809-1.144c-0.474-0.998-0.049-2.19,0.949-2.664l19.5-9.25
		c0.999-0.475,2.19-0.048,2.664,0.95s0.049,2.19-0.949,2.664l-19.5,9.25C175.08,120.938,174.788,121,174.501,121z"/>
</g>
<g>
	<path fill="#A75214" d="M175.997,108.25c-0.98,0-1.837-0.722-1.979-1.721c-0.154-1.094,0.607-2.105,1.701-2.26l19.5-2.75
		c1.083-0.155,2.105,0.606,2.26,1.701c0.154,1.094-0.606,2.105-1.701,2.26l-19.5,2.75
		C176.185,108.244,176.091,108.25,175.997,108.25z"/>
</g>
<g>
	<path fill="#A75214" d="M253.002,108.75c-0.11,0-0.223-0.009-0.335-0.028l-19.25-3.25c-1.089-0.184-1.823-1.216-1.64-2.305
		s1.205-1.825,2.306-1.639l19.25,3.25c1.089,0.184,1.822,1.216,1.639,2.305C254.808,108.06,253.961,108.75,253.002,108.75z"/>
</g>
<g>
	<path fill="#A75214" d="M254.749,121c-0.294,0-0.594-0.065-0.874-0.202l-19-9.25c-0.993-0.483-1.406-1.681-0.923-2.674
		c0.481-0.993,1.685-1.406,2.673-0.923l19,9.25c0.993,0.483,1.405,1.681,0.923,2.674C256.202,120.586,255.489,121,254.749,121z"/>
</g>
<g>
	<path fill="#A75214" d="M214.75,101c-1.104,0-2-0.896-2-2V86.75c0-1.104,0.896-2,2-2c1.104,0,2,0.896,2,2V99
		C216.75,100.104,215.854,101,214.75,101z"/>
</g>
<path fill="#FFEA00" d="M252.75,95.75c0,0-6.5,2.25-12.75,0.25s-10.5-4.5-12.5-8.25s0.75-9,6.25-10.25s13.75,0.25,16.75,6
	S252.75,95.75,252.75,95.75z"/>
<path fill="#FFEA00" d="M177.25,95.75c0,0,6.5,2.25,12.75,0.25s10.5-4.5,12.5-8.25s-0.75-9-6.25-10.25s-13.75,0.25-16.75,6
	S177.25,95.75,177.25,95.75z"/>
<path fill="#A75214" d="M269.572,124.253c-2.971-11.554-7.092-18.311-13.329-28.538l-0.931-1.525
	c-0.86-1.414-2.706-1.863-4.123-1.001c-1.415,0.862-1.862,2.708-1.002,4.123l0.934,1.529c6.169,10.115,9.894,16.221,12.642,26.908
	c3.035,11.806,3.817,24.792,2.261,37.558c-1.619,13.273-4.526,23-10.372,34.688c-9.118,18.236-19.112,29.222-31.313,40.104
	c-5.353,4.772-10.177,8.663-13.899,11.523c2.089-3.512,4.24-6.969,6.36-10.368c4.182-6.707,8.505-13.642,12.229-20.83
	c0.509-0.979,0.124-2.188-0.855-2.696c-0.98-0.506-2.188-0.123-2.696,0.856c-3.648,7.047-7.931,13.913-12.07,20.554
	c-4.397,7.057-7.504,11.29-11.273,18.704c-0.163,0.211-0.302,0.441-0.404,0.691c-0.027,0.069-0.124,0.304-0.27,0.663
	c-1.755,3.621-3.226,7.645-4.312,11.287c-1.581,4.424-3.086,9.066-3.6,12.004c-1.302,7.438-2.688,9.105-4.501,9.386
	c-0.461,0.069-0.863,0.127-1.237,0.164c-0.447,0.009-0.922,0.001-1.432-0.013c-1.396-0.209-2.748-1.125-5.787-3.658
	c-2.196-1.831-3.791-6.159-4.785-10.432c-1.297-7.58-2.513-17.517-1.807-29.06c0.722-11.785,3.121-18.901,3.146-18.972
	c0.358-1.045-0.196-2.183-1.239-2.541c-1.047-0.36-2.184,0.195-2.543,1.238c-0.104,0.307-2.598,7.649-3.354,20.029
	c-0.445,7.268-0.531,13.818-0.26,19.604c-5.038,0.664-21.34,2.715-28.634,2.438c-7.784-0.288-24.181-1.931-27.989-2.319
	c-0.579-1.994-1.347-5.371-1.625-9.971c-0.075-1.234-0.156-2.441-0.234-3.621c-0.436-6.529-0.811-12.17,0.188-16.564
	c1.156-5.088,3.245-8.631,3.265-8.664c0.568-0.946,0.261-2.176-0.687-2.743c-0.946-0.568-2.176-0.263-2.743,0.687
	c-0.1,0.164-2.431,4.09-3.735,9.836c-0.506,2.227-0.683,4.518-0.727,6.797c-0.107,5.615,0.268,11.295,0.376,16.914
	c0.089,4.586,0.019,6.787,2.035,11.319c0.053,0.134,0.088,0.271,0.159,0.397c0.002,0.004,0.054,0.096,0.131,0.238
	c0.024,0.051,0.044,0.1,0.069,0.15c0.3,0.639,0.612,1.216,0.927,1.768c0.406,0.81,0.911,1.844,1.511,3.127
	c0.667,1.431,1.397,2.629,2.043,3.688c1.154,1.896,2.066,3.395,2.466,5.786c0.528,3.177-3.592,4.628-6.097,5.21
	c-3.938,0.916-7.587,0.121-13.009-2.837c-3.365-1.837-8.511-8.351-13.051-14.099c-2.061-2.608-4.007-5.074-5.863-7.228
	C72.405,259.445,66.69,252,66.632,251.926c-0.168-0.219-0.37-0.4-0.586-0.563c-3.104-3.62-6.983-7.131-9.823-10.448
	c-0.721-0.843-1.459-1.679-2.199-2.519c-3.595-4.078-7.313-8.295-9.143-13.328c-1.901-5.229-2.889-12.271-2.898-12.34
	c-0.15-1.095-1.159-1.86-2.254-1.709c-1.094,0.151-1.858,1.16-1.708,2.256c0.042,0.305,1.053,7.524,3.103,13.16
	c2.088,5.744,6.061,10.25,9.9,14.605c0.729,0.825,1.453,1.646,2.162,2.475c2.579,3.012,5.218,6.188,7.853,9.438l-4.938,6.095
	c-5.016,5.854-4.388,11.712-3.044,18.764c0.821,4.313,0.308,5.498,0.048,5.808c-0.348,0.416-1.491,0.661-3.063,0.632
	c-6.242-0.079-9.51-6.585-13.782-16.5c-0.506-1.176-1.009-2.342-1.52-3.479c-3.942-8.795-5.44-38.338-4.739-54.812
	c0.388-9.106,4.777-20.953,8.65-31.403c2.583-6.969,4.813-12.986,5.638-17.521c1.081-5.945,1.496-13.926,1.936-22.375
	c0.401-7.707,0.815-15.675,1.755-23.032c2.254-17.662,20.927-35.29,33.466-42.166c9.732-5.337,17.328-6.978,35.333-7.632
	c16.446-0.593,23.955,6.811,25.008,10.493c0.489,1.713,1.061,4.135,0.364,5.376c-0.374,0.667-1.254,1.198-2.616,1.576
	c-3.525,0.98-9.358,0.924-16.745,0.857c-4.152-0.04-8.856-0.083-14.185,0.034c-15.984,0.348-30.905,9.787-37.383,18.932
	c-6.382,9.011-6.933,19.705-1.55,30.112c4.781,9.243,14.161,11.658,24.117,11.435c0.008,1.677,0.146,3.882,0.152,4.237
	c0.07,3.814,0.141,7.658,0.764,11.43c0.441,2.674,1.081,7.629,3.842,9.012c1.902,0.951,3.803-2.854,3.803-10.078
	c0-5.697-0.472-11.74-0.578-15.256c2.173-0.29,4.324-0.65,6.409-1.042c2.083-0.392,4.133-0.882,6.152-1.436
	c0.048,3.034,0.307,8.902,1.516,13.74c1.711,6.846,3.232,8.748,4.943,10.268c1.711,1.521,4.943,1.711,4.563-3.613
	c-0.551-7.711-2.699-15.23-2.831-23.082c3.321-1.262,6.488-2.67,9.464-4.144c0.271,2.89,0.943,7.956,2.494,11.445
	c2.282,5.133,5.514,7.795,7.416,8.366s3.993-0.189,3.613-3.232c-0.38-3.042-3.042-7.035-4.754-11.979
	c-1.059-3.059-1.389-6.406-1.487-8.515c4.692-2.731,8.628-5.41,11.502-7.512c9.042-6.614,27.737-24.074,28.528-24.813
	c1.21-1.132,1.274-3.03,0.143-4.24s-3.029-1.274-4.239-0.143c-0.191,0.179-19.221,17.951-27.973,24.354
	c-7.621,5.575-22.972,15.409-40.158,18.64c-18.309,3.44-27.9,1.468-32.072-6.597c-4.363-8.436-3.978-16.696,1.117-23.888
	c5.472-7.726,18.764-16.1,32.616-16.401c5.234-0.114,9.891-0.071,13.997-0.033c8.168,0.076,14.065,0.13,18.407-1.076
	c2.959-0.822,5.062-2.311,6.245-4.425c1.76-3.14,1.074-6.795,0.17-9.957c-1.815-6.353-11.56-15.55-30.994-14.84
	c-19.121,0.695-27.289,2.494-38,8.368c-15.938,8.74-34.159,28.066-36.534,46.667c-0.967,7.58-1.388,15.663-1.795,23.48
	c-0.429,8.251-0.835,16.046-1.847,21.612c-0.73,4.017-2.979,10.084-5.36,16.509c-4.026,10.867-8.592,23.185-9.019,33.233
	c-0.64,15.01,0.573,47.067,5.26,57.522c0.497,1.108,0.988,2.248,1.483,3.396c4.038,9.369,8.614,19.989,19.216,20.125
	c3.584,0.042,6.132-0.863,7.738-2.777c2.37-2.828,1.961-7.037,1.246-10.783c-1.291-6.777-1.339-10.185,1.76-13.801l3.501-4.32
	c2.276,2.886,5.944,7.453,9.771,11.892c1.772,2.056,3.681,4.472,5.7,7.026c5.135,6.503,10.445,13.226,14.886,15.647
	c3.831,2.091,7.999,3.929,12.819,3.929c1.415,0,2.887-0.158,4.422-0.516c7.632-1.773,11.615-6.275,10.654-12.04
	c-0.589-3.536-1.947-5.766-3.26-7.921c-0.619-1.016-1.203-1.977-1.73-3.104c-0.113-0.241-0.223-0.476-0.329-0.7
	c6.611,0.645,17.604,1.655,23.75,1.884c7.189,0.264,21.792-1.475,28.147-2.29c0.716,5.011,2.688,14.411,7.71,18.597
	c5.384,4.486,7.772,5.666,13.21,4.827c7.191-1.106,8.637-9.354,9.499-14.28c0.954-5.451,6.11-18.472,7.483-21.884
	c2.532-1.749,10.907-7.712,21.393-17.063c12.715-11.34,23.14-22.807,32.687-41.896c6.178-12.355,9.251-22.63,10.96-36.645
	C273.624,150.531,272.793,136.776,269.572,124.253z"/>
<g>
	<path fill="#A75214" d="M245.644,98.829c-2.233,0-4.338-0.311-6.253-0.924c-7.289-2.333-11.501-5.174-13.655-9.213
		c-1.149-2.158-1.181-4.774-0.082-7.178c1.35-2.952,4.21-5.181,7.653-5.963c1.343-0.305,2.784-0.46,4.287-0.46
		c5.209,0,11.8,1.966,14.68,7.485c3.246,6.223,2.497,13.114,2.464,13.405c-0.089,0.764-0.605,1.409-1.333,1.661
		C253.264,97.688,249.921,98.829,245.644,98.829z M237.594,79.09c-1.188,0-2.363,0.125-3.4,0.36
		c-2.234,0.508-4.067,1.901-4.901,3.726c-0.584,1.279-0.594,2.569-0.026,3.633c1.604,3.008,5.209,5.323,11.345,7.287
		c1.521,0.486,3.215,0.733,5.034,0.733c2.135,0,4.014-0.343,5.186-0.621c0.029-2.042-0.192-6.124-2.103-9.783
		C246.672,80.487,241.445,79.09,237.594,79.09z"/>
</g>
<g>
	<path fill="#A75214" d="M184.357,98.829C184.356,98.829,184.356,98.829,184.357,98.829c-4.277,0-7.621-1.14-7.762-1.188
		c-0.727-0.251-1.244-0.897-1.333-1.661c-0.033-0.291-0.782-7.182,2.464-13.405c2.88-5.519,9.471-7.485,14.68-7.485
		c1.504,0,2.944,0.155,4.287,0.46c3.443,0.783,6.306,3.012,7.653,5.963c1.099,2.404,1.068,5.02-0.082,7.178
		c-2.154,4.039-6.366,6.881-13.655,9.213C188.694,98.518,186.591,98.829,184.357,98.829z M179.172,94.208
		c1.171,0.278,3.049,0.62,5.185,0.621h0.001c1.819,0,3.514-0.247,5.033-0.733c6.136-1.963,9.74-4.279,11.345-7.287
		c0.567-1.063,0.559-2.354-0.025-3.633c-0.834-1.825-2.667-3.217-4.902-3.726c-1.037-0.236-2.213-0.36-3.399-0.36
		c-3.853,0-9.078,1.397-11.134,5.335C179.364,88.083,179.143,92.165,179.172,94.208z"/>
</g>
<circle fill="#A75214" cx="190.333" cy="82.667" r="4.5"/>
<circle fill="#A75214" cx="238.833" cy="82.667" r="4.5"/>
<g>
	<path d="M225.393,76.38c4,3.833-2.668,12.5-11,12.5c-8.334,0-15-8.667-11-12.5c2.168-2.079,5.173-4.15,11.146-4.15
		C220.512,72.23,223.222,74.301,225.393,76.38z"/>
	<ellipse fill="#FEB761" cx="214.391" cy="79.167" rx="6.701" ry="1.787"/>
</g>
<g opacity="0.2">
	<path d="M203.999,62c-0.641,0-1.234-0.415-1.433-1.06l-10-32.5c-0.244-0.792,0.2-1.631,0.992-1.875
		c0.792-0.242,1.632,0.2,1.875,0.993l10,32.5c0.244,0.792-0.2,1.631-0.992,1.875C204.294,61.979,204.146,62,203.999,62z"/>
</g>
<g opacity="0.2">
	<path d="M192.668,54.667c-0.318,0-0.632-0.152-0.825-0.434l-5.833-8.5c-0.313-0.456-0.197-1.078,0.259-1.391
		c0.456-0.312,1.078-0.196,1.39,0.259l5.833,8.5c0.313,0.456,0.197,1.078-0.259,1.391C193.06,54.61,192.864,54.667,192.668,54.667z"
		/>
</g>
<g opacity="0.2">
	<path d="M212.499,53.167c-0.51,0-0.945-0.387-0.994-0.905l-1.5-15.667c-0.053-0.55,0.35-1.038,0.899-1.091
		c0.572-0.053,1.039,0.351,1.091,0.9l1.5,15.667c0.053,0.55-0.35,1.038-0.899,1.091C212.563,53.165,212.531,53.167,212.499,53.167z"
		/>
</g>
<g opacity="0.2">
	<path d="M222.836,53.667c-0.051,0-0.103-0.002-0.154-0.008c-0.824-0.084-1.424-0.82-1.34-1.645l1.666-16.333
		c0.084-0.824,0.82-1.42,1.645-1.34c0.824,0.084,1.424,0.82,1.34,1.645l-1.666,16.333C224.247,53.091,223.596,53.667,222.836,53.667
		z"/>
</g>
<g opacity="0.2">
	<path d="M231,61.75c-0.186,0-0.374-0.035-0.557-0.108c-0.77-0.308-1.144-1.181-0.836-1.95l13.5-33.75
		c0.308-0.769,1.182-1.143,1.949-0.835c0.77,0.308,1.144,1.181,0.836,1.95l-13.5,33.75C232.158,61.394,231.595,61.75,231,61.75z"/>
</g>
<g opacity="0.2">
	<path d="M242.999,60c-0.188,0-0.379-0.053-0.548-0.164c-0.462-0.304-0.59-0.923-0.287-1.385l11.5-17.5
		c0.305-0.461,0.925-0.588,1.385-0.287c0.462,0.304,0.59,0.923,0.287,1.385l-11.5,17.5C243.644,59.841,243.324,60,242.999,60z"/>
</g>
</svg>
