<?xml version="1.0" encoding="utf-8"?>
<!-- Generator: Adobe Illustrator 15.1.0, SVG Export Plug-In . SVG Version: 6.00 Build 0)  -->
<!DOCTYPE svg PUBLIC "-//W3C//DTD SVG 1.1//EN" "http://www.w3.org/Graphics/SVG/1.1/DTD/svg11.dtd">
<svg version="1.1" id="Layer_2" xmlns="http://www.w3.org/2000/svg" xmlns:xlink="http://www.w3.org/1999/xlink" x="0px" y="0px"
	 width="302px" height="302px" viewBox="0 0 302 302" enable-background="new 0 0 302 302" xml:space="preserve">
<g>
	<ellipse opacity="0.2" enable-background="new    " cx="151" cy="264.083" rx="122.706" ry="32.667"/>
	<path fill="#8F7D89" d="M287.75,246.5c0,26.924-72.271,38.75-136.75,38.75S14.25,273.424,14.25,246.5S86.521,187.75,151,187.75
		S287.75,219.576,287.75,246.5z"/>
	<g>
		<path fill="#6E5642" d="M151,288.25c-51.906,0-139.75-8.793-139.75-41.75c0-14.164,16.767-29.555,46.002-42.223
			C85.468,192.051,120.513,184.75,151,184.75c30.487,0,65.533,7.301,93.748,19.527c29.234,12.668,46.002,28.059,46.002,42.223
			C290.75,279.457,202.906,288.25,151,288.25z M151,190.75c-66.351,0-133.75,32.436-133.75,55.75
			c0,10.588,14.881,20.018,41.901,26.557c24.148,5.842,57.626,9.193,91.849,9.193s67.7-3.352,91.85-9.193
			c27.02-6.539,41.9-15.969,41.9-26.557C284.75,223.186,217.352,190.75,151,190.75z"/>
	</g>
	<path fill="#DCD5C6" d="M205.25,213.75v-92.5c0-27.062-21.938-49-49-49h-11.5c-27.062,0-49,21.938-49,49v92.5H205.25z"/>
	<g>
		<path fill="#AB9E89" d="M205.25,216.75H95.75c-1.657,0-3-1.342-3-3v-92.5c0-28.673,23.327-52,52-52h11.5c28.673,0,52,23.327,52,52
			v92.5C208.25,215.408,206.907,216.75,205.25,216.75z M98.75,210.75h103.5v-89.5c0-25.364-20.636-46-46-46h-11.5
			c-25.364,0-46,20.636-46,46V210.75z"/>
	</g>
	<g>
		<g>
			<path fill="#18763D" d="M92.332,223.75c-1.282,0-2.469-0.828-2.866-2.117c-0.098-0.316-10.017-31.924-30.116-49.631
				c-1.244-1.096-1.363-2.992-0.268-4.234s2.992-1.361,4.234-0.268c21.39,18.842,31.466,51.008,31.884,52.369
				c0.487,1.582-0.401,3.26-1.984,3.748C92.922,223.707,92.624,223.75,92.332,223.75z"/>
		</g>
		<g>
			<path fill="#18763D" d="M83.333,224.752c-1.227,0-2.379-0.76-2.821-1.98c-9.708-26.813-28.14-28.016-28.325-28.025
				c-1.655-0.08-2.931-1.486-2.851-3.143c0.081-1.654,1.495-2.957,3.143-2.85c0.918,0.045,22.622,1.449,33.675,31.975
				c0.564,1.559-0.242,3.279-1.799,3.842C84.017,224.693,83.672,224.752,83.333,224.752z"/>
		</g>
		<g>
			<path fill="#18763D" d="M208.669,223.75c1.281,0,2.469-0.828,2.865-2.117c0.098-0.316,10.018-31.924,30.116-49.631
				c1.243-1.096,1.363-2.992,0.269-4.234c-1.096-1.242-2.992-1.361-4.234-0.268c-21.39,18.842-31.466,51.008-31.885,52.369
				c-0.486,1.582,0.401,3.26,1.984,3.748C208.079,223.707,208.376,223.75,208.669,223.75z"/>
		</g>
		<g>
			<path fill="#18763D" d="M217.667,224.752c1.228,0,2.379-0.76,2.821-1.98c9.708-26.813,28.14-28.016,28.325-28.025
				c1.655-0.08,2.932-1.486,2.851-3.143c-0.081-1.654-1.495-2.957-3.143-2.85c-0.919,0.045-22.622,1.449-33.675,31.975
				c-0.564,1.559,0.242,3.279,1.799,3.842C216.984,224.693,217.328,224.752,217.667,224.752z"/>
		</g>
	</g>
	<path fill="#DCD5C6" d="M217.75,233.918c0,3.221-2.272,5.832-5.075,5.832H88.326c-2.803,0-5.076-2.611-5.076-5.832v-16.334
		c0-3.223,2.272-5.834,5.076-5.834h124.349c2.803,0,5.075,2.611,5.075,5.834V233.918z"/>
	<g>
		<path fill="#AB9E89" d="M212.675,242.75H88.326c-4.453,0-8.076-3.963-8.076-8.832v-16.334c0-4.871,3.623-8.834,8.076-8.834
			h124.349c4.453,0,8.075,3.963,8.075,8.834v16.334C220.75,238.787,217.128,242.75,212.675,242.75z M88.326,214.75
			c-1.125,0-2.076,1.297-2.076,2.834v16.334c0,1.535,0.951,2.832,2.076,2.832h124.349c1.125,0,2.075-1.297,2.075-2.832v-16.334
			c0-1.537-0.95-2.834-2.075-2.834H88.326z"/>
	</g>
	<g>
		<g>
			<path fill="#AB9E89" d="M141.493,155.75c-0.75,0-1.501-0.279-2.083-0.842l-10.916-10.54v7.881c0,1.658-1.343,3-3,3s-3-1.342-3-3
				v-27.5c0-1.335,0.882-2.509,2.164-2.881c0.986-0.287,9.799-2.68,15.48,1.404c1.874,1.347,4.151,3.977,4.354,8.852
				c0.209,5.019-1.879,7.628-3.667,8.934c-1.539,1.123-3.361,1.665-5.194,1.86l7.948,7.673c1.192,1.15,1.225,3.05,0.074,4.242
				C143.063,155.443,142.279,155.75,141.493,155.75z M128.494,136.092c2.306,0.736,6.817,1.57,8.797,0.117
				c0.328-0.24,1.325-0.971,1.206-3.834c-0.083-2.002-0.69-3.384-1.854-4.225c-2.05-1.479-5.655-1.346-8.148-0.968V136.092z"/>
		</g>
		<g>
			<path fill="#AB9E89" d="M151.994,155.75c-1.657,0-3-1.342-3-3v-28.5c0-1.657,1.343-3,3-3c1.656,0,3,1.343,3,3v28.5
				C154.994,154.408,153.651,155.75,151.994,155.75z"/>
		</g>
		<g>
			<path fill="#AB9E89" d="M163.494,155.25c-1.657,0-3-1.342-3-3v-27.5c0-1.335,0.882-2.509,2.163-2.881
				c0.986-0.287,9.8-2.68,15.48,1.404c1.874,1.347,4.15,3.977,4.354,8.852c0.209,5.019-1.879,7.628-3.667,8.934
				c-3.737,2.727-9.145,2.026-12.33,1.258v9.933C166.494,153.908,165.152,155.25,163.494,155.25z M166.494,136.092
				c2.307,0.736,6.817,1.569,8.797,0.117c0.327-0.24,1.325-0.971,1.206-3.834c-0.084-2.002-0.69-3.384-1.854-4.225
				c-2.05-1.481-5.658-1.347-8.148-0.968V136.092z"/>
		</g>
	</g>
</g>
</svg>
