<?xml version="1.0" encoding="utf-8"?>
<!-- Generator: Adobe Illustrator 15.1.0, SVG Export Plug-In . SVG Version: 6.00 Build 0)  -->
<!DOCTYPE svg PUBLIC "-//W3C//DTD SVG 1.1//EN" "http://www.w3.org/Graphics/SVG/1.1/DTD/svg11.dtd">
<svg version="1.1" id="Layer_2" xmlns="http://www.w3.org/2000/svg" xmlns:xlink="http://www.w3.org/1999/xlink" x="0px" y="0px"
	 width="302px" height="302px" viewBox="0 0 302 302" enable-background="new 0 0 302 302" xml:space="preserve">
<ellipse opacity="0.2" cx="153.298" cy="272" rx="125.87" ry="19.833"/>
<path fill="#F68634" d="M48,164.25c0,0,17-21.5,33.75-35.75S116.5,98.75,147.5,98s64.75,17.5,85.75,54.5
	s24.833,60.334,28.833,76.834C265.687,244.2,266.75,252.5,267.5,258s1.513,12.701-3.75,15.334
	c-2.333,1.167-10.083,4.916-33.5-17.834c-2.75,1.5-8.5,4.75-8.5,4.75s2.5,2.75,4.25,4.5s6.25,9.25,1.5,11.5s-18,6-37-0.5
	c-11.25-3.5-11.25-3.5-11.25-3.5s-42.25,7.5-84.5,7.5s-46.75-4-49.75-14.5c-7-8.25-15-21.25-16-56C27.25,177.5,27,162,31,156
	s11.5,1,13.5,3.75S48,164.25,48,164.25z"/>
<path fill="#F68634" d="M244,173.25c0,0,8.75,18,14.25,20.75s8-0.25,10.75-1.5s7.75-0.5,8.25,7.75s-3.25,14.5-8,17.5
	s-8.5,3.25-8.5,3.25L244,173.25z"/>
<path fill="#FEB761" d="M165.834,266.5c0,0,14.814,3.931,5.333,7c-10.542,3.412-46.205,6-62,6c-14.685,0-46.439-0.088-55.667-3.333
	c-9.624-3.384,3.546-9.966,1.333-11.667c-4.333-3.333-11.333-14,1.667-22s31.333-5.666,38.333-4s11.667,5.334,13,15.334
	c1.146,8.597,18.674,11.563,34.163,12.495C154.589,267.087,165.834,266.5,165.834,266.5z"/>
<g>
	<path fill="#A75214" d="M71.748,213.5c-1.054,0-1.937-0.825-1.995-1.891c-0.011-0.2-0.263-4.951,0.271-8.413
		c0.523-3.4,1.79-6.969,1.843-7.119c0.371-1.039,1.513-1.582,2.555-1.211c1.04,0.371,1.583,1.516,1.212,2.556
		c-0.012,0.033-1.193,3.367-1.657,6.382c-0.469,3.048-0.232,7.542-0.229,7.588c0.06,1.103-0.786,2.045-1.888,2.105
		C71.822,213.499,71.785,213.5,71.748,213.5z"/>
</g>
<g>
	<path fill="#A75214" d="M77.25,213.5c-1.104,0-2-0.896-2-2c0-2.011,1.468-6.43,2.393-8.743c0.411-1.024,1.576-1.52,2.6-1.114
		c1.026,0.411,1.524,1.574,1.114,2.601c-1.063,2.658-2.107,6.253-2.107,7.257C79.25,212.604,78.355,213.5,77.25,213.5z"/>
</g>
<g>
	<path fill="#A75214" d="M58.752,216.25c-0.708,0-1.395-0.377-1.758-1.042l-3-5.5c-2.796-5.126-5.139-7.524-5.163-7.548
		c-0.775-0.784-0.771-2.05,0.011-2.826c0.782-0.777,2.043-0.776,2.822,0.002c0.11,0.11,2.739,2.769,5.842,8.456l3,5.5
		c0.529,0.97,0.171,2.185-0.798,2.714C59.404,216.172,59.075,216.25,58.752,216.25z"/>
</g>
<g>
	<path fill="#A75214" d="M52.251,215.75c-0.548,0-1.094-0.224-1.489-0.664c-0.029-0.032-2.898-3.228-4.342-4.672
		c-1.409-1.408-3.168-2.852-3.186-2.866c-0.854-0.699-0.98-1.96-0.281-2.814c0.7-0.855,1.958-0.98,2.814-0.281
		c0.078,0.063,1.928,1.581,3.481,3.134c1.521,1.521,4.371,4.694,4.491,4.828c0.738,0.822,0.669,2.087-0.152,2.824
		C53.204,215.581,52.727,215.75,52.251,215.75z"/>
</g>
<g>
	<path fill="#A75214" d="M84.496,226.167c-1.508,0-2.807-1.135-2.978-2.669c-0.183-1.646,1.002-3.128,2.647-3.313l0,0
		c0.058-0.007,5.867-0.687,14.75-3.542c9.102-2.925,14.088-4.909,14.138-4.929c1.54-0.618,3.284,0.133,3.899,1.672
		c0.615,1.538-0.133,3.283-1.671,3.898c-0.208,0.084-5.204,2.073-14.53,5.071c-9.511,3.057-15.663,3.764-15.92,3.792
		C84.719,226.161,84.607,226.167,84.496,226.167z"/>
</g>
<g>
	<path fill="#A75214" d="M55.838,229.5c-0.107,0-0.215-0.006-0.323-0.017c-0.765-0.082-18.747-2.009-21.105-2.347l-2.334-0.334
		c-1.64-0.234-2.779-1.755-2.544-3.395s1.757-2.778,3.395-2.545l2.334,0.334c1.804,0.258,14.456,1.63,20.894,2.319
		c1.647,0.177,2.84,1.655,2.664,3.303C58.652,228.358,57.351,229.5,55.838,229.5z"/>
</g>
<path fill="#A75214" d="M98.632,262.851c-9.919-6.807-15.158-10.042-19.727-10.023l-3.028-4.239c-0.642-0.9-1.891-1.107-2.79-0.466
	c-0.899,0.643-1.107,1.892-0.465,2.79l2.069,2.896c-5.664,2.746-4.343,12.828-4.169,13.988c0.149,0.991,1.001,1.702,1.975,1.702
	c0.098,0,0.197-0.007,0.297-0.021c1.092-0.163,1.845-1.181,1.684-2.272c-0.409-2.764-0.446-8.812,2.048-9.861
	c0.394-0.166,0.787-0.288,1.187-0.377c0.096,0.014,0.191,0.033,0.289,0.033c0.255,0,0.506-0.067,0.75-0.167
	c3.117-0.113,7.313,2.244,17.617,9.316c0.911,0.624,2.156,0.392,2.781-0.518C99.774,264.721,99.543,263.476,98.632,262.851z"/>
<g>
	<path fill="#A75214" d="M126.003,258.75c-0.108,0-0.217-0.009-0.327-0.026l-19.75-3.25c-1.09-0.18-1.828-1.208-1.649-2.299
		c0.18-1.089,1.207-1.826,2.298-1.648l19.75,3.25c1.09,0.18,1.828,1.208,1.649,2.299C127.812,258.055,126.964,258.75,126.003,258.75
		z"/>
</g>
<g>
	<path fill="#A75214" d="M127.251,267.501c-0.178,0-0.359-0.024-0.539-0.074l-21.5-6c-1.064-0.297-1.686-1.4-1.389-2.465
		c0.297-1.063,1.399-1.683,2.464-1.389l21.5,6c1.064,0.297,1.686,1.4,1.389,2.465C128.93,266.922,128.126,267.501,127.251,267.501z"
		/>
</g>
<g>
	<path fill="#A75214" d="M260.747,224c-1.566,0-2.885-1.215-2.99-2.801c-0.11-1.653,1.141-3.082,2.794-3.192
		c0.005-0.001,3.137-0.292,7.098-2.793c3.493-2.207,7.063-7.249,6.607-14.782c-0.158-2.604-0.871-4.472-1.956-5.125
		c-0.707-0.424-1.55-0.307-2.059-0.075c-0.404,0.184-0.872,0.461-1.367,0.755c-2.433,1.443-6.106,3.626-11.966,0.697
		c-6.102-3.052-14.07-18.963-15.606-22.122c-0.725-1.49-0.104-3.285,1.387-4.01c1.485-0.725,3.284-0.104,4.01,1.387
		c3.451,7.095,9.732,17.798,12.894,19.378c2.927,1.467,4.167,0.729,6.22-0.489c0.612-0.363,1.244-0.739,1.947-1.059
		c2.486-1.132,5.343-0.981,7.635,0.397c2.013,1.212,4.488,3.913,4.851,9.902c0.515,8.487-3.084,16.234-9.393,20.218
		c-5.241,3.311-9.44,3.677-9.902,3.707C260.882,223.998,260.815,224,260.747,224z"/>
</g>
<path fill="#FEB761" d="M230,255c0,0-16.166-18.501-19.833-24.167s-8.334-15.666-8.334-15.666s-0.666,24.166-3.999,27.166
	c0,0,2.666,2.167,9.666,8.167s14,9.25,14,9.25L230,255z"/>
<g>
	<path fill="#A75214" d="M94.5,282.25c-40.91,0-48.694-3.634-52.451-16.051c-7.572-9.091-15.314-23.18-16.298-57.363
		c-1.925-34.909-1.838-48.49,2.502-55c2.037-3.056,4.688-3.697,6.552-3.697c5.354,0,10.384,5.304,11.871,7.347
		c0.386,0.531,0.754,1.024,1.094,1.474c5.278-6.416,18.498-21.939,31.786-33.244l0.36-0.307
		c16.603-14.126,35.421-30.137,67.261-30.907c16.683-0.421,33.769,4.492,49.167,14.09c15.659,9.761,29.236,24.259,39.265,41.928
		c18.892,33.286,24.041,55.605,27.802,71.902c0.459,1.992,0.897,3.891,1.338,5.706c3.499,14.436,4.634,22.786,5.384,28.312
		l0.09,0.656c0.701,5.146,2.008,14.726-5.381,18.422c-0.83,0.416-2.559,1.28-5.337,1.281c-7.243,0-17.326-6.089-29.99-18.104
		c-1.039,0.577-2.186,1.22-3.226,1.803c0.54,0.569,1.094,1.145,1.582,1.633c1.449,1.449,5.179,6.864,4.378,11.49
		c-0.375,2.165-1.694,3.885-3.715,4.842c-2.174,1.03-8.254,3.425-17.734,3.426c-6.913,0-14.153-1.277-21.521-3.798l-10.481-3.26
		C172.991,275.813,133.511,282.25,94.5,282.25z M34.806,156.139c-0.306,0-0.876,0-1.56,1.025c-3.717,5.575-2.966,24.829-1.5,51.421
		c0.951,33.03,8.264,45.941,15.292,54.224c0.276,0.326,0.479,0.707,0.597,1.117c2.271,7.946,3.521,12.324,46.865,12.324
		c41.506,0,83.556-7.379,83.976-7.454c0.473-0.083,0.957-0.055,1.416,0.09l11.25,3.5c6.82,2.332,13.407,3.501,19.658,3.501
		c8.495-0.001,13.756-2.18,15.166-2.848c0.309-0.146,0.335-0.236,0.371-0.444c0.284-1.64-1.618-5.133-2.708-6.224
		c-1.78-1.78-4.245-4.488-4.349-4.604c-0.614-0.675-0.887-1.593-0.742-2.493c0.145-0.901,0.691-1.688,1.485-2.136
		c0.236-0.134,5.802-3.278,8.54-4.772c1.153-0.629,2.584-0.436,3.527,0.482c16.075,15.617,24.076,17.949,27.414,17.949
		c1.36-0.001,2.107-0.374,2.653-0.646c3.273-1.638,2.842-6.948,2.119-12.246l-0.09-0.659c-0.734-5.403-1.844-13.57-5.271-27.705
		c-0.444-1.837-0.888-3.757-1.353-5.771c-3.677-15.938-8.713-37.765-27.174-70.29c-18.556-32.693-49.709-53.002-81.302-53.002
		c-0.589,0-1.179,0.007-1.766,0.021c-29.716,0.719-46.9,15.34-63.518,29.479l-0.361,0.307
		c-16.324,13.887-33.172,35.113-33.341,35.326c-0.556,0.703-1.397,1.12-2.294,1.138c-0.896,0.053-1.753-0.366-2.337-1.047
		c-0.064-0.075-1.602-1.873-3.648-4.688C40.378,159.026,36.926,156.139,34.806,156.139z"/>
</g>
<path fill="#F68634" d="M182.25,233.25c0,0,13,7.5,21,13.75s19.25,13.5,22.5,17.25s5,8.5-0.25,11.75s-12.5,3.5-21,2.75
	s-19.5-4.5-26.5-7c-9.313-3.326-24.25-12-24.25-12L182.25,233.25z"/>
<g>
	<path fill="#A75214" d="M211.565,281.107c-2.445,0-4.892-0.158-7.24-0.365c-8.349-0.736-18.813-4.186-26.997-7.108
		c-9.378-3.35-23.965-11.796-24.581-12.154c-0.956-0.555-1.28-1.778-0.726-2.733c0.555-0.956,1.778-1.28,2.733-0.726
		c0.148,0.086,14.888,8.62,23.919,11.846c7.959,2.843,18.106,6.194,26.003,6.892c9.691,0.856,15.605,0.12,19.771-2.458
		c1.413-0.875,2.183-1.841,2.353-2.953c0.236-1.553-0.673-3.608-2.562-5.787c-1.886-2.176-7.015-5.863-12.445-9.768
		c-3.325-2.392-6.763-4.863-9.774-7.216c-7.799-6.094-20.64-13.52-20.768-13.594c-0.957-0.552-1.285-1.775-0.733-2.731
		c0.551-0.958,1.774-1.287,2.731-0.733c0.536,0.31,13.214,7.643,21.232,13.906c2.948,2.304,6.354,4.752,9.647,7.12
		c5.87,4.221,10.939,7.866,13.133,10.396c2.707,3.123,3.914,6.238,3.492,9.009c-0.352,2.309-1.766,4.243-4.201,5.751
		C222.273,280.35,216.923,281.106,211.565,281.107z"/>
</g>
<g>
	<path fill="#A75214" d="M258.874,275.639c-3.163,0-6.586-1.134-11.653-4.174c-7.604-4.563-25.656-23.229-34.554-34.742
		c-8.849-11.452-13.568-22.732-13.765-23.207c-0.423-1.021,0.062-2.19,1.082-2.613c1.021-0.424,2.189,0.063,2.613,1.082
		c0.046,0.111,4.727,11.281,13.235,22.293c8.611,11.145,26.378,29.517,33.446,33.758c7.073,4.245,9.775,4.103,13.868,2.808
		c1.561-0.493,3.064-3.989,1.367-17.85c-0.134-1.097,0.646-2.094,1.742-2.229c1.101-0.129,2.094,0.646,2.229,1.742
		c1.475,12.046,1.337,20.423-4.133,22.15C262.436,275.263,260.698,275.639,258.874,275.639z"/>
</g>
<path fill="#A75214" d="M53.236,160.306c2.668-2.564,6.138-5.375,10.207-7.594c5.132-2.795,11.322-4.164,17.138-4.215
	c7.006-0.065,22.933,7.114,25.728-3.518c1.606-6.11-6.493-8.418-11.129-8.822c-6.597-0.579-13.302,0.655-19.425,3.107
	c-3.167,1.27-6.191,2.879-9.059,4.725c-0.852,0.548-1.922,1.167-3.006,1.849c2.78-3.405,5.737-6.729,8.86-9.952
	c0.809-0.4,1.678-0.861,2.592-1.394c9.967-5.817,24.151-5.643,34.8-2.038c6.735,2.281,10.633,1.776,13.265-0.59
	c4.619-4.15,0.77-7.476-3.61-9.622c-5.265-2.579-10.99-3.046-16.801-2.995c-6.033,0.056-14.19,3.567-18.343,5.561
	c4.191-3.508,8.488-6.728,12.858-9.647c12.333-4.275,24.005-2.958,34.195,2.261c6.587,3.374,9.547,2.567,11.401,0.364
	c4.857-5.772-7.208-10.714-11.467-11.693c-4.207-0.967-10.212-1.915-15.432-1.43c0,0-7.258,1.503-13.424,5.336
	s-16.5,12.167-25.333,20.167s-15.834,15.501-20.167,22.167S53.236,160.306,53.236,160.306z"/>
<g opacity="0.2">
	<path fill="none" d="M48.997,102.91c-1.153,0.151-2.31,0.312-3.469,0.492c-0.358,0.849-0.716,1.698-1.076,2.545
		c-0.238,0.561-0.473,1.119-0.71,1.679c1.142,0.09,2.269,0.198,3.388,0.311c0.475-1.415,1.013-2.818,1.551-4.204
		C48.79,103.455,48.891,103.185,48.997,102.91z"/>
	<path d="M68.438,97.936c-0.235-0.966-1.211-1.557-2.177-1.323c-3.959,0.968-7.897,1.507-12.008,2.015
		c0.153-0.582,0.289-1.162,0.396-1.74c0.181-0.979-0.467-1.918-1.445-2.098c-0.986-0.181-1.917,0.467-2.098,1.445
		c-0.173,0.937-0.443,1.896-0.75,2.87c-1.066,0.132-2.139,0.271-3.215,0.42c0.066-0.162,0.135-0.323,0.201-0.485
		c0.374-0.922-0.07-1.973-0.993-2.347c-0.923-0.374-1.973,0.071-2.347,0.992c-0.336,0.828-0.682,1.656-1.027,2.484
		c-1.951,0.341-3.909,0.746-5.863,1.253c-0.962,0.25-1.541,1.233-1.291,2.197c0.21,0.812,0.941,1.349,1.743,1.349
		c0.149,0,0.302-0.019,0.454-0.058c1.088-0.283,2.183-0.528,3.281-0.753c-0.054,0.127-0.107,0.255-0.161,0.382
		c-0.407,0.961-0.814,1.92-1.217,2.877c-0.667-0.021-1.335-0.046-2.011-0.046c-0.015,0-0.031,0-0.047,0
		c-0.995,0.001-1.8,0.808-1.8,1.803c0.001,0.995,0.808,1.8,1.802,1.8c0.011,0.002,0.029,0,0.045,0c0.194,0,0.388,0.012,0.583,0.014
		c-0.13,0.809,0.302,1.629,1.092,1.954c0.224,0.092,0.455,0.135,0.682,0.135c0.71,0,1.383-0.422,1.668-1.119
		c0.111-0.271,0.227-0.545,0.34-0.816c1.296,0.086,2.586,0.191,3.861,0.316c-0.363,1.664-0.559,3.342-0.459,5.028
		c0.057,0.957,0.85,1.696,1.796,1.696c0.036,0,0.072-0.001,0.107-0.003c0.994-0.059,1.751-0.912,1.692-1.905
		c-0.084-1.435,0.12-2.928,0.481-4.446c3.233,0.334,6.556,0.649,9.962,0.649c0.024,0,0.048,0,0.072,0
		c0.995-0.001,1.8-0.809,1.799-1.804c-0.001-0.994-0.808-1.799-1.802-1.799c0,0-0.001,0-0.002,0
		c-3.011,0.029-5.948-0.243-8.969-0.557c0.387-1.097,0.808-2.194,1.229-3.28c0.337-0.868,0.676-1.747,0.999-2.629
		c4.617-0.561,9.387-1.147,14.077-2.292C68.083,99.877,68.675,98.902,68.438,97.936z M43.743,107.626
		c0.237-0.56,0.472-1.118,0.71-1.679c0.36-0.847,0.718-1.697,1.076-2.545c1.159-0.18,2.315-0.34,3.469-0.492
		c-0.106,0.275-0.208,0.544-0.316,0.822c-0.538,1.386-1.076,2.79-1.551,4.204C46.011,107.824,44.885,107.716,43.743,107.626z"/>
</g>
<path fill="#F68634" d="M136.25,186.25c0,0-4-18.75-13.75-31.5s-18.25-19.25-22.75-19.25S89.75,148,89,157.75S88.249,175,88.249,175
	L136.25,186.25z"/>
<path fill="#A75214" d="M138.448,185.794c-0.166-0.708-4.174-17.512-13.812-31.195c-8.469-12.024-20.257-22.333-25.237-22.096
	c-5.278,0.269-9.101,6.279-11.361,17.865c-1.063,5.443-1.504,11.298-1.683,15.698c-3.114,0.125-9.647,0.455-15.603,1.2
	c-6.258,0.782-13.11,3.414-16.189,4.701l-7.348-12.246c-0.568-0.947-1.797-1.255-2.744-0.686c-0.947,0.568-1.388-0.368-3.02,1.41
	l8.25,13.75c2.048,3.43,3.24,2.555,3.923,2.555c0.28,0,0.69-0.309,0.96-0.433c0.09-0.041,9.058-4.132,16.663-5.083
	c5.587-0.698,11.848-1.027,15-1.159c-0.021,1.728,0,2.822,0.002,2.967c0.022,1.09,0.914,1.958,1.999,1.958
	c0.014,0,0.028,0,0.042-0.001c1.104-0.022,1.981-0.937,1.958-2.04c-0.002-0.118-0.221-11.914,1.713-21.826
	c1.785-9.145,4.569-14.479,7.639-14.635c2.145-0.133,12.663,7.483,21.763,20.404c9.18,13.033,13.149,29.639,13.188,29.805
	c0.216,0.922,1.038,1.544,1.946,1.544c0.151,0,0.305-0.018,0.458-0.053C138.032,187.945,138.699,186.869,138.448,185.794z"/>
<path fill="#FEB761" d="M102,175c1.25,1.25,3.75,0.5,8.5,2s9,5,11.75,4.25c1.25-1.75-4.75-11-12.5-20.25s-8.027-5.733-8.5-1
	C100.75,165,100.75,173.75,102,175z"/>
<path fill="#FEB761" d="M31.5,191.75c0.25,1.75,1.25,2.75,3,0.25s6-7.25,7-8.75S41.25,180,38.75,176s-4.75-8-6-3.25
	S31.5,191.75,31.5,191.75z"/>
<g>
	<g>
		<path fill="#A75214" d="M33.752,268.5c-0.748,0-1.464-0.42-1.807-1.14c-0.475-0.998-0.051-2.191,0.946-2.666l15.75-7.5
			c0.996-0.476,2.19-0.053,2.666,0.945c0.475,0.998,0.051,2.191-0.946,2.666l-15.75,7.5C34.333,268.438,34.04,268.5,33.752,268.5z"
			/>
	</g>
</g>
<g>
	<path fill="#A75214" d="M41.502,275c-0.657,0-1.301-0.323-1.684-0.917c-0.598-0.929-0.33-2.166,0.599-2.765l14.75-9.5
		c0.929-0.599,2.167-0.33,2.765,0.599c0.598,0.929,0.33,2.166-0.599,2.765l-14.75,9.5C42.248,274.897,41.873,275,41.502,275z"/>
</g>
<g>
	<path d="M74.779,236.316c2.296-0.422,4.409-0.891,6.92,0.763c4.626,3.047,1.497,12.165-6.698,13.671
		c-8.196,1.505-17.722-6.106-14.833-10.833c1.221-1.998,3.203-1.989,5.018-2.136C68.423,237.52,71.595,236.943,74.779,236.316z"/>
	
		<ellipse transform="matrix(-0.148 -0.989 0.989 -0.148 -156.8267 347.1761)" fill="#FEB761" cx="71.132" cy="241.141" rx="1.788" ry="6.7"/>
</g>
<path fill="none" stroke="#A75214" stroke-width="4" stroke-linecap="round" stroke-linejoin="round" stroke-miterlimit="10" d="
	M47.195,179.871c0,0,3.638-3.638,7.383-5.671"/>
<g opacity="0.2">
	<path d="M79.507,91.733c-1.429,0-2.819-0.585-4.095-1.123c-1.987-0.836-3.295-1.32-4.505-0.574c-0.065,0.043-0.13,0.086-0.194,0.13
		c-0.68,0.459-1.604,0.287-2.072-0.387c-0.468-0.674-0.308-1.599,0.36-2.077c0.103-0.073,0.206-0.142,0.308-0.207
		c2.577-1.703,5.033-2.784,7.412-3.83c0.699-0.308,1.379-0.607,2.054-0.917c-1.387-0.555-3.371-0.81-4.737-0.986
		c-1.073-0.138-2-0.257-2.678-0.469c-0.791-0.248-1.231-1.089-0.983-1.88c0.248-0.791,1.086-1.23,1.88-0.983
		c0.425,0.133,1.27,0.242,2.164,0.356c2.924,0.376,6.929,0.89,8.43,3.541c0.201,0.354,0.249,0.775,0.133,1.165
		c-0.116,0.39-0.385,0.717-0.746,0.905c-1.463,0.762-2.91,1.398-4.309,2.014c-0.782,0.344-1.55,0.682-2.313,1.037
		c0.33,0.13,0.651,0.266,0.961,0.396c1.73,0.729,2.841,1.14,3.705,0.71c0.742-0.369,1.642-0.067,2.012,0.674
		c0.369,0.742,0.067,1.642-0.674,2.012C80.911,91.594,80.204,91.733,79.507,91.733z"/>
</g>
<g opacity="0.2">
	<path d="M98.763,81.214c-1.089,0-2.157-0.451-3.138-0.864c-1.605-0.676-2.664-1.066-3.679-0.439
		c-0.053,0.035-0.106,0.071-0.16,0.107c-0.454,0.305-1.069,0.191-1.381-0.258c-0.312-0.45-0.205-1.066,0.24-1.385
		c0.076-0.054,0.152-0.105,0.228-0.153c2.006-1.327,3.924-2.17,5.781-2.987c0.642-0.282,1.297-0.571,1.954-0.879
		c-1.091-0.553-2.835-0.777-4.103-0.94c-0.831-0.106-1.548-0.199-2.063-0.36c-0.527-0.165-0.82-0.726-0.655-1.253
		c0.166-0.527,0.728-0.819,1.253-0.655c0.347,0.108,1.014,0.194,1.721,0.285c2.251,0.29,5.334,0.686,6.465,2.686
		c0.133,0.236,0.165,0.516,0.088,0.776c-0.077,0.26-0.257,0.478-0.498,0.603c-1.139,0.592-2.267,1.089-3.357,1.568
		c-0.74,0.326-1.465,0.645-2.186,0.988c0.392,0.143,0.771,0.302,1.129,0.453c1.206,0.508,2.248,0.948,3.042,0.552
		c0.494-0.245,1.095-0.045,1.341,0.45c0.246,0.494,0.044,1.095-0.45,1.341C99.811,81.111,99.284,81.214,98.763,81.214z"/>
</g>
<g opacity="0.2">
	<path d="M26.789,126.222c-0.568,0-1.132-0.24-1.527-0.708c-2.405-2.841-11.653-23.707-11.03-28.18
		c0.152-1.094,1.155-1.862,2.257-1.705c1.092,0.152,1.855,1.159,1.706,2.251c-0.277,2.95,7.906,22.433,10.121,25.048
		c0.714,0.843,0.609,2.105-0.234,2.819C27.704,126.067,27.245,126.222,26.789,126.222z"/>
</g>
<g opacity="0.2">
	<path d="M33.5,136.5c-1.104,0-2-0.896-2-2c0-0.26,0.05-0.509,0.14-0.736c-0.777-0.212-1.38-0.885-1.464-1.734
		c-0.108-1.1,0.695-2.078,1.794-2.187c1.608-0.162,3.069,0.505,3.917,1.773c0.713,1.066,0.819,2.359,0.277,3.373
		C35.658,135.935,34.662,136.5,33.5,136.5z"/>
</g>
</svg>
