<?xml version="1.0" encoding="utf-8"?>
<!-- Generator: Adobe Illustrator 15.1.0, SVG Export Plug-In . SVG Version: 6.00 Build 0)  -->
<!DOCTYPE svg PUBLIC "-//W3C//DTD SVG 1.1//EN" "http://www.w3.org/Graphics/SVG/1.1/DTD/svg11.dtd">
<svg version="1.1" id="Layer_2" xmlns="http://www.w3.org/2000/svg" xmlns:xlink="http://www.w3.org/1999/xlink" x="0px" y="0px"
	 width="302px" height="302px" viewBox="0 0 302 302" enable-background="new 0 0 302 302" xml:space="preserve">
<ellipse opacity="0.2" enable-background="new    " cx="156.167" cy="284.834" rx="110.167" ry="14.5"/>
<path fill="#F68634" d="M234.679,190c-5-21.333-13.001-48.667-21.667-66.667c-2.886-5.993-6.71-14.351-11.833-22.834l1.255,1.31
	c0,0,1.256-17.809,1.256-27.976s-0.666-18.167-4.666-20.5s-10.41-0.833-15.789,6.5c-4.409,6.014-7.232,11.014-8.106,12.62
	C168.393,68.469,160.664,66,151.785,66h-4.215c-8.87,0-16.593,2.464-23.322,6.441c-0.424-0.794-3.191-5.879-8.126-12.608
	c-5.378-7.333-11.789-8.833-15.789-6.5s-4.667,10.333-4.667,20.5s1.256,27.976,1.256,27.976l1.306-1.395
	c-5.148,8.512-8.989,16.906-11.884,22.918c-8.667,18-16.667,45.333-21.667,66.667c-5.553,23.692-8,33.667-6.333,53.334
	c2.518,29.707,19.667,36.333,37.333,44s54,5.666,54,5.666s36.333,2.001,54-5.666c17.666-7.667,34.814-14.293,37.333-44
	C242.679,223.667,240.231,213.693,234.679,190z"/>
<path fill="#FEB761" d="M150.25,292.5c0,0,0,0.25,7,0s8.25-3,7.5-8.25s-3.25-22.5-0.25-32.25c1.227-3.986,2.091-7.995,4.034-11.664
	c9.97-18.822,20.636-34.958,24.785-58.534C195.75,168,201.25,141.5,179,141.75c-6.505,0.073-11-3.5-14.25-3.5s-14.5-1-14.5-1h-2
	c0,0-11.25,1-14.5,1s-7.746,3.573-14.25,3.5c-22.25-0.25-16.75,26.25-14.32,40.052c4.15,23.576,14.816,39.712,24.786,58.534
	c1.943,3.669,2.808,7.678,4.035,11.664c3,9.75,0.5,27-0.25,32.25s0.5,8,7.5,8.25s7,0,7,0H150.25z"/>
<path fill="#A75214" d="M157.245,155.771c-1.66-2.136-3.874-3.65-5.309-4.491l-0.272-5.055c-0.061-1.104-1.015-1.949-2.105-1.889
	c-1.103,0.06-1.949,1.002-1.889,2.105l0.246,4.544c-1.362,0.75-3.948,2.371-5.827,4.787c-2.898,3.727-1.746,8.512-1.695,8.713
	c0.228,0.908,1.04,1.511,1.936,1.511c0.157,0,0.317-0.019,0.478-0.058c1.069-0.262,1.726-1.343,1.471-2.412
	c-0.007-0.03-0.718-3.129,0.97-5.299c1.366-1.758,3.322-3.018,4.42-3.639c1.099,0.623,3.061,1.889,4.422,3.641
	c1.677,2.154,0.984,5.228,0.97,5.297c-0.262,1.067,0.389,2.146,1.457,2.414c0.163,0.041,0.326,0.061,0.487,0.061
	c0.896,0,1.711-0.605,1.938-1.516C158.991,164.283,160.144,159.498,157.245,155.771z"/>
<path d="M154.012,136.167c2.333,0,4.497-0.079,6.667,2c4,3.833-2.667,12.5-11,12.5s-15-8.667-11-12.5c2.169-2.079,4.333-2,6.667-2
	H154.012z"/>
<path fill="#FEB761" d="M198.75,62.25c0,0-6.5,4.25-8.5,8.25s-2.5,8.25,0.5,13.25s7,6.75,9-2.5s2.5-18,1.25-18.75
	S198.75,62.25,198.75,62.25z"/>
<path fill="#FEB761" d="M100.557,62.25c0,0,6.5,4.25,8.5,8.25s2.5,8.25-0.5,13.25s-7,6.75-9-2.5s-2.5-18-1.25-18.75
	S100.557,62.25,100.557,62.25z"/>
<g>
	<path fill="#A75214" d="M124.669,160c-0.713,0-1.403-0.382-1.765-1.055c-0.521-0.973-0.156-2.187,0.816-2.709l13.667-7.332
		c0.975-0.523,2.187-0.156,2.708,0.816c0.522,0.974,0.157,2.186-0.816,2.708l-13.667,7.333C125.312,159.924,124.988,160,124.669,160
		z"/>
</g>
<g>
	<path fill="#A75214" d="M120.333,151c-1.104,0-2-0.896-2-2s0.896-2,2-2c0.014,0,1.617-0.007,4.445-0.321
		c2.309-0.256,8.223-1.958,10.306-2.592c1.058-0.321,2.174,0.274,2.496,1.331c0.321,1.057-0.274,2.174-1.331,2.496
		c-0.32,0.098-7.881,2.392-11.029,2.742C122.146,150.996,120.406,151,120.333,151z"/>
</g>
<g>
	<path fill="#A75214" d="M174.688,160c-0.318,0-0.643-0.076-0.942-0.236l-13.666-7.334c-0.975-0.521-1.339-1.735-0.817-2.708
		c0.522-0.974,1.735-1.339,2.708-0.816l13.666,7.333c0.974,0.521,1.339,1.735,0.817,2.708C176.091,159.618,175.4,160,174.688,160z"
		/>
</g>
<g>
	<path fill="#A75214" d="M179.023,151c-0.071,0-1.813-0.004-4.887-0.345c-3.148-0.35-10.709-2.645-11.029-2.742
		c-1.057-0.321-1.652-1.438-1.331-2.496c0.321-1.057,1.444-1.649,2.495-1.331c2.084,0.634,7.998,2.336,10.308,2.593
		c2.827,0.314,4.432,0.321,4.446,0.321c1.104,0.002,1.998,0.898,1.997,2.002S180.127,151,179.023,151z"/>
</g>
<ellipse fill="#FEB761" cx="149.678" cy="140.954" rx="6.701" ry="1.787"/>
<circle fill="#FFEA00" cx="120.374" cy="120.195" r="21.554"/>
<g>
	<path d="M120.374,143.75c-12.988,0-23.555-10.566-23.555-23.554c0-12.987,10.566-23.554,23.555-23.554
		c12.987,0,23.554,10.566,23.554,23.554C143.928,133.184,133.362,143.75,120.374,143.75z M120.374,100.641
		c-10.782,0-19.555,8.772-19.555,19.554c0,10.782,8.772,19.554,19.555,19.554c10.781,0,19.554-8.772,19.554-19.554
		C139.928,109.413,131.156,100.641,120.374,100.641z"/>
</g>
<circle cx="119.552" cy="116.193" r="18.397"/>
<circle fill="#FFFFFF" cx="116.122" cy="110.61" r="6.048"/>
<ellipse transform="matrix(-0.5147 -0.8574 0.8574 -0.5147 82.1453 296.8378)" fill="#817F7F" cx="125.087" cy="125.169" rx="2.833" ry="6.083"/>
<circle fill="#FFEA00" cx="179.023" cy="120.195" r="21.554"/>
<g>
	<path d="M179.023,143.75c-12.987,0-23.555-10.566-23.555-23.554c0-12.987,10.566-23.554,23.555-23.554
		c12.987,0,23.555,10.566,23.555,23.554C202.577,133.184,192.011,143.75,179.023,143.75z M179.023,100.641
		c-10.781,0-19.555,8.772-19.555,19.554c0,10.782,8.771,19.554,19.555,19.554s19.555-8.772,19.555-19.554
		C198.577,109.413,189.806,100.641,179.023,100.641z"/>
</g>
<circle cx="178.202" cy="116.193" r="18.397"/>
<circle fill="#FFFFFF" cx="174.772" cy="110.61" r="6.047"/>
<ellipse transform="matrix(-0.5146 -0.8574 0.8574 -0.5146 170.973 347.1235)" fill="#817F7F" cx="183.739" cy="125.168" rx="2.833" ry="6.083"/>
<g>
	<path fill="#A75214" d="M126.999,92.167c-0.458,0-0.918-0.156-1.294-0.476c-0.842-0.715-0.944-1.978-0.229-2.819l5.667-6.667
		c0.715-0.841,1.979-0.944,2.819-0.229c0.841,0.715,0.943,1.978,0.229,2.819l-5.667,6.667
		C128.128,91.928,127.565,92.167,126.999,92.167z"/>
</g>
<g>
	<path fill="#A75214" d="M132.665,93.333c-0.398,0-0.801-0.119-1.151-0.366c-0.902-0.636-1.118-1.884-0.48-2.787l4.818-6.833
		c0.635-0.902,1.882-1.119,2.787-0.481c0.902,0.636,1.118,1.884,0.481,2.787l-4.819,6.833
		C133.912,93.039,133.293,93.333,132.665,93.333z"/>
</g>
<g>
	<path fill="#A75214" d="M169.524,92.167c-0.565,0-1.129-0.239-1.523-0.705l-5.668-6.667c-0.716-0.841-0.613-2.104,0.228-2.819
		c0.844-0.715,2.104-0.613,2.819,0.229l5.668,6.667c0.716,0.841,0.613,2.104-0.229,2.819
		C170.442,92.011,169.982,92.167,169.524,92.167z"/>
</g>
<g>
	<path fill="#A75214" d="M163.857,93.333c-0.629,0-1.247-0.295-1.637-0.848l-4.818-6.833c-0.637-0.902-0.421-2.15,0.482-2.787
		c0.901-0.635,2.15-0.421,2.787,0.482l4.817,6.833c0.638,0.902,0.422,2.15-0.481,2.787
		C164.658,93.215,164.256,93.333,163.857,93.333z"/>
</g>
<g>
	<path fill="none" d="M199.979,93c0.338-5.936,0.71-13.708,0.71-19.166c0-4.391,0-16.055-3.178-17.909
		c-2.595-1.514-7.412-0.379-11.858,5.683c-3.273,4.466-5.397,7.867-6.519,9.765C187.596,76.988,194.432,84.818,199.979,93z"/>
	<path fill="none" d="M120.222,71.373c-1.12-1.897-3.243-5.298-6.519-9.765c-4.447-6.063-9.266-7.198-11.858-5.683
		c-3.178,1.854-3.178,13.518-3.178,17.909c0,5.457,0.372,13.229,0.71,19.166C104.925,84.818,111.761,76.988,120.222,71.373z"/>
	<path fill="none" d="M231.523,198.833c-2.167,1.334-4,2.334-6.167,1.167s-1.834-3.667,0.833-6.667
		c1.403-1.578,3.426-3.457,5.031-4.888c-0.736-3.077-1.496-6.129-2.277-9.146c-1.915,1.65-4.662,3.468-5.314,3.875
		c-2.038,1.274-6.313,3.999-8.771,2.657c-1.833-1-2.5-2.832-0.167-6.166c2.334-3.334,7.334-6.668,9.667-8.834
		c0.646-0.598,1.271-1.15,1.848-1.648c-1.018-3.598-2.057-7.115-3.112-10.528c-1.798,1.782-4.313,4.153-6.567,5.845
		c-4,3-10.5,7.001-13.5,5.667s-2.167-4.667-0.667-6.834c1.871-2.702,6.167-5.666,11-9.833c2.354-2.028,4.582-4.013,6.256-5.521
		c-3.104-9.051-6.267-17.038-9.304-23.345l-1.214-2.537C200.239,103.542,183.755,69,151.785,69h-4.215
		c-31.971,0-48.454,34.542-57.31,53.1l-1.213,2.535c-3.037,6.307-6.2,14.293-9.304,23.345c1.674,1.507,3.902,3.492,6.256,5.52
		c4.833,4.167,9.129,7.131,11,9.833c1.5,2.167,2.333,5.5-0.667,6.834s-9.5-2.667-13.5-5.667c-2.255-1.689-4.771-4.063-6.567-5.844
		c-1.057,3.412-2.096,6.931-3.112,10.527c0.577,0.498,1.202,1.051,1.847,1.648c2.333,2.166,7.333,5.5,9.667,8.834
		s1.667,5.166-0.167,6.166c-2.46,1.342-6.733-1.383-8.771-2.657c-0.652-0.407-3.399-2.225-5.314-3.875
		c-0.782,3.017-1.542,6.067-2.278,9.146c1.606,1.432,3.628,3.31,5.031,4.888c2.667,3,3,5.5,0.833,6.667s-4,0.167-6.167-1.167
		c-0.626-0.386-1.239-0.914-1.796-1.472c-4.426,19.041-6.167,28.443-4.703,45.72c2.298,27.116,17.038,33.494,34.104,40.88
		l1.435,0.621c11.334,4.919,31.307,5.652,42.204,5.652c6.159,0,10.396-0.229,10.438-0.229c0.055-0.003,0.109-0.005,0.165-0.005
		s0.11,0.002,0.165,0.005c0.042,0.002,4.275,0.229,10.438,0.229c10.896,0,30.868-0.733,42.203-5.652l1.435-0.621
		c17.065-7.386,31.806-13.764,34.104-40.88c1.465-17.276-0.277-26.679-4.703-45.72C232.762,197.918,232.149,198.447,231.523,198.833
		z"/>
	<path fill="#A75214" d="M237.881,190.518l-0.281-1.201c-2.339-9.979-10.828-44.318-21.885-67.283l-1.205-2.518
		c-2.426-5.083-5.396-11.294-9.068-17.715c0.147-2.129,1.248-18.287,1.248-27.966c0-12.351-1.007-20.088-6.153-23.091
		c-5.002-2.917-13.041-1.79-19.721,7.317c-3.427,4.673-5.652,8.231-6.858,10.279C167.468,65.019,160.128,63,151.785,63h-4.215
		c-8.343,0-15.683,2.019-22.171,5.339c-1.206-2.048-3.432-5.606-6.858-10.279c-6.678-9.106-14.716-10.237-19.72-7.317
		c-5.146,3.003-6.154,10.741-6.154,23.091c0,9.679,1.101,25.836,1.248,27.966c-3.673,6.421-6.644,12.633-9.069,17.717l-1.204,2.516
		c-11.056,22.963-19.546,57.305-21.885,67.283l-0.28,1.193c-5.355,22.844-7.801,33.27-6.122,53.077
		c2.603,30.692,20.444,38.413,37.7,45.881l1.428,0.618c11.711,5.083,30.713,6.148,44.593,6.148c5.723,0,9.744-0.188,10.602-0.23
		c0.857,0.044,4.877,0.23,10.602,0.23c13.88,0,32.882-1.065,44.594-6.148l1.428-0.618c17.256-7.468,35.099-15.188,37.7-45.881
		C245.68,223.781,243.236,213.357,237.881,190.518z M185.653,61.608c4.446-6.062,9.265-7.197,11.858-5.683
		c3.178,1.854,3.178,13.518,3.178,17.909c0,5.458-0.372,13.23-0.71,19.166c-5.548-8.181-12.384-16.012-20.845-21.626
		C180.255,69.475,182.379,66.074,185.653,61.608z M98.667,73.833c0-4.391,0-16.055,3.178-17.909
		c2.593-1.515,7.411-0.38,11.858,5.683c3.274,4.467,5.398,7.868,6.519,9.765c-8.46,5.615-15.297,13.445-20.844,21.626
		C99.039,87.063,98.667,79.291,98.667,73.833z M238.022,243.081c-2.299,27.116-17.038,33.494-34.104,40.88l-1.435,0.621
		c-11.335,4.919-31.308,5.652-42.204,5.652c-6.161,0-10.396-0.229-10.438-0.229c-0.055-0.003-0.109-0.005-0.165-0.005
		s-0.11,0.002-0.165,0.005c-0.042,0.002-4.278,0.229-10.438,0.229c-10.896,0-30.869-0.733-42.204-5.652l-1.435-0.621
		c-17.065-7.386-31.806-13.764-34.104-40.88c-1.464-17.276,0.277-26.679,4.703-45.72c0.558,0.558,1.17,1.086,1.796,1.472
		c2.167,1.334,4,2.334,6.167,1.167s1.834-3.667-0.833-6.667c-1.403-1.578-3.425-3.456-5.031-4.888
		c0.736-3.077,1.496-6.129,2.278-9.146c1.915,1.65,4.662,3.468,5.314,3.875c2.038,1.274,6.313,3.999,8.771,2.657
		c1.833-1,2.5-2.832,0.167-6.166s-7.334-6.668-9.667-8.834c-0.645-0.598-1.271-1.15-1.847-1.648
		c1.018-3.598,2.056-7.115,3.112-10.527c1.798,1.781,4.313,4.152,6.567,5.844c4,3,10.5,7.001,13.5,5.667S98.5,165.5,97,163.333
		c-1.871-2.702-6.167-5.666-11-9.833c-2.354-2.028-4.582-4.013-6.256-5.52c3.104-9.052,6.268-17.039,9.304-23.345l1.213-2.535
		C99.116,103.542,115.6,69,147.571,69h4.215c31.97,0,48.453,34.542,57.31,53.098l1.214,2.537c3.037,6.307,6.2,14.294,9.304,23.345
		c-1.674,1.507-3.902,3.492-6.256,5.521c-4.833,4.167-9.129,7.131-11,9.833c-1.5,2.167-2.333,5.5,0.667,6.834s9.5-2.667,13.5-5.667
		c2.254-1.69,4.771-4.063,6.567-5.845c1.057,3.412,2.096,6.932,3.112,10.527c-0.577,0.498-1.202,1.053-1.848,1.649
		c-2.333,2.166-7.333,5.5-9.667,8.834c-2.333,3.334-1.666,5.166,0.167,6.166c2.46,1.342,6.733-1.383,8.771-2.657
		c0.652-0.408,3.399-2.225,5.314-3.875c0.781,3.016,1.541,6.067,2.277,9.145c-1.604,1.432-3.628,3.311-5.031,4.889
		c-2.667,3-3,5.5-0.833,6.667s4,0.167,6.167-1.167c0.626-0.387,1.238-0.915,1.796-1.473
		C237.744,216.402,239.487,225.805,238.022,243.081z"/>
</g>
<path fill="#F68634" d="M243.333,231.666c0,0,7.333,6.834,8,16.334c0.453,6.461-0.22,13.102-2.274,19.254
	c-3.43,10.268-14.359,19.141-24.468,22.36c-4.958,1.579-11.738,1.774-15.165-2.884c-2.18-2.963-2.882-6.725-1.926-10.23
	c1.5-5.5,7.667-9,16.167-14.5c5.498-3.559,10.699-8.029,14.261-13.581C241.204,243.311,241.926,237.449,243.333,231.666z"/>
<path fill="#F68634" d="M164.5,251.75c0,0-1.962,21.462-1.75,28.25c0.25,8,2.5,14.75,4.75,16.75s5.75,4.5,12.75-4.75
	s12.5-27.25,14.25-32.25s2.25-7,2.25-7L164.5,251.75z"/>
<g>
	<path fill="#A75214" d="M171.468,300.639c-2.604,0-4.399-1.597-5.297-2.394c-2.938-2.612-5.167-10.089-5.42-18.183
		c-0.213-6.832,1.677-27.613,1.758-28.494c0.101-1.101,1.074-1.912,2.173-1.811c1.102,0.1,1.91,1.073,1.811,2.174
		c-0.02,0.213-1.948,21.418-1.742,28.006c0.257,8.203,2.586,13.989,4.08,15.316c1.062,0.943,1.87,1.48,2.884,1.37
		c1.246-0.122,3.463-1.233,6.941-5.832c5.957-7.872,10.818-22.37,13.154-29.337c0.32-0.955,0.589-1.758,0.803-2.367
		c1.686-4.813,2.193-6.807,2.198-6.826c0.271-1.068,1.354-1.721,2.427-1.451c1.07,0.27,1.722,1.354,1.453,2.424
		c-0.021,0.086-0.543,2.146-2.303,7.177c-0.209,0.597-0.472,1.382-0.785,2.315c-2.403,7.168-7.404,22.086-13.758,30.479
		c-3.543,4.683-6.729,7.103-9.74,7.399C171.888,300.628,171.675,300.639,171.468,300.639z"/>
</g>
<path fill="#F68634" d="M133.734,251.75c0,0,1.962,21.462,1.75,28.25c-0.25,8-2.5,14.75-4.75,16.75s-5.75,4.5-12.75-4.75
	s-12.5-27.25-14.25-32.25s-2.25-7-2.25-7L133.734,251.75z"/>
<g>
	<path fill="#A75214" d="M126.767,300.639c-0.208,0-0.42-0.011-0.637-0.031c-3.011-0.297-6.197-2.717-9.74-7.399
		c-6.353-8.396-11.354-23.312-13.758-30.479c-0.313-0.935-0.576-1.72-0.785-2.315c-1.76-5.029-2.281-7.091-2.303-7.177
		c-0.269-1.071,0.384-2.157,1.456-2.426c1.067-0.269,2.157,0.385,2.425,1.455c0.004,0.019,0.513,2.014,2.197,6.824
		c0.213,0.61,0.481,1.412,0.802,2.367c2.336,6.967,7.197,21.465,13.155,29.337c3.479,4.599,5.695,5.71,6.942,5.832
		c1.013,0.11,1.823-0.427,2.884-1.37c1.494-1.326,3.823-7.113,4.08-15.316c0.206-6.588-1.723-27.793-1.742-28.006
		c-0.102-1.101,0.709-2.074,1.81-2.174c1.105-0.104,2.074,0.711,2.174,1.811c0.081,0.881,1.971,21.662,1.757,28.494
		c-0.253,8.094-2.481,15.569-5.42,18.183C131.166,299.042,129.371,300.639,126.767,300.639z"/>
</g>
<g>
	<path fill="#3FA2FF" d="M125,142.917c-5.044,0-11.166-2.917-5.833-4.917s8-1,11.333-2.667s6.333-2,4.333,1
		S127.333,142.917,125,142.917z"/>
	<path opacity="0.62" fill="#FFFFFF" enable-background="new    " d="M124.833,141.333c-5.044,0-10.999-1.333-5.666-3.333
		s8-1,11.333-2.667s6.333-2,4.333,1S127.166,141.333,124.833,141.333z"/>
	<path fill="#FFFFFF" d="M128,140.917c-1.429,0.27-8.869,1.227-8.871-0.504c0-0.548,2.26-0.897,2.706-1.032
		c1.095-0.332,2.235-0.585,3.384-0.607c1.038-0.02,2.067,0.293,3.103,0.188c0.74-0.075,1.398-0.364,2.115-0.518
		c0.964-0.207,1.543,0.181,0.822,1.124c-0.672,0.878-2.086,1.062-3.084,1.313C128.136,140.889,128.076,140.902,128,140.917z"/>
</g>
<g>
	<path fill="#3FA2FF" d="M174.821,142.917c5.045,0,11.167-2.917,5.833-4.917c-5.333-2-8-1-11.333-2.667s-6.333-2-4.333,1
		S172.488,142.917,174.821,142.917z"/>
	<path opacity="0.62" fill="#FFFFFF" enable-background="new    " d="M174.988,141.333c5.046,0,11-1.333,5.666-3.333
		c-5.333-2-8-1-11.333-2.667s-6.333-2-4.333,1S172.655,141.333,174.988,141.333z"/>
	<path fill="#FFFFFF" d="M171.821,140.917c1.429,0.27,8.87,1.227,8.872-0.504c0-0.548-2.261-0.897-2.707-1.032
		c-1.095-0.332-2.235-0.585-3.384-0.607c-1.038-0.02-2.066,0.293-3.103,0.188c-0.74-0.075-1.398-0.364-2.115-0.518
		c-0.964-0.207-1.543,0.181-0.822,1.124c0.672,0.878,2.086,1.062,3.084,1.313C171.686,140.889,171.745,140.902,171.821,140.917z"/>
</g>
<g>
	<path fill="none" d="M212,285c0.345,0.469,0.71,0.846,1.082,1.184c1.299,0.955,3.06,1.441,5.269,1.441
		c1.701,0,3.544-0.301,5.33-0.869c8.73-2.781,19.274-10.699,22.532-20.451c1.837-5.498,2.572-11.755,2.128-18.095
		c-0.271-3.86-1.854-7.271-3.451-9.796l-0.749-1.225c-0.932,4.176-2.037,8.424-4.529,12.31c-2.151,3.354-4.277,6.711-7.167,9.496
		c-4.021,3.877-9.217,6.401-13.807,9.493c-3.236,2.182-7.71,5.453-8.528,9.535C209.655,280.291,210.65,283.166,212,285z"/>
	<path fill="#A75214" d="M254.325,247.79c-0.741-10.558-8.612-18.007-8.947-18.317c-0.779-0.729-1.889-0.986-2.905-0.681
		c-0.506,0.151-0.688,0.901-0.771,1.746c-0.138,0.198-0.252,0.413-0.312,0.655c-0.293,1.203-0.557,2.408-0.818,3.611
		c-0.985,4.514-1.403,7.527-4.326,12.533c-2.813,4.819-7.61,9.064-13.664,12.982c-0.775,0.5-1.531,0.986-2.267,1.457
		c-7.358,4.723-13.576,8.521-15.434,13.91l-0.006-0.002c-0.005,0.019-0.007,0.035-0.013,0.053c-0.065,0.197-0.142,0.393-0.195,0.594
		c-0.34,1.246-0.444,2.503-0.36,3.746c0.012,2.997,0.867,5.934,2.702,8.43c2.463,3.348,6.384,5.116,11.342,5.116
		c2.312,0,4.784-0.397,7.15-1.151c9.86-3.143,22.33-12.076,26.402-24.27C253.987,261.968,254.825,254.908,254.325,247.79z
		 M218.638,268.489c4.59-3.093,9.785-5.617,13.807-9.494c2.89-2.785,5.819-5.244,7.932-9.495c2.054-4.135,2.834-8.135,3.766-12.311
		l0.749,1.225c1.598,2.525,3.18,5.936,3.451,9.796c0.444,6.34-0.291,12.597-2.128,18.095c-3.258,9.752-13.802,17.67-22.532,20.451
		c-1.786,0.568-3.629,0.869-5.33,0.869c-2.209,0-3.97-0.486-5.269-1.441c-0.372-0.338-0.737-0.715-1.082-1.184
		c-1.351-1.834-2.346-4.709-1.892-6.977C210.928,273.941,215.401,270.67,218.638,268.489z"/>
</g>
</svg>
